<?xml version="1.0" encoding="utf-8"?>
<!-- Generator: Adobe Illustrator 27.5.0, SVG Export Plug-In . SVG Version: 6.00 Build 0)  -->
<svg version="1.1" xmlns="http://www.w3.org/2000/svg" xmlns:xlink="http://www.w3.org/1999/xlink" x="0px" y="0px"
	 viewBox="0 0 3710 3710" style="enable-background:new 0 0 3710 3710;" xml:space="preserve">
<g id="Background">
	<g>
		<g>
			<rect style="fill:#FFFFFF;" width="3710" height="3710"/>
		</g>
	</g>
</g>
<g id="Illustration">
	<g>
		<linearGradient id="SVGID_1_" gradientUnits="userSpaceOnUse" x1="3451.8511" y1="3559.1548" x2="1564.1035" y2="1549.6176">
			<stop  offset="0" style="stop-color:#DAE3FE"/>
			<stop  offset="1" style="stop-color:#E9EFFD"/>
		</linearGradient>
		<path style="fill:url(#SVGID_1_);" d="M2883.001,2753.432c-169.245,178.531-393.848,309.453-663.301,362.308
			c-620.43,121.7-1459.059-63.808-1647.917-747.875c-115.105-416.927-34.508-904.571,201.932-1265.823
			c259.882-397.067,729.047-664.998,1209.217-646.102c469.807,18.488,930.291,388.32,1124.922,799.657
			C3353.295,1774.316,3244.269,2372.34,2883.001,2753.432z"/>
		<g>
			<g>
				<g style="opacity:0.3;">
					<path style="fill:#91B3FA;" d="M1239.079,745.936c-4.795,2.9-11.033,1.361-13.93-3.433
						c-5.632-9.315-11.751-18.524-18.19-27.372c-3.258-4.476-2.318-10.725,2.076-14.053c0.052-0.039,0.104-0.079,0.158-0.12
						c4.53-3.296,10.875-2.295,14.172,2.236c6.776,9.313,13.22,19.007,19.147,28.814c2.712,4.483,1.54,10.231-2.548,13.327
						C1239.682,745.549,1239.388,745.752,1239.079,745.936z M1172.665,674.217c-7.581-7.884-15.57-15.517-23.755-22.695
						c-4.209-3.691-4.632-10.101-0.939-14.315c3.722-4.215,10.105-4.63,14.318-0.936c8.611,7.551,17.022,15.586,25,23.88
						c3.883,4.038,3.757,10.461-0.281,14.345c-0.293,0.282-0.6,0.543-0.916,0.783
						C1182.049,678.339,1176.266,677.962,1172.665,674.217z M1106.443,619.217c-9.12-5.982-18.611-11.639-28.216-16.817
						c-4.93-2.658-6.773-8.813-4.115-13.744c2.661-4.923,8.81-6.771,13.744-4.115c10.114,5.453,20.111,11.412,29.713,17.711
						c4.685,3.073,5.99,9.361,2.92,14.047c-0.656,0.998-1.457,1.844-2.357,2.526C1114.81,621.342,1110.129,621.635,1106.443,619.217
						z M1029.584,580.41c-10.239-3.797-20.762-7.191-31.277-10.095c-5.4-1.493-8.57-7.08-7.079-12.479
						c1.497-5.398,7.082-8.564,12.479-7.079c11.072,3.058,22.149,6.634,32.927,10.625c5.252,1.948,7.933,7.785,5.986,13.038
						c-0.697,1.88-1.891,3.43-3.379,4.557C1036.57,581,1032.958,581.658,1029.584,580.41z M945.995,559.692
						c-10.8-1.424-21.817-2.407-32.738-2.914c-5.598-0.264-9.922-5.012-9.661-10.608c0.26-5.6,5.011-9.924,10.608-9.658
						c11.49,0.535,23.081,1.569,34.445,3.068c5.554,0.731,9.463,5.827,8.729,11.383c-0.368,2.799-1.846,5.18-3.932,6.76
						C951.393,559.278,948.751,560.055,945.995,559.692z M859.906,557.986c-10.864,1-21.819,2.481-32.563,4.4
						c-5.515,0.985-10.786-2.688-11.77-8.201c-0.986-5.516,2.683-10.786,8.201-11.773c11.306-2.021,22.84-3.577,34.273-4.63
						c5.579-0.512,10.517,3.593,11.032,9.172c0.334,3.624-1.283,6.976-3.986,9.023C863.634,557.081,861.862,557.806,859.906,557.986
						z M543.208,761.968c-4.927-2.666-6.76-8.823-4.093-13.751c5.465-10.093,11.445-20.085,17.773-29.693
						c3.082-4.68,9.373-5.975,14.052-2.892c4.678,3.079,5.972,9.37,2.892,14.049c-6.009,9.124-11.686,18.612-16.874,28.197
						c-0.712,1.315-1.671,2.408-2.79,3.256C551.094,763.461,546.82,763.925,543.208,761.968z M775.631,575.394
						c-10.364,3.39-20.707,7.27-30.741,11.539c-5.158,2.191-11.115-0.212-13.307-5.367c-2.193-5.158,0.224-11.09,5.368-13.305
						c10.567-4.493,21.459-8.581,32.374-12.149c5.325-1.741,11.053,1.163,12.795,6.49c1.381,4.223-0.161,8.701-3.516,11.242
						C777.731,574.505,776.731,575.033,775.631,575.394z M591.909,688.177c-4.204-3.701-4.611-10.113-0.909-14.318
						c7.585-8.611,15.643-17.01,23.943-24.965c4.032-3.898,10.467-3.736,14.344,0.307c3.875,4.044,3.738,10.466-0.307,14.344
						c-7.889,7.56-15.547,15.541-22.753,23.727c-0.46,0.522-0.963,0.983-1.497,1.387
						C600.964,691.509,595.589,691.419,591.909,688.177z M697.375,611.194c-9.339,5.62-18.557,11.716-27.401,18.125
						c-4.536,3.291-10.878,2.278-14.167-2.26c-3.244-4.477-2.3-10.714,2.087-14.037c0.057-0.043,0.115-0.087,0.174-0.127
						c9.308-6.75,19.013-13.17,28.84-19.086c4.803-2.886,11.035-1.338,13.925,3.462c2.699,4.482,1.523,10.219-2.558,13.31
						C697.99,610.798,697.687,611.002,697.375,611.194z"/>
					<path style="fill:#91B3FA;" d="M526.065,826.589c1.592-1.206,2.848-2.892,3.513-4.937c1.619-4.974,3.372-9.994,5.202-14.929
						c1.951-5.25-0.725-11.092-5.976-13.041c-5.252-1.953-11.098,0.72-13.041,5.979c-1.929,5.188-3.77,10.47-5.476,15.703
						c-1.736,5.326,1.176,11.054,6.5,12.788C520.072,829.223,523.506,828.526,526.065,826.589z"/>
				</g>
				<g style="opacity:0.3;">
					<path style="fill:#91B3FA;" d="M552.681,1134.719c3.903-2.956,5.195-8.388,2.821-12.848c-2.458-4.615-4.862-9.361-7.14-14.102
						c-2.428-5.051-8.489-7.176-13.538-4.75c-5.07,2.438-7.175,8.49-4.749,13.538c2.401,4.991,4.93,9.99,7.518,14.85
						c2.633,4.945,8.777,6.819,13.723,4.187C551.801,1135.335,552.256,1135.041,552.681,1134.719z"/>
					<path style="fill:#91B3FA;" d="M1123.552,1276.179c-4.626,3.16-10.939,1.971-14.1-2.659
						c-3.158-4.627-1.967-10.927,2.659-14.097c8.809-6.015,17.497-12.499,25.928-19.341c4.317-3.528,10.74-2.864,14.27,1.486
						s2.865,10.738-1.484,14.271c-3.653,2.964-7.34,5.857-11.061,8.674C1134.455,1268.533,1129.001,1272.459,1123.552,1276.179z
						 M1176.951,1218.627c-4.084-3.831-4.291-10.251-0.458-14.336c7.356-7.847,14.463-16.087,21.118-24.496
						c3.459-4.399,9.856-5.137,14.251-1.661c4.391,3.475,5.134,9.856,1.658,14.247c-7.006,8.854-14.485,17.531-22.229,25.785
						c-0.401,0.428-0.832,0.814-1.284,1.156C1186.138,1222.253,1180.611,1222.059,1176.951,1218.627z M1075.873,1304.152
						c-10.103,5.031-20.56,9.699-31.083,13.87c-5.208,2.065-11.104-0.483-13.171-5.693c-2.064-5.207,0.487-11.096,5.693-13.169
						c9.994-3.96,19.923-8.391,29.515-13.17c5.016-2.496,11.106-0.457,13.605,4.56c2.209,4.436,0.865,9.714-2.948,12.601
						C1076.988,1303.527,1076.45,1303.864,1075.873,1304.152z M1230.891,1150.363c-4.828-2.84-6.441-9.06-3.598-13.887
						c5.448-9.255,10.562-18.855,15.206-28.529c2.424-5.056,8.481-7.182,13.534-4.756c5.051,2.423,7.18,8.481,4.757,13.531
						c-4.89,10.189-10.277,20.298-16.012,30.044c-0.694,1.177-1.586,2.165-2.613,2.943
						C1238.986,1152.116,1234.54,1152.511,1230.891,1150.363z M992.162,1334.803c-10.955,2.684-22.179,4.935-33.361,6.693
						c-5.534,0.871-10.724-2.908-11.596-8.441c-0.873-5.537,2.91-10.729,8.444-11.599c10.622-1.671,21.282-3.809,31.686-6.359
						c5.443-1.333,10.935,1.999,12.268,7.441c0.993,4.055-0.603,8.136-3.731,10.505
						C994.8,1333.853,993.548,1334.464,992.162,1334.803z M903.758,1346.351c-11.304,0.225-22.75-0.026-34.018-0.742
						c-5.592-0.358-9.836-5.177-9.48-10.77c0.358-5.599,5.178-9.841,10.769-9.478c10.707,0.68,21.584,0.918,32.327,0.706
						c5.602-0.112,10.232,4.34,10.344,9.942c0.065,3.375-1.525,6.398-4.025,8.292
						C908.025,1345.551,905.982,1346.308,903.758,1346.351z M814.934,1338.36c-11.091-2.243-22.211-4.981-33.047-8.133
						c-5.381-1.566-8.471-7.195-6.907-12.574c1.567-5.387,7.196-8.471,12.574-6.907c10.298,2.998,20.861,5.596,31.403,7.728
						c5.491,1.111,9.043,6.464,7.931,11.953c-0.51,2.523-1.913,4.635-3.815,6.075C820.833,1338.198,817.903,1338.96,814.934,1338.36
						z M729.97,1311.183c-10.331-4.613-20.584-9.722-30.475-15.186c-4.904-2.708-6.685-8.88-3.975-13.785
						c2.704-4.896,8.881-6.68,13.785-3.972c9.39,5.186,19.125,10.037,28.94,14.42c5.115,2.285,7.41,8.281,5.125,13.397
						c-0.722,1.616-1.813,2.949-3.13,3.947C737.386,1312.163,733.473,1312.746,729.97,1311.183z M653.015,1265.976
						c-9.038-6.76-17.906-13.997-26.361-21.512c-4.188-3.723-4.567-10.136-0.843-14.323c3.712-4.173,10.132-4.566,14.32-0.843
						c8.031,7.14,16.454,14.012,25.039,20.436c4.485,3.354,5.402,9.713,2.046,14.198c-0.584,0.781-1.259,1.456-2,2.017
						C661.703,1268.608,656.719,1268.748,653.015,1265.976z M587.932,1205.04c-5.416-6.312-10.705-12.87-15.716-19.488
						c-1.816-2.398-3.597-4.806-5.351-7.231c-3.282-4.537-2.387-10.927,2.273-14.162c4.537-3.286,10.88-2.269,14.166,2.271
						c1.666,2.302,3.362,4.597,5.087,6.875c4.766,6.293,9.789,12.524,14.939,18.526c3.648,4.25,3.158,10.656-1.094,14.303
						c-0.16,0.136-0.323,0.269-0.489,0.395C597.505,1209.739,591.441,1209.132,587.932,1205.04z"/>
					<path style="fill:#91B3FA;" d="M1277.782,1070.084c1.608-1.218,2.869-2.923,3.531-4.986c1.676-5.23,3.272-10.595,4.745-15.945
						c1.489-5.402-1.684-10.987-7.085-12.474c-5.402-1.486-10.986,1.679-12.474,7.085c-1.4,5.082-2.918,10.177-4.507,15.144
						c-1.711,5.332,1.228,11.044,6.564,12.754C1271.828,1072.709,1275.239,1072.009,1277.782,1070.084z"/>
				</g>
				<g>
					<path style="fill:#91B3FA;" d="M1198.349,915.374c0.073-2.022-1.144-3.867-3.031-4.595l-53.834-20.78
						c-5.189-26.445-14.633-52.251-28.388-76.332l27.122-50.892c0.951-1.785,0.665-3.977-0.713-5.459l-47.135-50.688
						c-1.377-1.482-3.544-1.926-5.392-1.107l-52.727,23.359c-23.019-15.466-48.074-26.758-74.072-33.852l-16.818-55.2
						c-0.59-1.935-2.342-3.282-4.363-3.356l-69.172-2.513c-2.021-0.073-3.867,1.144-4.595,3.031l-20.779,53.834
						c-26.445,5.188-52.252,14.631-76.333,28.388l-50.892-27.122c-1.785-0.952-3.977-0.666-5.458,0.712l-50.69,47.135
						c-1.481,1.378-1.925,3.543-1.106,5.392l23.359,52.727c-15.467,23.019-26.758,48.074-33.851,74.072l-55.201,16.818
						c-1.934,0.59-3.283,2.341-3.356,4.363l-2.513,69.172c-0.073,2.021,1.144,3.867,3.03,4.595l53.836,20.78
						c5.188,26.445,14.632,52.251,28.388,76.332l-27.122,50.893c-0.952,1.785-0.666,3.977,0.711,5.458l47.136,50.689
						c1.378,1.481,3.543,1.925,5.392,1.106l52.727-23.358c23.019,15.467,48.074,26.758,74.072,33.852l16.818,55.2
						c0.589,1.935,2.341,3.283,4.363,3.356l69.172,2.513c2.021,0.073,3.866-1.144,4.595-3.03l20.779-53.835
						c26.445-5.188,52.251-14.632,76.333-28.387l50.892,27.122c1.784,0.95,3.976,0.665,5.458-0.713l50.688-47.135
						c1.481-1.377,1.926-3.543,1.106-5.392l-23.358-52.726c15.467-23.02,26.757-48.074,33.851-74.072l55.2-16.818
						c1.935-0.589,3.282-2.342,3.356-4.363L1198.349,915.374z"/>
					<g>
						<path style="fill:#BDD0FB;" d="M926.847,999.925c-33.635,18.452-76.01,6.105-94.465-27.532
							c-8.941-16.293-11-35.093-5.799-52.934c5.198-17.839,17.032-32.592,33.33-41.529c33.635-18.452,76.01-6.104,94.466,27.532
							c16.788,30.6,8.082,68.433-18.956,88.908C932.743,996.4,929.879,998.261,926.847,999.925z M842.166,924.001
							c-3.987,13.681-2.408,28.093,4.447,40.588c14.148,25.785,46.641,35.257,72.428,21.108c25.8-14.144,35.257-46.641,21.108-72.43
							c-14.148-25.785-46.641-35.257-72.428-21.108c-2.338,1.284-4.552,2.721-6.64,4.303
							C852.012,903.328,845.407,912.883,842.166,924.001z"/>
					</g>
					<path style="fill:#BDD0FB;" d="M994.955,1075.342c4.644-3.516,9.137-7.287,13.462-11.307l0,0
						c1.361-1.265,2.702-2.553,4.022-3.862c6.508-6.454,12.492-13.416,17.86-20.777c0.073-0.1,0.146-0.2,0.22-0.3
						c0.206-0.285,0.413-0.571,0.616-0.86c0.401-0.557,0.795-1.119,1.188-1.68c1.033-1.478,0.944-3.404-0.088-4.77
						c-0.251-0.332-0.559-0.63-0.918-0.881c-1.837-1.283-4.364-0.826-5.648,1.006c-6.6,9.457-14.264,18.263-22.779,26.177
						c-42.282,39.331-100.058,51.827-152.191,38.28c-28.998-7.531-56.25-23.125-78.12-46.646
						c-3.836-4.124-7.436-8.411-10.788-12.841c-22.57-29.811-34.104-66.174-32.727-104.044c1.579-43.5,20.005-83.783,51.88-113.423
						c65.838-61.21,169.124-57.435,230.311,8.365c3.773,4.057,7.326,8.29,10.647,12.679c14.396,19.017,24.471,40.972,29.424,64.326
						c0.129,0.603,0.383,1.146,0.734,1.606c0.919,1.213,2.488,1.858,4.077,1.52c2.192-0.472,3.597-2.615,3.127-4.813
						c-5.201-24.518-15.776-47.571-30.889-67.535c-3.486-4.607-7.216-9.049-11.174-13.309
						c-64.241-69.086-172.721-73.002-241.782-8.785c-33.465,31.118-52.806,73.405-54.464,119.072
						c-1.447,39.757,10.663,77.931,34.356,109.227c3.521,4.65,7.3,9.15,11.323,13.48c31.121,33.465,73.408,52.809,119.074,54.468
						C925.473,1111.162,963.656,1099.044,994.955,1075.342z"/>
				</g>
			</g>
			<g>
				<g style="opacity:0.3;">
					<path style="fill:#91B3FA;" d="M1677.328,749.468c2.161-1.636,3.084-4.553,2.072-7.217c-1.886-4.973-3.949-9.958-6.132-14.813
						c-1.418-3.155-5.124-4.562-8.284-3.145c-3.166,1.408-4.563,5.128-3.145,8.284c2.08,4.627,4.047,9.377,5.848,14.123
						c1.224,3.233,4.843,4.859,8.08,3.636C1676.341,750.116,1676.862,749.821,1677.328,749.468z"/>
					<path style="fill:#91B3FA;" d="M1655.636,706.528c-2.958,1.795-6.81,0.859-8.609-2.1c-4.54-7.46-9.515-14.775-14.787-21.736
						c-1.112-1.468-2.245-2.928-3.396-4.382c-2.143-2.713-1.684-6.653,1.03-8.8c2.647-1.927,6.653-1.684,8.805,1.031
						c1.203,1.523,2.387,3.051,3.551,4.587c5.526,7.297,10.743,14.966,15.501,22.792c1.686,2.768,0.967,6.329-1.565,8.246
						C1655.999,706.292,1655.821,706.411,1655.636,706.528z M1607.625,654.599c-7.53-7.445-15.587-14.492-23.949-20.938
						c-2.741-2.115-3.249-6.043-1.136-8.787c2.106-2.723,6.046-3.251,8.787-1.136c8.765,6.756,17.214,14.142,25.107,21.95
						c2.461,2.434,2.483,6.401,0.051,8.865c-0.213,0.215-0.444,0.412-0.68,0.591
						C1613.361,656.995,1609.868,656.816,1607.625,654.599z M1557.311,615.843c-9.11-5.366-18.652-10.213-28.368-14.414
						c-3.173-1.373-4.636-5.062-3.263-8.236c1.379-3.185,5.057-4.643,8.237-3.267c10.188,4.403,20.199,9.494,29.752,15.116
						c2.981,1.757,3.979,5.599,2.222,8.579c-0.431,0.724-0.982,1.334-1.616,1.814
						C1562.312,616.922,1559.566,617.167,1557.311,615.843z M1499.012,590.632c-10.163-2.972-20.607-5.34-31.024-7.031
						c-3.419-0.558-5.737-3.776-5.18-7.19c0.556-3.406,3.771-5.733,7.186-5.181c10.931,1.776,21.874,4.258,32.535,7.374
						c3.321,0.97,5.226,4.454,4.256,7.775c-0.396,1.337-1.193,2.447-2.228,3.23C1503.029,590.767,1500.993,591.211,1499.012,590.632
						z M1436.324,580.418c-10.576-0.411-21.273-0.169-31.803,0.712c-3.445,0.291-6.475-2.272-6.766-5.721
						c-0.29-3.449,2.267-6.483,5.721-6.766c11.034-0.926,22.249-1.176,33.333-0.751c3.457,0.137,6.152,3.047,6.018,6.502
						c-0.076,1.953-1.037,3.663-2.481,4.757C1439.232,579.996,1437.829,580.475,1436.324,580.418z M1373.056,585.731
						c-10.348,2.172-20.654,5.011-30.639,8.443c-3.27,1.125-6.837-0.617-7.96-3.888c-1.122-3.271,0.611-6.826,3.889-7.964
						c10.468-3.598,21.283-6.577,32.138-8.856c3.386-0.707,6.708,1.459,7.417,4.844c0.513,2.451-0.48,4.869-2.351,6.286
						C1374.836,585.136,1373.995,585.535,1373.056,585.731z M1313.035,606.347c-9.469,4.63-18.773,9.918-27.652,15.721
						c-2.899,1.888-6.781,1.075-8.671-1.823c-1.893-2.894-1.053-6.732,1.818-8.676c9.313-6.077,19.067-11.622,28.998-16.479
						c3.11-1.519,6.863-0.231,8.383,2.877c1.337,2.733,0.499,5.969-1.842,7.742C1313.751,605.95,1313.407,606.165,1313.035,606.347z
						 M1228.005,663.4c-2.54-2.351-2.692-6.312-0.341-8.852c6.507-7.03,13.512-13.824,20.797-20.177
						c1.102-0.972,2.214-1.922,3.331-2.868c2.566-2.296,6.599-1.897,8.829,0.759c2.231,2.647,1.89,6.596-0.755,8.829
						c-1.052,0.882-2.095,1.779-3.147,2.706c-6.975,6.079-13.656,12.56-19.863,19.262c-0.255,0.277-0.531,0.525-0.819,0.743
						C1233.66,665.603,1230.266,665.495,1228.005,663.4z"/>
				</g>
				<g style="opacity:0.3;">
					<path style="fill:#91B3FA;" d="M1586.69,1056.285c-8.79,6.479-18.054,12.474-27.529,17.83
						c-3.012,1.698-6.834,0.639-8.538-2.376c-1.704-3.016-0.602-6.82,2.376-8.538c9.038-5.103,17.871-10.824,26.257-17.006
						c2.784-2.055,6.709-1.458,8.759,1.326c2.036,2.764,1.469,6.647-1.258,8.712
						C1586.758,1056.234,1586.712,1056.269,1586.69,1056.285z M1603.033,1034.991c-2.37-2.518-2.251-6.485,0.269-8.854
						c7.578-7.135,14.802-14.801,21.468-22.788c2.212-2.634,6.168-3.013,8.827-0.79c2.657,2.217,3.01,6.163,0.795,8.823
						c-6.987,8.369-14.556,16.403-22.5,23.877c-0.168,0.158-0.338,0.303-0.519,0.44
						C1608.854,1037.605,1605.252,1037.348,1603.033,1034.991z M1529.646,1088.476c-10.101,4.164-20.541,7.749-31.031,10.651
						c-3.335,0.922-6.79-1.036-7.71-4.369c-0.926-3.336,1.027-6.772,4.364-7.711c10.008-2.766,19.965-6.184,29.604-10.153
						c3.2-1.318,6.862,0.207,8.178,3.401c1.109,2.691,0.208,5.706-2.007,7.384
						C1530.625,1087.996,1530.158,1088.266,1529.646,1088.476z M1645.18,986.803c-2.908-1.874-3.743-5.754-1.869-8.661
						c5.641-8.747,10.798-17.925,15.328-27.288c1.51-3.109,5.259-4.412,8.366-2.913c3.115,1.509,4.421,5.256,2.912,8.371
						c-4.748,9.82-10.158,19.45-16.076,28.622c-0.411,0.633-0.915,1.168-1.483,1.598
						C1650.32,988.076,1647.453,988.267,1645.18,986.803z M1466.536,1105.921c-10.781,1.61-21.774,2.574-32.678,2.872
						c-3.459,0.094-6.34-2.636-6.434-6.095c-0.095-3.46,2.63-6.344,6.095-6.435c10.401-0.278,20.884-1.201,31.166-2.74
						c3.421-0.51,6.611,1.848,7.122,5.275c0.352,2.344-0.651,4.583-2.419,5.922
						C1468.58,1105.332,1467.61,1105.759,1466.536,1105.921z M1401.073,1107.717c-10.875-1.022-21.785-2.714-32.424-5.027
						c-3.38-0.734-5.524-4.067-4.789-7.449c0.731-3.378,4.068-5.529,7.454-4.793c10.145,2.203,20.553,3.815,30.932,4.791
						c3.445,0.323,5.975,3.38,5.652,6.825c-0.172,1.819-1.105,3.385-2.458,4.411
						C1404.235,1107.387,1402.696,1107.869,1401.073,1107.717z M1337.059,1093.786c-10.322-3.596-20.512-7.86-30.283-12.665
						c-3.108-1.53-4.384-5.283-2.857-8.389c1.525-3.105,5.285-4.379,8.385-2.858c9.318,4.586,19.034,8.65,28.875,12.073
						c3.269,1.139,4.996,4.713,3.854,7.979c-0.419,1.215-1.177,2.211-2.128,2.931
						C1341.292,1094.08,1339.116,1094.5,1337.059,1093.786z"/>
					<path style="fill:#91B3FA;" d="M1680.345,928.644c0.964-0.73,1.726-1.745,2.145-2.975c1.728-5.077,3.31-10.228,4.712-15.31
						c0.917-3.335-1.041-6.787-4.378-7.707c-3.332-0.908-6.781,1.044-7.706,4.378c-1.333,4.847-2.846,9.761-4.492,14.607
						c-1.115,3.276,0.641,6.836,3.916,7.948C1676.587,930.278,1678.743,929.858,1680.345,928.644z"/>
				</g>
				<g>
					<path style="fill:#91B3FA;" d="M1629.011,820.976c0.048-1.353-0.766-2.588-2.028-3.075l-36.024-13.905
						c-3.472-17.695-9.792-34.964-18.996-51.078l18.149-34.055c0.636-1.195,0.445-2.661-0.477-3.653l-31.541-33.918
						c-0.921-0.992-2.371-1.289-3.608-0.741l-35.282,15.631c-15.404-10.35-32.169-17.906-49.565-22.653l-11.255-36.937
						c-0.394-1.295-1.567-2.197-2.92-2.246l-46.286-1.681c-1.352-0.049-2.588,0.765-3.075,2.028l-13.904,36.023
						c-17.696,3.472-34.965,9.791-51.079,18.996l-34.055-18.149c-1.195-0.636-2.661-0.445-3.652,0.476l-33.919,31.541
						c-0.991,0.922-1.288,2.371-0.74,3.608l15.631,35.283c-10.35,15.404-17.906,32.169-22.652,49.566l-36.938,11.254
						c-1.294,0.394-2.197,1.567-2.245,2.919l-1.682,46.287c-0.049,1.352,0.766,2.587,2.028,3.074l36.025,13.905
						c3.471,17.695,9.79,34.964,18.995,51.078l-18.149,34.055c-0.637,1.194-0.446,2.661,0.476,3.652l31.541,33.919
						c0.922,0.991,2.37,1.288,3.608,0.74l35.282-15.631c15.404,10.35,32.169,17.905,49.566,22.652l11.254,36.937
						c0.394,1.295,1.567,2.196,2.92,2.246l46.286,1.681c1.353,0.049,2.588-0.766,3.075-2.028l13.904-36.024
						c17.696-3.472,34.964-9.791,51.079-18.996l34.055,18.15c1.194,0.636,2.661,0.445,3.653-0.477l33.918-31.541
						c0.991-0.922,1.289-2.371,0.74-3.608l-15.63-35.282c10.35-15.404,17.905-32.169,22.652-49.566l36.938-11.254
						c1.295-0.394,2.197-1.567,2.246-2.919L1629.011,820.976z"/>
					<g>
						<path style="fill:#BDD0FB;" d="M1447.739,878.284c-11.099,6.094-23.907,7.497-36.061,3.953
							c-12.151-3.539-22.199-11.602-28.287-22.703c-12.57-22.908-4.165-51.722,18.754-64.35
							c22.916-12.565,51.778-4.151,64.342,18.754c6.091,11.098,7.495,23.904,3.953,36.057c-2.88,9.879-8.748,18.367-16.806,24.469
							C1451.783,875.866,1449.812,877.144,1447.739,878.284z M1394.374,853.503c4.48,8.167,11.87,14.098,20.813,16.705
							c8.937,2.604,18.359,1.571,26.522-2.907l0,0c8.159-4.49,14.094-11.87,16.701-20.813c2.608-8.936,1.57-18.358-2.906-26.519
							c-9.246-16.852-30.476-23.041-47.332-13.799c-1.52,0.837-2.952,1.767-4.296,2.785
							C1390.328,819.213,1385.964,838.175,1394.374,853.503z"/>
					</g>
					<path style="fill:#BDD0FB;" d="M1495.145,930.771c3.161-2.393,6.224-4.967,9.19-7.719c5.885-5.47,11.221-11.544,15.868-18.071
						c0.207-0.295,0.413-0.59,0.62-0.884c1.595-2.282,1.458-5.256-0.136-7.365c-0.388-0.512-0.863-0.973-1.417-1.359
						c-2.837-1.981-6.734-1.271-8.721,1.554c-4.281,6.135-9.243,11.835-14.745,16.945l-0.003,0.002
						c-0.301,0.281-0.608,0.56-0.91,0.835c-13.13,11.977-28.748,20.227-45.56,24.363c-9.126,2.244-18.61,3.271-28.246,3.008
						c-0.078-0.002-0.156-0.004-0.235-0.006c-0.242-0.01-0.479-0.014-0.718-0.025c-28.16-1.025-54.238-12.951-73.427-33.588
						c-2.486-2.669-4.813-5.443-6.985-8.311c-14.61-19.299-22.076-42.841-21.188-67.36c1.025-28.161,12.955-54.234,33.589-73.421
						c20.629-19.168,47.51-29.193,75.669-28.175c28.16,1.025,54.238,12.951,73.427,33.588c2.443,2.624,4.742,5.366,6.892,8.204
						c9.321,12.314,15.842,26.525,19.048,41.642c0.199,0.932,0.591,1.77,1.133,2.48c1.418,1.873,3.842,2.87,6.295,2.348
						c3.383-0.727,5.548-4.041,4.829-7.433c-3.588-16.915-10.884-32.819-21.307-46.593c-2.408-3.18-4.979-6.246-7.71-9.182
						c-21.472-23.09-50.646-36.433-82.155-37.578c-31.503-1.142-61.57,10.022-84.654,31.517
						c-23.089,21.468-36.434,50.639-37.575,82.148c-1,27.428,7.356,53.766,23.702,75.357c2.427,3.205,5.033,6.312,7.809,9.298
						C1379.094,961.687,1447.494,966.855,1495.145,930.771z"/>
				</g>
			</g>
		</g>
		<g>
			<g>
				
					<linearGradient id="SVGID_00000132089593591054525970000003409101894001737864_" gradientUnits="userSpaceOnUse" x1="2040.6094" y1="2443.0132" x2="1772.7085" y2="3583.3079">
					<stop  offset="0" style="stop-color:#09005D"/>
					<stop  offset="1" style="stop-color:#1A0F91"/>
				</linearGradient>
				<polygon style="fill:url(#SVGID_00000132089593591054525970000003409101894001737864_);" points="1630.491,2595.803 
					1569.259,3018.363 2279.659,3018.363 2187.128,2595.803 				"/>
				
					<linearGradient id="SVGID_00000022562344608311627670000011939511139418899079_" gradientUnits="userSpaceOnUse" x1="1907.6538" y1="560.4655" x2="1818.3549" y2="2689.9192">
					<stop  offset="0" style="stop-color:#09005D"/>
					<stop  offset="1" style="stop-color:#1A0F91"/>
				</linearGradient>
				<path style="fill:url(#SVGID_00000022562344608311627670000011939511139418899079_);" d="M437.146,1242.798v1257.713
					c0,103.463,82.448,188.072,185.877,190.739c459.378,11.845,2066.06,40.569,2503.357,34.122
					c75.16-1.108,136.046-61.254,138.215-136.391c8.433-292.183,22.127-994.787-28.553-1320.979
					c-10.673-68.692-68.656-120.059-138.136-122.281c-384.901-12.313-2088.089-51.411-2525.182-41.595
					C497.339,1105.818,437.146,1167.396,437.146,1242.798z"/>
				<path style="fill:#91B3FA;" d="M516.063,1236.676v1194.913c0,60.408,48.491,109.629,108.892,110.533l2438.512,30.127
					c59.883,0.896,108.969-47.283,109.192-107.172l4.08-1184.237c0.16-42.822-33.957-77.91-76.766-78.951L603.388,1151.45
					C555.507,1150.285,516.063,1188.782,516.063,1236.676z"/>
				<path style="fill:#91B3FA;" d="M3191.019,2621.221c-0.02,0-0.04,0-0.06,0l-2674.954-45.578
					c-1.867-0.033-3.355-1.572-3.323-3.438c0.031-1.872,1.592-3.295,3.439-3.325l2674.954,45.578
					c1.867,0.033,3.355,1.572,3.323,3.437C3194.367,2619.745,3192.858,2621.221,3191.019,2621.221z"/>
				<path style="fill:#91B3FA;" d="M1879.928,2676.886c-17.21,0-31.212-14.004-31.212-31.214c0-17.21,14.002-31.214,31.212-31.214
					c17.212,0,31.214,14.004,31.214,31.214C1911.141,2662.882,1897.139,2676.886,1879.928,2676.886z M1879.928,2621.221
					c-13.482,0-24.45,10.969-24.45,24.451c0,13.482,10.968,24.451,24.45,24.451s24.451-10.969,24.451-24.451
					C1904.379,2632.19,1893.41,2621.221,1879.928,2621.221z"/>
				
					<linearGradient id="SVGID_00000011029503061289802690000001329539983804581557_" gradientUnits="userSpaceOnUse" x1="1899.7992" y1="2301.5093" x2="1913.5377" y2="3139.5552">
					<stop  offset="0" style="stop-color:#09005D"/>
					<stop  offset="1" style="stop-color:#1A0F91"/>
				</linearGradient>
				<path style="fill:url(#SVGID_00000011029503061289802690000001329539983804581557_);" d="M2432.679,3130.72H1392.96
					c-28.246,0-49.458-20.108-43.996-41.707l13.341-52.763c4.012-15.867,21.469-27.517,42.203-28.164l1002.326-31.276
					c21.661-0.676,40.841,10.822,45.561,27.313l24.051,84.039C2482.694,3109.996,2461.381,3130.72,2432.679,3130.72z"/>
				<path style="fill:#91B3FA;" d="M1952.659,3022.372c-1.844,0-3.351-1.483-3.38-3.332c-0.026-1.869,1.465-3.404,3.332-3.431
					l42.951-0.627c1.795,0.01,3.403,1.466,3.431,3.332c0.026,1.869-1.464,3.404-3.332,3.431l-42.951,0.627H1952.659z"/>
				<path style="fill:#91B3FA;" d="M1387.458,3101.623c-0.178,0-0.358-0.013-0.538-0.043c-1.844-0.294-3.101-2.027-2.805-3.87
					l6.128-38.376c3.291-20.618,20.832-35.804,41.711-36.111l455.56-6.663h0.051c1.844,0,3.352,1.483,3.38,3.332
					c0.026,1.869-1.464,3.404-3.332,3.431l-455.56,6.664c-17.585,0.258-32.361,13.046-35.133,30.411l-6.129,38.376
					C1390.526,3100.438,1389.089,3101.623,1387.458,3101.623z"/>
			</g>
			<g>
				<g style="opacity:0.53;">
					<rect x="1869.839" y="1320.201" style="fill:#FFFFFF;" width="64.137" height="1131.264"/>
					<rect x="1977.006" y="1320.201" style="fill:#FFFFFF;" width="64.137" height="1131.264"/>
					<rect x="2084.174" y="1320.201" style="fill:#FFFFFF;" width="64.137" height="1131.264"/>
					<rect x="2191.341" y="1320.201" style="fill:#FFFFFF;" width="64.137" height="1131.264"/>
					<rect x="2298.508" y="1320.201" style="fill:#FFFFFF;" width="64.137" height="1131.264"/>
					<rect x="2405.675" y="1320.201" style="fill:#FFFFFF;" width="64.137" height="1131.264"/>
					<rect x="2512.842" y="1320.201" style="fill:#FFFFFF;" width="64.137" height="1131.264"/>
				</g>
				
					<linearGradient id="SVGID_00000103958275188022978610000010876050808080508812_" gradientUnits="userSpaceOnUse" x1="2010.4951" y1="1943.505" x2="2295.5676" y2="1387.0979">
					<stop  offset="0" style="stop-color:#4F52FF"/>
					<stop  offset="1" style="stop-color:#4042E2"/>
				</linearGradient>
				
					<rect x="1869.839" y="1859.43" style="fill:url(#SVGID_00000103958275188022978610000010876050808080508812_);" width="64.137" height="592.034"/>
				
					<linearGradient id="SVGID_00000071545107154797286060000000102234878127486377_" gradientUnits="userSpaceOnUse" x1="2136.6663" y1="2008.1488" x2="2421.7393" y2="1451.7407">
					<stop  offset="0" style="stop-color:#4F52FF"/>
					<stop  offset="1" style="stop-color:#4042E2"/>
				</linearGradient>
				
					<rect x="1977.006" y="2062.903" style="fill:url(#SVGID_00000071545107154797286060000000102234878127486377_);" width="64.137" height="388.561"/>
				
					<linearGradient id="SVGID_00000133529323713034790690000016426512124257307816_" gradientUnits="userSpaceOnUse" x1="2119.5151" y1="1999.361" x2="2404.5879" y2="1442.953">
					<stop  offset="0" style="stop-color:#4F52FF"/>
					<stop  offset="1" style="stop-color:#4042E2"/>
				</linearGradient>
				
					<rect x="2084.174" y="1560.034" style="fill:url(#SVGID_00000133529323713034790690000016426512124257307816_);" width="64.137" height="891.43"/>
				
					<linearGradient id="SVGID_00000005266093576685999270000002669453706211521714_" gradientUnits="userSpaceOnUse" x1="2341.8259" y1="2113.26" x2="2626.8982" y2="1556.8528">
					<stop  offset="0" style="stop-color:#4F52FF"/>
					<stop  offset="1" style="stop-color:#4042E2"/>
				</linearGradient>
				
					<rect x="2191.341" y="2237.309" style="fill:url(#SVGID_00000005266093576685999270000002669453706211521714_);" width="64.137" height="214.155"/>
				
					<linearGradient id="SVGID_00000168085558593483856590000009936723078541252527_" gradientUnits="userSpaceOnUse" x1="2313.4675" y1="2098.7314" x2="2598.54" y2="1542.3235">
					<stop  offset="0" style="stop-color:#4F52FF"/>
					<stop  offset="1" style="stop-color:#4042E2"/>
				</linearGradient>
				
					<rect x="2298.508" y="1679.212" style="fill:url(#SVGID_00000168085558593483856590000009936723078541252527_);" width="64.137" height="772.253"/>
				
					<linearGradient id="SVGID_00000005243710602902381980000011479666284668167841_" gradientUnits="userSpaceOnUse" x1="2425.4832" y1="2156.1223" x2="2710.5552" y2="1599.7159">
					<stop  offset="0" style="stop-color:#4F52FF"/>
					<stop  offset="1" style="stop-color:#4042E2"/>
				</linearGradient>
				
					<rect x="2405.675" y="1812.922" style="fill:url(#SVGID_00000005243710602902381980000011479666284668167841_);" width="64.137" height="638.542"/>
				
					<linearGradient id="SVGID_00000163752263616640949350000009695364238427936665_" gradientUnits="userSpaceOnUse" x1="2539.8589" y1="2214.7222" x2="2824.9324" y2="1658.3127">
					<stop  offset="0" style="stop-color:#4F52FF"/>
					<stop  offset="1" style="stop-color:#4042E2"/>
				</linearGradient>
				
					<rect x="2512.842" y="1958.26" style="fill:url(#SVGID_00000163752263616640949350000009695364238427936665_);" width="64.137" height="493.205"/>
			</g>
			<g>
				<g>
					<g>
						<defs>
							<path id="SVGID_00000006669771525422749820000008790633626062810260_" d="M812.035,1268.51
								c-86.053,0-155.812,69.759-155.812,155.812c0,86.053,69.759,155.812,155.812,155.812
								c86.053,0,155.812-69.759,155.812-155.812C967.847,1338.269,898.088,1268.51,812.035,1268.51z M812.035,1513.091
								c-49.026,0-88.77-39.744-88.77-88.77c0-49.026,39.744-88.77,88.77-88.77c49.025,0,88.769,39.744,88.769,88.77
								C900.804,1473.348,861.06,1513.091,812.035,1513.091z"/>
						</defs>
						
							<use xlink:href="#SVGID_00000006669771525422749820000008790633626062810260_"  style="overflow:visible;opacity:0.57;fill:#FFFFFF;"/>
						<clipPath id="SVGID_00000171701904462676889610000010371477680257994429_">
							<use xlink:href="#SVGID_00000006669771525422749820000008790633626062810260_"  style="overflow:visible;opacity:0.57;"/>
						</clipPath>
						
							<linearGradient id="SVGID_00000057140080975686905650000016165864350725450427_" gradientUnits="userSpaceOnUse" x1="1484.6754" y1="511.5859" x2="622.586" y2="1789.2627">
							<stop  offset="0" style="stop-color:#FF928E"/>
							<stop  offset="1" style="stop-color:#FE7062"/>
						</linearGradient>
						
							<rect x="594.446" y="1390.055" style="clip-path:url(#SVGID_00000171701904462676889610000010371477680257994429_);fill:url(#SVGID_00000057140080975686905650000016165864350725450427_);" width="462.837" height="195.87"/>
					</g>
				</g>
				<g>
					<g>
						<defs>
							<path id="SVGID_00000135658143343265327560000008397539853633692816_" d="M1191.859,1268.51
								c-86.053,0-155.812,69.759-155.812,155.812c0,86.053,69.759,155.812,155.812,155.812
								c86.053,0,155.813-69.759,155.813-155.812C1347.671,1338.269,1277.912,1268.51,1191.859,1268.51z M1191.859,1513.091
								c-49.026,0-88.769-39.744-88.769-88.77c0-49.026,39.744-88.77,88.769-88.77c49.026,0,88.77,39.744,88.77,88.77
								C1280.628,1473.348,1240.885,1513.091,1191.859,1513.091z"/>
						</defs>
						
							<use xlink:href="#SVGID_00000135658143343265327560000008397539853633692816_"  style="overflow:visible;opacity:0.57;fill:#FFFFFF;"/>
						<clipPath id="SVGID_00000142878726807948854740000008499900477230650274_">
							<use xlink:href="#SVGID_00000135658143343265327560000008397539853633692816_"  style="overflow:visible;opacity:0.57;"/>
						</clipPath>
						
							<linearGradient id="SVGID_00000178922747180914738720000008511479150463629988_" gradientUnits="userSpaceOnUse" x1="1728.123" y1="675.8506" x2="866.0323" y2="1953.5293">
							<stop  offset="0" style="stop-color:#FF928E"/>
							<stop  offset="1" style="stop-color:#FE7062"/>
						</linearGradient>
						
							<rect x="974.269" y="1314.346" style="clip-path:url(#SVGID_00000142878726807948854740000008499900477230650274_);fill:url(#SVGID_00000178922747180914738720000008511479150463629988_);" width="462.838" height="271.579"/>
					</g>
				</g>
				<g>
					<g>
						<defs>
							<path id="SVGID_00000002343456340403937890000008532579214295759768_" d="M1571.683,1268.51
								c-86.053,0-155.812,69.759-155.812,155.812c0,86.053,69.759,155.812,155.812,155.812
								c86.053,0,155.812-69.759,155.812-155.812C1727.495,1338.269,1657.736,1268.51,1571.683,1268.51z M1571.683,1513.091
								c-49.026,0-88.77-39.744-88.77-88.77c0-49.026,39.744-88.77,88.77-88.77c49.026,0,88.77,39.744,88.77,88.77
								C1660.453,1473.348,1620.708,1513.091,1571.683,1513.091z"/>
						</defs>
						
							<use xlink:href="#SVGID_00000002343456340403937890000008532579214295759768_"  style="overflow:visible;opacity:0.57;fill:#FFFFFF;"/>
						<clipPath id="SVGID_00000095316313530738687170000013811138993182033793_">
							<use xlink:href="#SVGID_00000002343456340403937890000008532579214295759768_"  style="overflow:visible;opacity:0.57;"/>
						</clipPath>
						
							<linearGradient id="SVGID_00000155833950419020493680000015778589098525179776_" gradientUnits="userSpaceOnUse" x1="2029.3781" y1="879.1175" x2="1167.2893" y2="2156.7932">
							<stop  offset="0" style="stop-color:#FF928E"/>
							<stop  offset="1" style="stop-color:#FE7062"/>
						</linearGradient>
						
							<rect x="1354.094" y="1487.99" style="clip-path:url(#SVGID_00000095316313530738687170000013811138993182033793_);fill:url(#SVGID_00000155833950419020493680000015778589098525179776_);" width="462.837" height="97.935"/>
					</g>
				</g>
			</g>
			<g>
				<path style="opacity:0.44;fill:#FFFFFF;" d="M1691.332,2457.723l-999.485-7.508c-19.718-0.148-35.624-16.174-35.624-35.892
					v-513.517c0-19.824,16.07-35.894,35.893-35.894h999.485c19.823,0,35.893,16.07,35.893,35.894v521.025
					C1727.495,2441.76,1711.26,2457.873,1691.332,2457.723z"/>
				<path style="opacity:0.44;fill:#FFFFFF;" d="M1536.302,2096.764l-128.524-135.883l-184.284,200.438l-130.034-140.307
					l-121.954,137.861l-93.52-113.618L693.681,2237.14v138.761c0,18.34,14.794,33.245,33.132,33.383l929.589,6.983
					c18.535,0.14,33.634-14.847,33.634-33.382v-377.491L1536.302,2096.764z"/>
				<rect x="1537.088" y="2092.986" style="fill:#FFFFFF;" width="3.381" height="323.283"/>
				<rect x="1406.088" y="1960.882" style="fill:#FFFFFF;" width="3.381" height="453.517"/>
				<rect x="1221.804" y="2158.874" style="fill:#FFFFFF;" width="3.381" height="254.142"/>
				<rect x="1095.225" y="2025.981" style="fill:#FFFFFF;" width="3.381" height="387.035"/>
				<rect x="969.817" y="2154.753" style="fill:#FFFFFF;" width="3.381" height="258.263"/>
				<rect x="878.279" y="2035.62" style="fill:#FFFFFF;" width="3.381" height="374.92"/>
				
					<linearGradient id="SVGID_00000040559501099131588070000010434247849715698360_" gradientUnits="userSpaceOnUse" x1="903.5886" y1="1964.2114" x2="785.0911" y2="2322.4602">
					<stop  offset="0" style="stop-color:#FEBBBA"/>
					<stop  offset="1" style="stop-color:#FF928E"/>
				</linearGradient>
				<circle style="fill:url(#SVGID_00000040559501099131588070000010434247849715698360_);" cx="879.969" cy="2035.62" r="28.241"/>
				
					<linearGradient id="SVGID_00000007422107875393122780000010037184310576668348_" gradientUnits="userSpaceOnUse" x1="987.067" y1="2107.7136" x2="909.0052" y2="2343.7148">
					<stop  offset="0" style="stop-color:#FEBBBA"/>
					<stop  offset="1" style="stop-color:#FF928E"/>
				</linearGradient>
				<path style="fill:url(#SVGID_00000007422107875393122780000010037184310576668348_);" d="M990.112,2154.754
					c0,10.275-8.33,18.604-18.604,18.604c-10.275,0-18.604-8.33-18.604-18.604s8.329-18.604,18.604-18.604
					C981.782,2136.15,990.112,2144.479,990.112,2154.754z"/>
				
					<linearGradient id="SVGID_00000168823354837601358630000012707206840014619032_" gradientUnits="userSpaceOnUse" x1="1112.475" y1="1978.9415" x2="1034.4132" y2="2214.9424">
					<stop  offset="0" style="stop-color:#FEBBBA"/>
					<stop  offset="1" style="stop-color:#FF928E"/>
				</linearGradient>
				<path style="fill:url(#SVGID_00000168823354837601358630000012707206840014619032_);" d="M1115.52,2025.983
					c0,10.275-8.329,18.604-18.604,18.604c-10.275,0-18.605-8.329-18.605-18.604c0-10.275,8.33-18.604,18.605-18.604
					C1107.19,2007.379,1115.52,2015.708,1115.52,2025.983z"/>
				
					<linearGradient id="SVGID_00000165231754319677356550000012554976328830923904_" gradientUnits="userSpaceOnUse" x1="1239.0543" y1="2111.8318" x2="1160.9927" y2="2347.8325">
					<stop  offset="0" style="stop-color:#FEBBBA"/>
					<stop  offset="1" style="stop-color:#FF928E"/>
				</linearGradient>
				<path style="fill:url(#SVGID_00000165231754319677356550000012554976328830923904_);" d="M1242.099,2158.873
					c0,10.275-8.33,18.604-18.604,18.604c-10.275,0-18.604-8.33-18.604-18.604s8.329-18.604,18.604-18.604
					C1233.769,2140.269,1242.099,2148.598,1242.099,2158.873z"/>
				
					<linearGradient id="SVGID_00000047052889517949347420000012401306719523771056_" gradientUnits="userSpaceOnUse" x1="1423.3385" y1="1913.8403" x2="1345.2772" y2="2149.8398">
					<stop  offset="0" style="stop-color:#FEBBBA"/>
					<stop  offset="1" style="stop-color:#FF928E"/>
				</linearGradient>
				<path style="fill:url(#SVGID_00000047052889517949347420000012401306719523771056_);" d="M1426.383,1960.881
					c0,10.275-8.329,18.604-18.604,18.604c-10.275,0-18.604-8.329-18.604-18.604c0-10.275,8.329-18.604,18.604-18.604
					C1418.054,1942.277,1426.383,1950.606,1426.383,1960.881z"/>
				
					<linearGradient id="SVGID_00000152255938868903445360000001328502959556847006_" gradientUnits="userSpaceOnUse" x1="1554.3381" y1="2045.9456" x2="1476.2769" y2="2281.9451">
					<stop  offset="0" style="stop-color:#4F52FF"/>
					<stop  offset="1" style="stop-color:#4042E2"/>
				</linearGradient>
				<path style="fill:url(#SVGID_00000152255938868903445360000001328502959556847006_);" d="M1557.383,2092.986
					c0,10.275-8.329,18.604-18.604,18.604c-10.275,0-18.604-8.329-18.604-18.604c0-10.275,8.329-18.604,18.604-18.604
					C1549.054,2074.382,1557.383,2082.711,1557.383,2092.986z"/>
			</g>
			<g style="opacity:0.48;">
				<path style="fill:#FFFFFF;" d="M945.024,1779.418H671.038c-11.461,0-20.753,6.47-20.753,14.452
					c0,7.982,9.291,14.453,20.753,14.453h273.986c11.462,0,20.753-6.47,20.753-14.453
					C965.777,1785.888,956.486,1779.418,945.024,1779.418z"/>
				<path style="fill:#FFFFFF;" d="M945.024,1715.424H671.038c-11.461,0-20.753,6.471-20.753,14.453s9.291,14.453,20.753,14.453
					h273.986c11.462,0,20.753-6.471,20.753-14.453S956.486,1715.424,945.024,1715.424z"/>
				<path style="fill:#FFFFFF;" d="M945.024,1651.431H671.038c-11.461,0-20.753,6.47-20.753,14.452
					c0,7.982,9.291,14.453,20.753,14.453h273.986c11.462,0,20.753-6.47,20.753-14.453
					C965.777,1657.902,956.486,1651.431,945.024,1651.431z"/>
			</g>
			<g style="opacity:0.48;">
				<path style="fill:#FFFFFF;" d="M1325.883,1779.418h-273.986c-11.461,0-20.753,6.47-20.753,14.452
					c0,7.982,9.291,14.453,20.753,14.453h273.986c11.461,0,20.753-6.47,20.753-14.453
					C1346.636,1785.888,1337.344,1779.418,1325.883,1779.418z"/>
				<path style="fill:#FFFFFF;" d="M1325.883,1715.424h-273.986c-11.461,0-20.753,6.471-20.753,14.453s9.291,14.453,20.753,14.453
					h273.986c11.461,0,20.753-6.471,20.753-14.453S1337.344,1715.424,1325.883,1715.424z"/>
				<path style="fill:#FFFFFF;" d="M1325.883,1651.431h-273.986c-11.461,0-20.753,6.47-20.753,14.452
					c0,7.982,9.291,14.453,20.753,14.453h273.986c11.461,0,20.753-6.47,20.753-14.453
					C1346.636,1657.902,1337.344,1651.431,1325.883,1651.431z"/>
			</g>
			<g style="opacity:0.48;">
				<path style="fill:#FFFFFF;" d="M1706.742,1779.418h-273.986c-11.462,0-20.753,6.47-20.753,14.452
					c0,7.982,9.291,14.453,20.753,14.453h273.986c11.461,0,20.753-6.47,20.753-14.453
					C1727.495,1785.888,1718.203,1779.418,1706.742,1779.418z"/>
				<path style="fill:#FFFFFF;" d="M1706.742,1715.424h-273.986c-11.462,0-20.753,6.471-20.753,14.453s9.291,14.453,20.753,14.453
					h273.986c11.461,0,20.753-6.471,20.753-14.453S1718.203,1715.424,1706.742,1715.424z"/>
				<path style="fill:#FFFFFF;" d="M1706.742,1651.431h-273.986c-11.462,0-20.753,6.47-20.753,14.452
					c0,7.982,9.291,14.453,20.753,14.453h273.986c11.461,0,20.753-6.47,20.753-14.453
					C1727.495,1657.902,1718.203,1651.431,1706.742,1651.431z"/>
			</g>
			<g>
				<g>
					
						<linearGradient id="SVGID_00000028286588751274267820000005598976010938164637_" gradientUnits="userSpaceOnUse" x1="2739.1824" y1="1839.5563" x2="2992.7354" y2="1839.5563">
						<stop  offset="0" style="stop-color:#DAE3FE"/>
						<stop  offset="1" style="stop-color:#E9EFFD"/>
					</linearGradient>
					
						<circle style="fill:url(#SVGID_00000028286588751274267820000005598976010938164637_);" cx="2865.959" cy="1839.556" r="126.777"/>
					<path style="fill:#91B3FA;" d="M2941.289,1812.762c3.924,9.542,6.102,19.986,6.102,30.943
						c0,44.974-36.459,81.432-81.432,81.432c-44.974,0-81.432-36.458-81.432-81.432c0-44.973,36.458-81.432,81.432-81.432
						c1.377,0,2.747,0.037,4.107,0.104v-20.642c-1.363-0.054-2.731-0.089-4.107-0.089c-56.366,0-102.06,45.694-102.06,102.06
						c0,56.366,45.693,102.06,102.06,102.06c56.366,0,102.06-45.694,102.06-102.06c0-13.879-2.775-27.108-7.793-39.171
						L2941.289,1812.762z"/>
					<path style="opacity:0.5;fill:#FFFFFF;" d="M2970.161,2020.035h-206.594c-12.968,0-23.48,10.512-23.48,23.48
						c0,12.967,10.512,23.479,23.48,23.479h206.594c12.967,0,23.48-10.511,23.48-23.479
						C2993.641,2030.547,2983.128,2020.035,2970.161,2020.035z"/>
				</g>
				<g>
					
						<linearGradient id="SVGID_00000047752472826409287260000001118800791093438348_" gradientUnits="userSpaceOnUse" x1="2738.6387" y1="1432.0859" x2="2992.1917" y2="1432.0859">
						<stop  offset="0" style="stop-color:#DAE3FE"/>
						<stop  offset="1" style="stop-color:#E9EFFD"/>
					</linearGradient>
					
						<circle style="fill:url(#SVGID_00000047752472826409287260000001118800791093438348_);" cx="2865.415" cy="1432.086" r="126.776"/>
					<path style="fill:#91B3FA;" d="M2908.51,1505.132c-12.563,7.929-27.435,12.536-43.389,12.536
						c-44.974,0-81.432-36.458-81.432-81.432c0-44.973,36.458-81.432,81.432-81.432c1.378,0,2.747,0.036,4.108,0.104v-20.642
						c-1.363-0.054-2.731-0.089-4.108-0.089c-56.366,0-102.059,45.694-102.059,102.059c0,56.366,45.693,102.06,102.059,102.06
						c19.672,0,38.04-5.571,53.623-15.213L2908.51,1505.132z"/>
					<path style="opacity:0.5;fill:#FFFFFF;" d="M2970.705,1612.564h-206.594c-12.967,0-23.479,10.512-23.479,23.48
						c0,12.967,10.512,23.479,23.479,23.479h206.594c12.968,0,23.48-10.512,23.48-23.479
						C2994.185,1623.077,2983.673,1612.564,2970.705,1612.564z"/>
				</g>
				<g>
					
						<ellipse transform="matrix(0.7071 -0.7071 0.7071 0.7071 -750.8022 2685.6057)" style="opacity:0.91;fill:#FFFFFF;" cx="2866.412" cy="2249.101" rx="126.777" ry="126.777"/>
					
						<linearGradient id="SVGID_00000153689077906748479050000010987687242824135307_" gradientUnits="userSpaceOnUse" x1="3013.0579" y1="2111.5383" x2="2620.6875" y2="2483.9084">
						<stop  offset="0" style="stop-color:#FDF53F"/>
						<stop  offset="1" style="stop-color:#D93C65"/>
					</linearGradient>
					<path style="fill:url(#SVGID_00000153689077906748479050000010987687242824135307_);" d="M2935.455,2294.885
						c-14.656,21.516-39.347,35.648-67.344,35.648c-44.974,0-81.432-36.458-81.432-81.432c0-44.973,36.458-81.432,81.432-81.432
						c1.378,0,2.747,0.037,4.108,0.104v-20.642c-1.363-0.054-2.731-0.089-4.108-0.089c-56.366,0-102.06,45.694-102.06,102.06
						c0,56.366,45.694,102.06,102.06,102.06c34.87,0,65.649-17.491,84.059-44.174L2935.455,2294.885z"/>
					<path style="opacity:0.5;fill:#FFFFFF;" d="M2763.115,2472.389h206.594c12.967,0,23.479-10.512,23.479-23.479
						c0-12.967-10.512-23.48-23.479-23.48h-206.594c-12.968,0-23.48,10.513-23.48,23.48
						C2739.635,2461.877,2750.147,2472.389,2763.115,2472.389z"/>
				</g>
			</g>
		</g>
		<g>
			
				<linearGradient id="SVGID_00000183962546881914238990000014825218971758412699_" gradientUnits="userSpaceOnUse" x1="394.4223" y1="3120.4875" x2="-133.8929" y2="3695.1467" gradientTransform="matrix(-1 0 0 1 3137.5664 0)">
				<stop  offset="0" style="stop-color:#09005D"/>
				<stop  offset="1" style="stop-color:#1A0F91"/>
			</linearGradient>
			<path style="fill:url(#SVGID_00000183962546881914238990000014825218971758412699_);" d="M2910.145,3163.296
				c0,0,5.471,30.974,8.154,61.635c1.048,11.984-8.19,22.388-20.208,22.889c-40.832,1.701-128.172,5.008-159.513,3.609
				c-4.711-0.21-7.792-5.033-6.048-9.416c1.461-3.672,4.28-6.64,7.87-8.291l144.271-66.307L2910.145,3163.296z"/>
			
				<linearGradient id="SVGID_00000115477634056187030970000009789850210813003703_" gradientUnits="userSpaceOnUse" x1="222.9393" y1="3163.1687" x2="269.8668" y2="3163.1687" gradientTransform="matrix(-1 0 0 1 3137.5664 0)">
				<stop  offset="0" style="stop-color:#FEBBBA"/>
				<stop  offset="1" style="stop-color:#FF928E"/>
			</linearGradient>
			<path style="fill:url(#SVGID_00000115477634056187030970000009789850210813003703_);" d="M2914.627,3145.097l-4.396,37.05
				c0,0-25.273,11.765-42.532-1.483l10.466-41.288L2914.627,3145.097z"/>
			
				<linearGradient id="SVGID_00000127742075494636081690000004485378508665281957_" gradientUnits="userSpaceOnUse" x1="111.6632" y1="2804.3459" x2="266.8288" y2="2804.3459" gradientTransform="matrix(-1 0 0 1 3137.5664 0)">
				<stop  offset="0" style="stop-color:#4F52FF"/>
				<stop  offset="1" style="stop-color:#4042E2"/>
			</linearGradient>
			<path style="fill:url(#SVGID_00000127742075494636081690000004485378508665281957_);" d="M2911.323,2448.558
				c1.899,9.675,10.192,482.816-40.383,694.846c-0.825,3.46,0.929,7.025,4.221,8.371c7.757,3.169,22.964,7.759,41.189,8.371
				c5.644,0.189,10.704-3.479,12.297-8.896c14.457-49.194,83.731-295.672,92.768-531.125c10.098-263.095,0-8.958,0-8.958
				l-5.922-162.629L2911.323,2448.558z"/>
			
				<linearGradient id="SVGID_00000101798611690017551800000007252159155381531787_" gradientUnits="userSpaceOnUse" x1="275.9032" y1="3011.5273" x2="-252.4108" y2="3586.1853" gradientTransform="matrix(-1 0 0 1 3137.5664 0)">
				<stop  offset="0" style="stop-color:#09005D"/>
				<stop  offset="1" style="stop-color:#1A0F91"/>
			</linearGradient>
			<path style="fill:url(#SVGID_00000101798611690017551800000007252159155381531787_);" d="M3076.104,3179.455
				c0,0,8.709,15.637,17.141,57.188c1.523,7.504-3.72,14.686-11.341,15.435c-13.482,1.326-34.238,3.03-50.865,2.916
				c-7.665-0.052-13.646-6.726-12.722-14.335c1.841-15.167,7.579-40.05,25.303-59.444L3076.104,3179.455z"/>
			
				<linearGradient id="SVGID_00000094583344223242506850000002072017410142818999_" gradientUnits="userSpaceOnUse" x1="53.8134" y1="3160.762" x2="94.3309" y2="3160.762" gradientTransform="matrix(-1 0 0 1 3137.5664 0)">
				<stop  offset="0" style="stop-color:#FEBBBA"/>
				<stop  offset="1" style="stop-color:#FF928E"/>
			</linearGradient>
			<path style="fill:url(#SVGID_00000094583344223242506850000002072017410142818999_);" d="M3083.753,3131.802l-10.271,56.028
				c0,0-10.156,7.554-30.246,2.078l4.903-60.283L3083.753,3131.802z"/>
			
				<linearGradient id="SVGID_00000034780816217364328480000015495961631346264455_" gradientUnits="userSpaceOnUse" x1="10.1416" y1="2799.2688" x2="230.4267" y2="2799.2688" gradientTransform="matrix(-1 0 0 1 3137.5664 0)">
				<stop  offset="0" style="stop-color:#4F52FF"/>
				<stop  offset="1" style="stop-color:#4042E2"/>
			</linearGradient>
			<path style="fill:url(#SVGID_00000034780816217364328480000015495961631346264455_);" d="M3111.502,2463.077
				c41.363,249.633-8.973,616.989-25.949,688.889c-1.04,4.402-4.592,7.774-9.053,8.514c-7.578,1.256-20.054,2.281-32.353-1.291
				c-4.237-1.231-7.215-5.053-7.388-9.463c-2.278-58.129,1.822-414.987-36.72-556.018c-1.954-7.147-6.318-13.38-12.357-17.673
				l-74.806-53.181l-5.735-85.963L3111.502,2463.077z"/>
			<g>
				
					<linearGradient id="SVGID_00000080885816634562429640000005536170686566966919_" gradientUnits="userSpaceOnUse" x1="25751.8105" y1="-5760.3022" x2="24652.7305" y2="-5416.8408" gradientTransform="matrix(-1 0 0 1 3137.5664 0)">
					<stop  offset="0" style="stop-color:#FF928E"/>
					<stop  offset="1" style="stop-color:#FE7062"/>
				</linearGradient>
				<path style="fill:url(#SVGID_00000080885816634562429640000005536170686566966919_);" d="M2847.931,1990.071
					c123.959-2.048,260.734,32.548,260.734,32.548c36.949,215.6,6.461,464.28,6.461,464.28
					c-95.966,25.167-204.221-15.386-204.221-15.386c-15.95-90.116-90.369-343.731-90.369-343.731
					c-60.567-7.517-110.459-24.991-151.547-48.093c31.341-36.329,46.115-82.555,52.533-109.881
					C2765.348,1983.427,2809.697,1990.703,2847.931,1990.071z"/>
				
					<linearGradient id="SVGID_00000052097342103404240320000009345217663237959077_" gradientUnits="userSpaceOnUse" x1="416.0455" y1="1938.8892" x2="655.7896" y2="1938.8892" gradientTransform="matrix(-1 0 0 1 3137.5664 0)">
					<stop  offset="0" style="stop-color:#FEBBBA"/>
					<stop  offset="1" style="stop-color:#FF928E"/>
				</linearGradient>
				<path style="fill:url(#SVGID_00000052097342103404240320000009345217663237959077_);" d="M2481.777,1807.485
					c12.177-14.708,27.589-7.75,27.589-7.75c18.242,77.055,113.89,139.532,212.156,170.071
					c-6.418,27.326-21.192,73.552-52.533,109.881C2505.908,1987.994,2481.777,1807.485,2481.777,1807.485z"/>
			</g>
			<g>
				
					<linearGradient id="SVGID_00000163764547542423059870000016272894461328724126_" gradientUnits="userSpaceOnUse" x1="9845.3955" y1="1898.7026" x2="10006.2705" y2="2264.728" gradientTransform="matrix(1 0 0 1 -7310.2119 0)">
					<stop  offset="0" style="stop-color:#FEBBBA"/>
					<stop  offset="1" style="stop-color:#FF928E"/>
				</linearGradient>
				<path style="fill:url(#SVGID_00000163764547542423059870000016272894461328724126_);" d="M2484.732,1811.226
					c-1.274,4.05,13.481,10.219,22.168-6.348c0.304-7.94,5.132-41.955,0.388-48.423c-25.269-34.449-74.259-77.634-74.259-77.634
					c-8.279,8.17-1.458,16.196-1.458,16.196l23.765,24.757c-4.971,8.983-11.034,16.565-13.875,27.431
					c-2.153,8.228-0.836,17.022,3.32,24.51c4.172,7.516,9.863,17.285,15.243,24.931
					C2470.21,1811.117,2484.732,1811.226,2484.732,1811.226z"/>
				
					<linearGradient id="SVGID_00000173143334066739169810000007552245741384498358_" gradientUnits="userSpaceOnUse" x1="654.6387" y1="1776.803" x2="721.7646" y2="1673.5968" gradientTransform="matrix(-1 0 0 1 3137.5664 0)">
					<stop  offset="0" style="stop-color:#FEBBBA"/>
					<stop  offset="1" style="stop-color:#FF928E"/>
				</linearGradient>
				<path style="fill:url(#SVGID_00000173143334066739169810000007552245741384498358_);" d="M2465.733,1735.837l21.657,18.359
					l6.8,18.279l-19.309,21.421c0,0-6.492-36.268-11.318-44.119C2458.737,1741.928,2461.239,1738.133,2465.733,1735.837z"/>
			</g>
			
				<linearGradient id="SVGID_00000161627471666897192010000001611936183868038798_" gradientUnits="userSpaceOnUse" x1="25706.8008" y1="-5904.355" x2="24607.7246" y2="-5560.894" gradientTransform="matrix(-1 0 0 1 3137.5664 0)">
				<stop  offset="0" style="stop-color:#FF928E"/>
				<stop  offset="1" style="stop-color:#FE7062"/>
			</linearGradient>
			<path style="fill:url(#SVGID_00000161627471666897192010000001611936183868038798_);" d="M3061.119,2142.648l47.546-120.029
				c0,0,115.784,78.671,134.826,178.417c-21.877,1.611-61.687,7.301-100.654,26.977
				C3134.275,2180.914,3061.119,2142.648,3061.119,2142.648z"/>
			
				<linearGradient id="SVGID_00000183242589673908341210000008109496419123082421_" gradientUnits="userSpaceOnUse" x1="-108.564" y1="2278.4802" x2="194.8342" y2="2278.4802" gradientTransform="matrix(-1 0 0 1 3137.5664 0)">
				<stop  offset="0" style="stop-color:#FEBBBA"/>
				<stop  offset="1" style="stop-color:#FF928E"/>
			</linearGradient>
			<path style="fill:url(#SVGID_00000183242589673908341210000008109496419123082421_);" d="M2959.936,2255.591
				c0,0,129.997,73.468,173.86,10.735c9.107-13.026,11.284-25.972,9.041-38.313c38.966-19.676,78.776-25.366,100.654-26.977
				c5.741,30.069,2.706,62.051-14.963,94.375c-76.833,140.549-285.795-7.768-285.795-7.768L2959.936,2255.591z"/>
			<g>
				
					<linearGradient id="SVGID_00000156573785320264193910000017605657034054540429_" gradientUnits="userSpaceOnUse" x1="286.6229" y1="2062.7739" x2="453.4504" y2="2757.8904" gradientTransform="matrix(-1 0 0 1 3137.5664 0)">
					<stop  offset="0" style="stop-color:#09005D"/>
					<stop  offset="1" style="stop-color:#1A0F91"/>
				</linearGradient>
				<path style="fill:url(#SVGID_00000156573785320264193910000017605657034054540429_);" d="M2975.556,2348.536l-70.948-247.765
					c-0.805-2.813-3.205-4.864-6.111-5.203c-12.854-1.5-50.102-5.711-93.108-9.348c-51.802-4.382-111.959-7.932-147.907-4.912
					c-5.11,0.429-8.199,5.835-5.926,10.432c20.442,41.357,104.529,209.589,146.636,264.699c1.395,1.826,3.553,2.894,5.85,2.872
					l164.61-1.532C2973.444,2357.736,2976.874,2353.141,2975.556,2348.536z"/>
				
					<linearGradient id="SVGID_00000015339093578827786350000006851935729220277915_" gradientUnits="userSpaceOnUse" x1="391.0728" y1="1953.2042" x2="355.5429" y2="2109.2266" gradientTransform="matrix(-1 0 0 1 3137.5664 0)">
					<stop  offset="0" style="stop-color:#4F52FF"/>
					<stop  offset="1" style="stop-color:#4042E2"/>
				</linearGradient>
				<path style="fill:url(#SVGID_00000015339093578827786350000006851935729220277915_);" d="M2798.031,2064.74l-51.438-8.571
					c-2.74-0.457-4.983,2.161-4.113,4.798l5.092,15.43c0.444,1.344,1.615,2.315,3.017,2.503l49.499,6.612
					c2.561,0.342,4.672-1.985,4.083-4.5l-3.152-13.471C2800.679,2066.09,2799.5,2064.985,2798.031,2064.74z"/>
				
					<linearGradient id="SVGID_00000145038007659941277490000010547188500124792217_" gradientUnits="userSpaceOnUse" x1="372.478" y1="2018.6508" x2="355.4855" y2="2120.6062" gradientTransform="matrix(-1 0 0 1 3137.5664 0)">
					<stop  offset="0" style="stop-color:#4F52FF"/>
					<stop  offset="1" style="stop-color:#4042E2"/>
				</linearGradient>
				<path style="fill:url(#SVGID_00000145038007659941277490000010547188500124792217_);" d="M2836.546,2108.287l-4.237-22.073
					c-0.425-2.214-2.253-3.887-4.496-4.114l-103.894-10.542c-3.497-0.355-6.297,2.85-5.476,6.267l6.605,27.504
					c0.529,2.201,2.444,3.79,4.705,3.904l101.525,5.111C2834.583,2114.51,2837.17,2111.537,2836.546,2108.287z"/>
				
					<linearGradient id="SVGID_00000091717802906939526240000007031799683998629789_" gradientUnits="userSpaceOnUse" x1="172.3081" y1="2246.6689" x2="266.8289" y2="2246.6689" gradientTransform="matrix(-1 0 0 1 3137.5664 0)">
					<stop  offset="0" style="stop-color:#FEBBBA"/>
					<stop  offset="1" style="stop-color:#FF928E"/>
				</linearGradient>
				<path style="fill:url(#SVGID_00000091717802906939526240000007031799683998629789_);" d="M2958.414,2288.676
					c0,0,9.883-40.638,5.896-55.056c-3.986-14.418-11.711-32.956-37.457-28.836c-25.747,4.119-56.117,14.965-56.117,14.965
					s1.534,18.78,21.102,12.721l-12.134,9.389c0,0,1.734,15.037,18.263,7.003l-11.286,12.452c0,0,7.098,12.35,19.258,4.429
					C2918.1,2257.821,2923.929,2293.57,2958.414,2288.676z"/>
			</g>
			
				<linearGradient id="SVGID_00000083809224343057360780000004925495564875295400_" gradientUnits="userSpaceOnUse" x1="124.4033" y1="1954.129" x2="244.3572" y2="1954.129" gradientTransform="matrix(-1 0 0 1 3137.5664 0)">
				<stop  offset="0" style="stop-color:#FEBBBA"/>
				<stop  offset="1" style="stop-color:#FF928E"/>
			</linearGradient>
			<path style="fill:url(#SVGID_00000083809224343057360780000004925495564875295400_);" d="M2973.491,1889.436l39.442,114.063
				c0.653,1.889-0.124,3.982-1.874,4.949c-10.752,5.944-49.487,23.127-96.166-6.469c-4.863-3.083-8.173-8.111-8.912-13.822
				l-12.772-98.722H2973.491z"/>
			<g>
				
					<linearGradient id="SVGID_00000067950664342372432220000008678258498287502498_" gradientUnits="userSpaceOnUse" x1="-455.9565" y1="-679.1982" x2="-610.1397" y2="-475.2263" gradientTransform="matrix(-0.8116 -0.5843 -0.5843 0.8116 2142.3152 2074.8411)">
					<stop  offset="0" style="stop-color:#FEBBBA"/>
					<stop  offset="1" style="stop-color:#FF928E"/>
				</linearGradient>
				<path style="fill:url(#SVGID_00000067950664342372432220000008678258498287502498_);" d="M2885.191,1771.616
					c-1.188,1.65-38.254,130.843-38.254,130.843l74.217,19.596l53.323-117.228
					C2974.477,1804.826,2905.075,1743.997,2885.191,1771.616z"/>
				
					<linearGradient id="SVGID_00000137131406115533655310000018296059383327391363_" gradientUnits="userSpaceOnUse" x1="-573.71" y1="-630.2141" x2="-389.5354" y2="-630.2141" gradientTransform="matrix(-0.8116 -0.5843 -0.5843 0.8116 2142.3152 2074.8411)">
					<stop  offset="0" style="stop-color:#09005D"/>
					<stop  offset="1" style="stop-color:#1A0F91"/>
				</linearGradient>
				<path style="fill:url(#SVGID_00000137131406115533655310000018296059383327391363_);" d="M2945.004,1813.502
					c1.819,2.897,2.199,6.45,1.03,9.666l-22.902,62.985c-0.348,0.956-0.809,1.849-1.408,2.67c-3.301,4.532-14.97,18.114-28.509,5.33
					c-11.539-10.895-22.294-20.749-32.346-23.724c-5.87-1.737-12.003,1.75-13.67,7.64c-3.433,12.134-9.864,36.759-12.505,59.439
					c-0.662,5.685,3.218,10.898,8.834,11.997c14.821,2.902,43.932,7.702,68.677,6.353c4.065-0.221,7.66-2.652,9.39-6.337
					c7.613-16.216,29.136-61.579,37.183-73.45c7.476-11.029,25.253-10.866,33.388-10.146c3.088,0.273,6.125-0.737,8.427-2.812
					c6.905-6.226,18.274-20.6,1.941-38.034c-4.061-4.334-3.754-11.217,0.495-15.367c7.615-7.435,14.997-20.051,2.587-35.755
					c-12.564-15.897-29.186-14.32-40.033-10.806c-4.8,1.555-10.291-0.055-13.066-4.269c-1.234-1.875-3.229-3.289-6.438-3.316
					c-6.053-0.052-10.909-4.636-10.897-10.689c0.02-10.379-3.975-23.082-21.643-28.763c-32.404-10.419-52.963,20.788-55.19,44.196
					c-2.226,23.409,33.548,32.708,54.647,31.324C2928.497,1790.62,2939.993,1805.52,2945.004,1813.502z"/>
				
					<linearGradient id="SVGID_00000180362020209350796350000016173071470081910666_" gradientUnits="userSpaceOnUse" x1="-681.7756" y1="-517.6664" x2="-558.1073" y2="-644.5468" gradientTransform="matrix(-0.8116 -0.5843 -0.5843 0.8116 2142.3152 2074.8411)">
					<stop  offset="0" style="stop-color:#FEBBBA"/>
					<stop  offset="1" style="stop-color:#FF928E"/>
				</linearGradient>
				<path style="fill:url(#SVGID_00000180362020209350796350000016173071470081910666_);" d="M2950.086,1899.258
					c0,0,5.63-40.622,22.567-42.457c16.938-1.835,33.276,12.224,16.241,34.896
					C2967.706,1919.896,2950.086,1899.258,2950.086,1899.258z"/>
			</g>
		</g>
	</g>
</g>
</svg>
