<?xml version="1.0" encoding="utf-8"?>
<!-- Generator: Adobe Illustrator 27.5.0, SVG Export Plug-In . SVG Version: 6.00 Build 0)  -->
<svg version="1.1" xmlns="http://www.w3.org/2000/svg" xmlns:xlink="http://www.w3.org/1999/xlink" x="0px" y="0px"
	 viewBox="0 0 3710 3710" style="enable-background:new 0 0 3710 3710;" xml:space="preserve">
<g id="Background">
	<g>
		<g>
			<rect style="fill:#FFFFFF;" width="3710" height="3710"/>
		</g>
	</g>
</g>
<g id="Illustration">
	<g>
		<linearGradient id="SVGID_1_" gradientUnits="userSpaceOnUse" x1="3514.7334" y1="3703.3989" x2="1542.5741" y2="1604.004">
			<stop  offset="0" style="stop-color:#DAE3FE"/>
			<stop  offset="1" style="stop-color:#E9EFFD"/>
		</linearGradient>
		<path style="fill:url(#SVGID_1_);" d="M2922.594,2861.13c-72.804,75.044-137.947,119.157-187.822,152.46
			c-486.425,324.791-1042.461,231.178-1214.374,199.181c-277.36-51.623-511.49-88.04-712.65-269.78
			c-457.096-412.968-434.863-1274.45-85.586-1808.1c41.414-63.276,390.162-580.228,947.402-653.071
			c13.629-1.782,23.799-2.796,32.705-3.739c86.204-9.127,620.392-57.298,1055.969,307.629
			c62.351,52.237,162.691,146.46,255.739,290.165C3354.202,1601.327,3355.28,2415.135,2922.594,2861.13z"/>
		<g>
			
				<linearGradient id="SVGID_00000068659638367708897830000009589073417585109426_" gradientUnits="userSpaceOnUse" x1="3149.6145" y1="70.1027" x2="3021.5098" y2="272.3736">
				<stop  offset="0" style="stop-color:#09005D"/>
				<stop  offset="1" style="stop-color:#1A0F91"/>
			</linearGradient>
			<path style="fill:url(#SVGID_00000068659638367708897830000009589073417585109426_);" d="M3124.752,1012.236l-1804.127-87.514
				c-92.279-4.475-165.532,68.085-162.785,161.894l29.786,1014.591c2.663,90.93,78.878,161.565,169.215,158.019l1769.993-69.524
				c69.718-2.738,125.143-68.669,125.143-147.448v-877.147C3251.978,1084.176,3195.64,1015.674,3124.752,1012.236z"/>
			<g>
				<path style="fill:#7D97F4;" d="M3048.633,1072.772l-1646.955-77.749c-84.251-3.976-151.017,60.487-148.508,143.828
					l27.253,901.373c2.431,80.783,72.046,143.537,154.525,140.386l1615.573-61.765c63.653-2.432,113.806-61.007,113.806-130.995
					v-779.267C3164.327,1136.685,3113.355,1075.827,3048.633,1072.772z"/>
				<g style="opacity:0.6;">
					<path style="fill:#FFFFFF;" d="M1421.207,1788.46c0,13.83-11.211,25.042-25.042,25.042s-25.042-11.211-25.042-25.042
						c0-13.831,11.212-25.042,25.042-25.042S1421.207,1774.629,1421.207,1788.46z"/>
					<path style="fill:#FFFFFF;" d="M2551.412,1863.955c0,13.83-11.212,25.042-25.042,25.042c-13.83,0-25.041-11.212-25.041-25.042
						c0-13.83,11.211-25.041,25.041-25.041C2540.201,1838.914,2551.412,1850.125,2551.412,1863.955z"/>
					<path style="fill:#FFFFFF;" d="M1685.955,1563.987c0,12.025-9.748,21.773-21.772,21.773c-12.025,0-21.773-9.748-21.773-21.773
						c0-12.024,9.748-21.772,21.773-21.772C1676.207,1542.215,1685.955,1551.963,1685.955,1563.987z"/>
					<path style="fill:#FFFFFF;" d="M2028.831,1402.566c0,8.743-7.088,15.831-15.831,15.831s-15.831-7.088-15.831-15.831
						c0-8.743,7.087-15.831,15.831-15.831S2028.831,1393.823,2028.831,1402.566z"/>
					<path style="fill:#FFFFFF;" d="M2716.003,1419.261c0,8.743-7.088,15.831-15.831,15.831c-8.743,0-15.831-7.088-15.831-15.831
						c0-8.743,7.087-15.831,15.831-15.831C2708.916,1403.43,2716.003,1410.517,2716.003,1419.261z"/>
					<path style="fill:#FFFFFF;" d="M3087.719,1936.648c0,8.743-7.088,15.831-15.831,15.831c-8.743,0-15.831-7.088-15.831-15.831
						c0-8.743,7.088-15.831,15.831-15.831C3080.631,1920.817,3087.719,1927.905,3087.719,1936.648z"/>
					<path style="fill:#FFFFFF;" d="M2338.546,1156.52c0,7.026-5.696,12.722-12.722,12.722c-7.027,0-12.722-5.696-12.722-12.722
						c0-7.026,5.696-12.722,12.722-12.722C2332.851,1143.798,2338.546,1149.494,2338.546,1156.52z"/>
					<path style="fill:#FFFFFF;" d="M2009.25,1823.092c0,7.601-6.163,13.764-13.765,13.764s-13.764-6.163-13.764-13.764
						c0-7.602,6.162-13.764,13.764-13.764S2009.25,1815.49,2009.25,1823.092z"/>
					<path style="fill:#FFFFFF;" d="M1458.33,1247.131c0,7.601-6.163,13.764-13.764,13.764c-7.602,0-13.764-6.163-13.764-13.764
						c0-7.602,6.162-13.764,13.764-13.764C1452.168,1233.366,1458.33,1239.529,1458.33,1247.131z"/>
				</g>
				<g>
					<defs>
						<path id="SVGID_00000121249001163443297940000008741741689845657240_" d="M3048.633,1072.772l-1646.955-77.749
							c-84.251-3.976-151.017,60.487-148.508,143.828l27.253,901.373c2.431,80.783,72.046,143.537,154.525,140.386l1615.573-61.765
							c63.653-2.432,113.806-61.007,113.806-130.995v-779.267C3164.327,1136.685,3113.355,1075.827,3048.633,1072.772z"/>
					</defs>
					<clipPath id="SVGID_00000136400550076270223540000004012807085274940320_">
						<use xlink:href="#SVGID_00000121249001163443297940000008741741689845657240_"  style="overflow:visible;"/>
					</clipPath>
					<g style="opacity:0.5;clip-path:url(#SVGID_00000136400550076270223540000004012807085274940320_);">
						<g>
							
								<rect x="571.418" y="1529.921" transform="matrix(0.2252 -0.9743 0.9743 0.2252 -544.9904 2384.2813)" style="fill:#FFFFFF;" width="1310.275" height="9.733"/>
						</g>
						<g>
							
								<rect x="864.572" y="1529.92" transform="matrix(0.1621 -0.9868 0.9868 0.1621 -248.0602 2777.4441)" style="fill:#FFFFFF;" width="1293.702" height="9.736"/>
						</g>
						<g>
							
								<rect x="1154.979" y="1529.922" transform="matrix(0.0967 -0.9953 0.9953 0.0967 94.9436 3174.1946)" style="fill:#FFFFFF;" width="1282.62" height="9.734"/>
						</g>
						<g>
							
								<rect x="1442.567" y="1529.921" transform="matrix(0.0302 -0.9995 0.9995 0.0302 484.1127 3568.562)" style="fill:#FFFFFF;" width="1277.173" height="9.735"/>
						</g>
						<g>
							<rect x="1150.436" y="1007.684" style="fill:#FFFFFF;" width="2120.404" height="9.736"/>
						</g>
						<g>
							<rect x="1051.556" y="1355.843" style="fill:#FFFFFF;" width="2318.164" height="9.735"/>
						</g>
						<g>
							<rect x="952.678" y="1704.001" style="fill:#FFFFFF;" width="2515.92" height="9.735"/>
						</g>
						<g>
							<rect x="853.797" y="2052.159" style="fill:#FFFFFF;" width="2713.68" height="9.735"/>
						</g>
						<g>
							
								<rect x="2361.151" y="896.072" transform="matrix(0.9993 -0.0365 0.0365 0.9993 -54.429 87.3587)" style="fill:#FFFFFF;" width="9.737" height="1277.433"/>
						</g>
						<g>
							
								<rect x="2646.017" y="893.09" transform="matrix(0.9947 -0.1029 0.1029 0.9947 -143.8688 280.947)" style="fill:#FFFFFF;" width="9.735" height="1283.396"/>
						</g>
						<g>
							
								<rect x="2930.882" y="887.296" transform="matrix(0.9858 -0.168 0.168 0.9858 -216.0991 514.9598)" style="fill:#FFFFFF;" width="9.736" height="1294.984"/>
						</g>
						<g>
							
								<rect x="3215.748" y="878.765" transform="matrix(0.973 -0.2309 0.2309 0.973 -267.3783 785.2297)" style="fill:#FFFFFF;" width="9.737" height="1312.047"/>
						</g>
					</g>
				</g>
				<g>
					<g>
						<path style="fill:#FFFFFF;" d="M2553.147,1161.317l-29.028-50.11c-4.426-7.677-12.614-12.168-21.475-12.168h-57.996
							c-8.862,0-17.049,4.491-21.475,12.168l-29.028,50.229c-4.418,7.663-4.418,17.04,0,24.703l29.028,51.272
							c4.426,7.677,12.614,13.331,21.475,13.331h57.996c8.862,0,17.049-5.684,21.475-13.361l29.028-50.826
							C2557.565,1178.894,2557.565,1168.98,2553.147,1161.317z"/>
						<path style="fill:#BDD0FB;" d="M2543.556,1160.788l-25.057-42.193c-3.82-6.626-10.887-9.442-18.537-9.442h-50.061
							c-7.649,0-14.717,2.816-18.537,9.442l-25.057,42.826c-3.813,6.615-3.813,14.443,0,21.058l25.057,45.451
							c3.82,6.626,10.888,12.7,18.537,12.7h50.061c7.649,0,14.717-6.232,18.537-12.858l25.057-44.535
							C2547.37,1176.622,2547.37,1167.402,2543.556,1160.788z"/>
					</g>
					<g>
						<path style="fill:#FFFFFF;" d="M2794.26,1161.317l-29.028-50.11c-4.426-7.677-12.613-12.168-21.475-12.168h-57.996
							c-8.861,0-17.049,4.491-21.475,12.168l-29.028,50.229c-4.418,7.663-4.418,17.04,0,24.703l29.028,51.272
							c4.426,7.677,12.614,13.331,21.475,13.331h57.996c8.862,0,17.049-5.684,21.475-13.361l29.028-50.826
							C2798.677,1178.894,2798.677,1168.98,2794.26,1161.317z"/>
						<path style="fill:#BDD0FB;" d="M2784.668,1160.788l-25.057-42.193c-3.821-6.626-10.887-9.442-18.537-9.442h-50.061
							c-7.649,0-14.717,2.816-18.537,9.442l-25.056,42.826c-3.814,6.615-3.814,14.443,0,21.058l25.056,45.451
							c3.821,6.626,10.888,12.7,18.537,12.7h50.061c7.649,0,14.716-6.232,18.537-12.858l25.057-44.535
							C2788.482,1176.622,2788.482,1167.402,2784.668,1160.788z"/>
					</g>
					<g>
						<path style="fill:#FFFFFF;" d="M3035.372,1161.317l-29.028-50.11c-4.426-7.677-12.614-12.168-21.475-12.168h-57.996
							c-8.862,0-17.049,4.491-21.475,12.168l-29.028,50.229c-4.418,7.663-4.418,17.04,0,24.703l29.028,51.272
							c4.426,7.677,12.613,13.331,21.475,13.331h57.996c8.861,0,17.049-5.684,21.475-13.361l29.028-50.826
							C3039.79,1178.894,3039.79,1168.98,3035.372,1161.317z"/>
						<path style="fill:#BDD0FB;" d="M3025.781,1160.788l-25.056-42.193c-3.821-6.626-10.888-9.442-18.537-9.442h-50.061
							c-7.649,0-14.716,2.816-18.537,9.442l-25.057,42.826c-3.813,6.615-3.813,14.443,0,21.058l25.057,45.451
							c3.821,6.626,10.888,12.7,18.537,12.7h50.061c7.649,0,14.716-6.232,18.537-12.858l25.056-44.535
							C3029.594,1176.622,3029.594,1167.402,3025.781,1160.788z"/>
					</g>
				</g>
				<g>
					<path style="fill:#91B3FA;" d="M1900.131,1997.563c0,12.046-9.765,21.811-21.811,21.811h-515.995
						c-12.046,0-21.811-9.765-21.811-21.811v-0.203c0-12.046,9.765-21.811,21.811-21.811h515.995
						c12.046,0,21.811,9.765,21.811,21.811V1997.563z"/>
					<path style="fill:#91B3FA;" d="M1832.707,2082.105c0,11.783-10.136,21.549-20.73,21.549h-453.484
						c-10.594,0-17.98-9.766-17.98-21.549v-0.935c0-11.783,7.386-24.713,17.98-24.713h453.484c10.594,0,20.73,12.929,20.73,24.713
						V2082.105z"/>
				</g>
				<g>
					<g>
						<g>
							<g>
								<ellipse style="fill:#91B3FA;" cx="2029.667" cy="1899.974" rx="13.297" ry="52.047"/>
								
									<linearGradient id="SVGID_00000047048765559194918580000011663887782613736064_" gradientUnits="userSpaceOnUse" x1="2035.3513" y1="1873.2502" x2="2008.6725" y2="1903.8118">
									<stop  offset="0" style="stop-color:#2C50FF"/>
									<stop  offset="0.9964" style="stop-color:#1A1B80"/>
								</linearGradient>
								<path style="fill:url(#SVGID_00000047048765559194918580000011663887782613736064_);" d="M2048.463,1881.963
									c0,1.416-1.148,2.564-2.564,2.564h-31.954c-1.416,0-2.564-1.148-2.564-2.564v-4.985c0-1.416,1.148-2.564,2.564-2.564h31.954
									c1.416,0,2.564,1.148,2.564,2.564V1881.963z"/>
							</g>
							<g>
								<ellipse style="fill:#91B3FA;" cx="2084.374" cy="1890.856" rx="13.297" ry="52.047"/>
								
									<linearGradient id="SVGID_00000129202407270925629840000011498322895790603395_" gradientUnits="userSpaceOnUse" x1="2089.2903" y1="1863.1366" x2="2062.6116" y2="1893.6982">
									<stop  offset="0" style="stop-color:#2C50FF"/>
									<stop  offset="0.9964" style="stop-color:#1A1B80"/>
								</linearGradient>
								<path style="fill:url(#SVGID_00000129202407270925629840000011498322895790603395_);" d="M2102.402,1871.849
									c0,1.416-1.148,2.564-2.564,2.564h-31.955c-1.416,0-2.564-1.148-2.564-2.564v-4.985c0-1.416,1.148-2.564,2.564-2.564h31.955
									c1.416,0,2.564,1.148,2.564,2.564V1871.849z"/>
							</g>
							<g>
								
									<linearGradient id="SVGID_00000085214402723742915650000012193412542994901140_" gradientUnits="userSpaceOnUse" x1="2123.1802" y1="1896.2625" x2="1888.6434" y2="2164.9331">
									<stop  offset="0" style="stop-color:#9CFFFB"/>
									<stop  offset="1" style="stop-color:#9BFFFA"/>
								</linearGradient>
								<path style="fill:url(#SVGID_00000085214402723742915650000012193412542994901140_);" d="M2147.818,1999.147H2020.9
									c-6.11,0-11.854-0.708-15.319,4.398l-23.706,35.032c-0.913,1.459-2.645,1.024-4.376,1.024h-0.091
									c-1.642,0,0.261-4.761,0.261-6.584v-94.552c0-7.476,3.927-13.859,11.402-14.862l60.046-8.753
									c3.92-0.547,7.18-2.279,9.915-5.106l79.131-78.504l5.375,92.341L2147.818,1999.147z"/>
								<path style="fill:#91B3FA;" d="M2147.818,1999.147H2020.9c-6.11,0-11.854-0.708-15.319,4.398l-23.706,33.655
									c-0.913,1.459-2.645,1.145-4.376,0.598l34.192-67.587c5.197-10.03,15.5-18.261,26.714-18.261h32.277
									c5.015,0,9.938,0.278,14.314-2.092l58.445-27.053L2147.818,1999.147z"/>
							</g>
						</g>
						<g>
							<g>
								<ellipse style="fill:#91B3FA;" cx="2320.675" cy="1899.974" rx="13.297" ry="52.047"/>
								
									<linearGradient id="SVGID_00000007415650929367005440000004446934866156958097_" gradientUnits="userSpaceOnUse" x1="816.5858" y1="1873.2502" x2="789.907" y2="1903.8118" gradientTransform="matrix(-1 0 0 1 3131 0)">
									<stop  offset="0" style="stop-color:#2C50FF"/>
									<stop  offset="0.9964" style="stop-color:#1A1B80"/>
								</linearGradient>
								<path style="fill:url(#SVGID_00000007415650929367005440000004446934866156958097_);" d="M2338.385,1876.978
									c0-1.416-1.148-2.564-2.564-2.564h-31.955c-1.416,0-2.564,1.148-2.564,2.564v4.985c0,1.416,1.148,2.564,2.564,2.564h31.955
									c1.416,0,2.564-1.148,2.564-2.564V1876.978z"/>
							</g>
							<g>
								<ellipse style="fill:#91B3FA;" cx="2265.969" cy="1890.856" rx="13.297" ry="52.047"/>
								
									<linearGradient id="SVGID_00000039829818476986021800000000527970808299171746_" gradientUnits="userSpaceOnUse" x1="870.5248" y1="1863.1366" x2="843.8459" y2="1893.6982" gradientTransform="matrix(-1 0 0 1 3131 0)">
									<stop  offset="0" style="stop-color:#2C50FF"/>
									<stop  offset="0.9964" style="stop-color:#1A1B80"/>
								</linearGradient>
								<path style="fill:url(#SVGID_00000039829818476986021800000000527970808299171746_);" d="M2284.447,1866.864
									c0-1.416-1.148-2.564-2.564-2.564h-31.954c-1.416,0-2.564,1.148-2.564,2.564v4.985c0,1.416,1.148,2.564,2.564,2.564h31.954
									c1.416,0,2.564-1.148,2.564-2.564V1866.864z"/>
							</g>
							<g>
								
									<linearGradient id="SVGID_00000002378305183110160800000002330695278411255964_" gradientUnits="userSpaceOnUse" x1="904.6895" y1="1896.8242" x2="670.0517" y2="2165.6108" gradientTransform="matrix(-1 0 0 1 3131 0)">
									<stop  offset="0" style="stop-color:#9CFFFB"/>
									<stop  offset="1" style="stop-color:#9BFFFA"/>
								</linearGradient>
								<path style="fill:url(#SVGID_00000002378305183110160800000002330695278411255964_);" d="M2202.525,1999.147h126.918
									c6.11,0,11.853-0.708,15.318,4.398l23.706,35.032c0.912,1.459,2.644,1.024,4.376,1.024h0.092
									c1.641,0-4.209-4.761-4.209-6.584v-94.552c0-7.476-1.953-13.859-9.429-14.862l-59.058-8.753
									c-3.92-0.547-6.687-2.279-9.423-5.106l-78.884-78.504l-5.252,92.341L2202.525,1999.147z"/>
								<path style="fill:#91B3FA;" d="M2202.525,1999.147h126.918c6.11,0,11.853-0.708,15.318,4.398l23.706,33.655
									c0.912,1.459,2.644,1.145,4.376,0.598l-34.192-67.587c-5.196-10.03-15.499-18.261-26.714-18.261h-32.277
									c-5.015,0-9.938,0.278-14.314-2.092l-58.445-27.053L2202.525,1999.147z"/>
							</g>
						</g>
					</g>
					
						<linearGradient id="SVGID_00000103981389169713785400000011934512746045902514_" gradientUnits="userSpaceOnUse" x1="2119.5757" y1="2014.2007" x2="2194.2605" y2="2099.7551">
						<stop  offset="0" style="stop-color:#2C50FF"/>
						<stop  offset="0.9964" style="stop-color:#1A1B80"/>
					</linearGradient>
					<path style="fill:url(#SVGID_00000103981389169713785400000011934512746045902514_);" d="M2139.938,1978.895
						c-0.81-1.273-2.17-2.092-3.675-2.211c-1.505-0.118-2.977,0.476-3.978,1.606c-6.148,6.947-11.425,13.893-15.83,20.84
						c-0.939,1.467,6.602,79.772,11.62,83.477c2.648,1.955,9.898,1.661,10.626,1.125c5.941-4.384,13.914-80.804,12.917-83.082
						C2148.443,1993.397,2144.548,1986.146,2139.938,1978.895z"/>
					
						<linearGradient id="SVGID_00000100381912632160293430000000283523827746997673_" gradientUnits="userSpaceOnUse" x1="2205.7258" y1="2014.2007" x2="2280.4104" y2="2099.7549">
						<stop  offset="0" style="stop-color:#2C50FF"/>
						<stop  offset="0.9964" style="stop-color:#1A1B80"/>
					</linearGradient>
					<path style="fill:url(#SVGID_00000100381912632160293430000000283523827746997673_);" d="M2226.088,1978.895
						c-0.811-1.273-2.171-2.092-3.675-2.211c-1.505-0.118-2.978,0.476-3.978,1.606c-6.148,6.947-11.425,13.893-15.83,20.84
						c-0.939,1.467,6.602,79.772,11.62,83.477c2.648,1.955,9.898,1.661,10.626,1.125c5.941-4.384,13.915-80.804,12.917-83.082
						C2234.593,1993.397,2230.698,1986.146,2226.088,1978.895z"/>
					<path style="fill:#91B3FA;" d="M2216.422,1760.539l-35.654-145.502c-0.294-1.143-0.417-1.956-1.596-1.998
						c-1.18-0.042-1.803,0.697-2.177,1.817l-48.142,139.193c-0.85,2.543-2.853,5.207-2.853,7.889v256.187
						c0,5.455,8.005,14.734,13.458,14.734h71.424c5.454,0,2.769-9.279,2.769-14.734v-251.391
						C2213.652,1764.645,2216.943,1762.563,2216.422,1760.539z"/>
					
						<linearGradient id="SVGID_00000178892983895077047640000011629238623209939603_" gradientUnits="userSpaceOnUse" x1="2191.321" y1="1771.1281" x2="2093.3035" y2="1883.411">
						<stop  offset="0" style="stop-color:#2C50FF"/>
						<stop  offset="0.9964" style="stop-color:#1A1B80"/>
					</linearGradient>
					
						<ellipse style="fill:url(#SVGID_00000178892983895077047640000011629238623209939603_);" cx="2171.372" cy="1793.98" rx="31.152" ry="67.623"/>
					<path style="fill:#91B3FA;" d="M2185.527,1969.777c-0.81-1.273-2.17-2.092-3.675-2.212c-1.505-0.118-2.978,0.476-3.978,1.606
						c-6.148,6.947-11.425,13.894-15.83,20.841c-0.939,1.467,6.602,79.773,11.62,83.477c2.648,1.955,9.898,1.661,10.626,1.125
						c5.941-4.384,13.915-80.804,12.917-83.082C2194.032,1984.28,2190.137,1977.029,2185.527,1969.777z"/>
					
						<linearGradient id="SVGID_00000073682490530418878220000008621736179799573912_" gradientUnits="userSpaceOnUse" x1="2151.5171" y1="1898.9509" x2="2241.4773" y2="2002.0038">
						<stop  offset="0" style="stop-color:#2C50FF"/>
						<stop  offset="0.9964" style="stop-color:#1A1B80"/>
					</linearGradient>
					
						<rect x="2126" y="1891.269" style="fill:url(#SVGID_00000073682490530418878220000008621736179799573912_);" width="87.651" height="57.31"/>
				</g>
				<g>
					<g>
						
							<linearGradient id="SVGID_00000024694414080045821790000017192247201469629342_" gradientUnits="userSpaceOnUse" x1="-4258.8657" y1="10987.832" x2="-4209.1411" y2="10838.6572" gradientTransform="matrix(-1 0 0 -1 2213.575 -1980.4796)">
							<stop  offset="0" style="stop-color:#09005D"/>
							<stop  offset="1" style="stop-color:#1A0F91"/>
						</linearGradient>
						<path style="fill:url(#SVGID_00000024694414080045821790000017192247201469629342_);" d="M1746.321,1302.648l31.735-66.341
							c1.674-3.499-1.014-6.145-5.814-5.992l-1.844,0.058c-4.545,0.145-9.53,2.815-11.348,6.06l-22.472,40.093
							c-2.441,4.355-7.323,7.909-12.443,9.051l-33.804,7.538l-24.789,37.744l64.307-15.077
							C1736.902,1314.128,1743.261,1309.045,1746.321,1302.648z"/>
						
							<linearGradient id="SVGID_00000031908583154582756990000007773602196922480804_" gradientUnits="userSpaceOnUse" x1="-4148.5264" y1="11024.6387" x2="-4098.8018" y2="10875.4639" gradientTransform="matrix(-1 0 0 -1 2213.575 -1980.4796)">
							<stop  offset="0" style="stop-color:#09005D"/>
							<stop  offset="1" style="stop-color:#1A0F91"/>
						</linearGradient>
						<path style="fill:url(#SVGID_00000031908583154582756990000007773602196922480804_);" d="M1543.634,1236.307l31.735,66.341
							c3.06,6.397,9.419,11.48,16.472,13.134l64.307,15.077l-24.788-37.744l-33.805-7.538c-5.121-1.142-10.002-4.696-12.443-9.051
							l-22.472-40.093c-1.819-3.245-6.803-5.915-11.348-6.06l-1.844-0.058C1544.647,1230.162,1541.96,1232.808,1543.634,1236.307z"
							/>
					</g>
					
						<linearGradient id="SVGID_00000093897970891797439940000004790085237521507745_" gradientUnits="userSpaceOnUse" x1="1410.8164" y1="630.965" x2="1348.8398" y2="1337.5001" gradientTransform="matrix(1 0 0 1 266.5749 484.3784)">
						<stop  offset="0" style="stop-color:#E1473D"/>
						<stop  offset="1" style="stop-color:#E9605A"/>
					</linearGradient>
					<path style="fill:url(#SVGID_00000093897970891797439940000004790085237521507745_);" d="M1704.431,1380.171
						c-9.881,25.158-28.76,49.245-42.7,49.245c-0.2,0-0.4,0-0.6,0c-13.94,0-32.819-24.087-42.7-49.245
						c-8.413-24.651-16.826-49.173-25.239-73.824c-10.066-25.485,19.183-30.305,67.337-30.028c0.601,0.002,1.202,0.035,1.803,0.032
						c48.155-0.277,77.404,4.494,67.337,29.979C1721.257,1330.983,1712.844,1355.52,1704.431,1380.171z"/>
					
						<linearGradient id="SVGID_00000124146155629446945460000009642058441800980914_" gradientUnits="userSpaceOnUse" x1="-4234.9775" y1="10995.8115" x2="-4185.2524" y2="10846.6357" gradientTransform="matrix(-1 0 0 -1 2213.575 -1980.4796)">
						<stop  offset="0" style="stop-color:#09005D"/>
						<stop  offset="1" style="stop-color:#1A0F91"/>
					</linearGradient>
					<path style="fill:url(#SVGID_00000124146155629446945460000009642058441800980914_);" d="M1631.828,1381.285
						c0-17.054,13.825-30.879,30.879-30.879c17.054,0,30.879,13.825,30.879,30.879c0,17.054-13.825,30.879-30.879,30.879
						C1645.654,1412.163,1631.828,1398.339,1631.828,1381.285z"/>
					<path style="fill:#91B3FA;" d="M1639.484,1383.07c0-12.685,10.283-22.968,22.968-22.968c12.685,0,22.968,10.283,22.968,22.968
						c0,12.685-10.283,22.968-22.968,22.968C1649.767,1406.039,1639.484,1395.756,1639.484,1383.07z"/>
					
						<linearGradient id="SVGID_00000002379575619451797230000006585228893316792753_" gradientUnits="userSpaceOnUse" x1="-4203.0557" y1="11006.4307" x2="-4153.3311" y2="10857.2559" gradientTransform="matrix(-1 0 0 -1 2213.575 -1980.4796)">
						<stop  offset="0" style="stop-color:#09005D"/>
						<stop  offset="1" style="stop-color:#1A0F91"/>
					</linearGradient>
					<path style="fill:url(#SVGID_00000002379575619451797230000006585228893316792753_);" d="M1653.436,1246.975
						c0.083-3.665,2.824-7.046,6.174-7.7l0,0c3.404-0.664,6.354,1.693,6.546,5.418l3.249,62.938
						c0.38,7.363-3.544,13.681-8.672,13.681l0,0c-5.007,0-8.843-6.056-8.683-13.13L1653.436,1246.975z"/>
				</g>
				<g>
					<g>
						
							<linearGradient id="SVGID_00000075142234833551316320000010106843717253784742_" gradientUnits="userSpaceOnUse" x1="-1700.1566" y1="20147.9902" x2="-1691.7288" y2="19969.3164" gradientTransform="matrix(-1 0 0 -1 2213.575 -1980.4796)">
							<stop  offset="0" style="stop-color:#09005D"/>
							<stop  offset="1" style="stop-color:#1A0F91"/>
						</linearGradient>
						<path style="fill:url(#SVGID_00000075142234833551316320000010106843717253784742_);" d="M2826.887,1396.166l28.688-59.971
							c1.513-3.164-0.916-5.556-5.256-5.417l-1.667,0.053c-4.108,0.131-8.614,2.545-10.258,5.478l-20.314,36.243
							c-2.207,3.938-6.62,7.15-11.249,8.182l-30.559,6.815l-22.408,34.119l58.133-13.63
							C2818.372,1406.543,2824.121,1401.948,2826.887,1396.166z"/>
						
							<linearGradient id="SVGID_00000098221843249940429740000002265747861661713028_" gradientUnits="userSpaceOnUse" x1="-1589.7454" y1="20153.2168" x2="-1581.3175" y2="19974.5449" gradientTransform="matrix(-1 0 0 -1 2213.575 -1980.4796)">
							<stop  offset="0" style="stop-color:#09005D"/>
							<stop  offset="1" style="stop-color:#1A0F91"/>
						</linearGradient>
						<path style="fill:url(#SVGID_00000098221843249940429740000002265747861661713028_);" d="M2643.661,1336.195l28.688,59.971
							c2.766,5.783,8.515,10.378,14.89,11.872l58.133,13.63l-22.408-34.119l-30.559-6.815c-4.629-1.032-9.042-4.245-11.248-8.182
							l-20.314-36.243c-1.644-2.933-6.15-5.347-10.258-5.478l-1.667-0.053C2644.577,1330.639,2642.148,1333.031,2643.661,1336.195z"
							/>
					</g>
					
						<linearGradient id="SVGID_00000081642259728067723990000005144143016695732638_" gradientUnits="userSpaceOnUse" x1="2498.281" y1="740.0299" x2="2441.196" y2="1390.8009" gradientTransform="matrix(1 0 0 1 266.5749 484.3784)">
						<stop  offset="0" style="stop-color:#E1473D"/>
						<stop  offset="1" style="stop-color:#E9605A"/>
					</linearGradient>
					<path style="fill:url(#SVGID_00000081642259728067723990000005144143016695732638_);" d="M2789.019,1467.713
						c-8.932,22.742-25.999,45.983-38.6,45.983c-0.181,0-0.362,0-0.542,0c-12.602,0-29.668-23.241-38.6-45.983
						c-7.605-22.285-15.21-45.185-22.816-67.47c-9.099-23.038,17.341-27.762,60.872-27.511c0.543,0.002,1.087-0.152,1.63-0.154
						c43.531-0.25,69.971,4.704,60.871,27.743C2804.229,1422.605,2796.624,1445.428,2789.019,1467.713z"/>
					
						<linearGradient id="SVGID_00000088837936602473403500000009677348967427211161_" gradientUnits="userSpaceOnUse" x1="-1650.8324" y1="20150.3652" x2="-1642.4045" y2="19971.6914" gradientTransform="matrix(-1 0 0 -1 2213.575 -1980.4796)">
						<stop  offset="0" style="stop-color:#09005D"/>
						<stop  offset="1" style="stop-color:#1A0F91"/>
					</linearGradient>
					<path style="fill:url(#SVGID_00000088837936602473403500000009677348967427211161_);" d="M2723.388,1467.252
						c0-15.417,12.498-27.914,27.914-27.914c15.416,0,27.914,12.498,27.914,27.914c0,15.417-12.498,27.914-27.914,27.914
						C2735.885,1495.166,2723.388,1482.668,2723.388,1467.252z"/>
					<path style="fill:#91B3FA;" d="M2730.309,1468.866c0-11.467,9.295-20.763,20.762-20.763c11.467,0,20.763,9.296,20.763,20.763
						c0,11.467-9.296,20.763-20.763,20.763C2739.604,1489.629,2730.309,1480.333,2730.309,1468.866z"/>
					
						<linearGradient id="SVGID_00000092415764798399144360000005024841064225985425_" gradientUnits="userSpaceOnUse" x1="-1645.2871" y1="20150.5801" x2="-1636.8593" y2="19971.9063" gradientTransform="matrix(-1 0 0 -1 2213.575 -1980.4796)">
						<stop  offset="0" style="stop-color:#09005D"/>
						<stop  offset="1" style="stop-color:#1A0F91"/>
					</linearGradient>
					<path style="fill:url(#SVGID_00000092415764798399144360000005024841064225985425_);" d="M2742.921,1345.838
						c0.075-3.313,2.553-6.37,5.581-6.96l0,0c3.077-0.6,5.744,1.53,5.918,4.898l2.938,56.894c0.343,6.656-3.204,12.367-7.841,12.367
						l0,0c-4.526,0-7.993-5.474-7.849-11.869L2742.921,1345.838z"/>
				</g>
				<g>
					<g>
						
							<linearGradient id="SVGID_00000151510492618202376060000000022264201899126170_" gradientUnits="userSpaceOnUse" x1="-4618.4624" y1="8085.0576" x2="-4576.3223" y2="7982.2363" gradientTransform="matrix(-1 0 0 -1 2213.575 -1980.4796)">
							<stop  offset="0" style="stop-color:#09005D"/>
							<stop  offset="1" style="stop-color:#1A0F91"/>
						</linearGradient>
						<path style="fill:url(#SVGID_00000151510492618202376060000000022264201899126170_);" d="M2245.677,1181.458l22.642-47.333
							c1.195-2.497-0.723-4.384-4.148-4.276l-1.316,0.042c-3.243,0.103-6.799,2.009-8.096,4.324l-16.033,28.606
							c-1.742,3.107-5.225,5.643-8.878,6.458l-24.119,5.379l-17.686,26.929l45.883-10.757
							C2238.957,1189.649,2243.494,1186.022,2245.677,1181.458z"/>
						
							<linearGradient id="SVGID_00000145771361009280623710000010919175332790022335_" gradientUnits="userSpaceOnUse" x1="-4543.4937" y1="8115.7612" x2="-4501.3535" y2="8012.9399" gradientTransform="matrix(-1 0 0 -1 2213.575 -1980.4796)">
							<stop  offset="0" style="stop-color:#09005D"/>
							<stop  offset="1" style="stop-color:#1A0F91"/>
						</linearGradient>
						<path style="fill:url(#SVGID_00000145771361009280623710000010919175332790022335_);" d="M2101.063,1134.125l22.642,47.333
							c2.183,4.565,6.72,8.191,11.753,9.371l45.882,10.757l-17.686-26.929l-24.119-5.379c-3.654-0.815-7.136-3.35-8.878-6.458
							l-16.033-28.606c-1.298-2.315-4.854-4.22-8.097-4.324l-1.315-0.042C2101.786,1129.74,2099.869,1131.628,2101.063,1134.125z"/>
					</g>
					
						<linearGradient id="SVGID_00000140712178730137367070000013914884843215395239_" gradientUnits="userSpaceOnUse" x1="1930.1549" y1="561.4169" x2="1885.056" y2="1075.5457" gradientTransform="matrix(1 0 0 1 266.5749 484.3784)">
						<stop  offset="0" style="stop-color:#E1473D"/>
						<stop  offset="1" style="stop-color:#E9605A"/>
					</linearGradient>
					<path style="fill:url(#SVGID_00000140712178730137367070000013914884843215395239_);" d="M2215.79,1237.988
						c-7.05,17.95-20.52,36.353-30.466,36.353c-0.143,0-0.285,0-0.428,0c-9.946,0-23.416-18.403-30.466-36.353
						c-6.003-17.589-12.005-35.693-18.008-53.282c-7.182-18.183,13.687-21.926,48.044-21.729c0.429,0.001,0.858-0.128,1.287-0.129
						c34.358-0.198,55.226,3.739,48.044,21.922C2227.795,1202.359,2221.792,1220.4,2215.79,1237.988z"/>
					
						<linearGradient id="SVGID_00000070801598958473436300000012443472506853701557_" gradientUnits="userSpaceOnUse" x1="-4606.8237" y1="8089.8311" x2="-4564.6836" y2="7987.0098" gradientTransform="matrix(-1 0 0 -1 2213.575 -1980.4796)">
						<stop  offset="0" style="stop-color:#09005D"/>
						<stop  offset="1" style="stop-color:#1A0F91"/>
					</linearGradient>
					<path style="fill:url(#SVGID_00000070801598958473436300000012443472506853701557_);" d="M2163.989,1237.564
						c0-12.168,9.864-22.032,22.032-22.032c12.168,0,22.032,9.864,22.032,22.032c0,12.167-9.864,22.031-22.032,22.031
						C2173.853,1259.595,2163.989,1249.731,2163.989,1237.564z"/>
					
						<ellipse transform="matrix(0.7071 -0.7071 0.7071 0.7071 -235.7738 1908.4688)" style="fill:#91B3FA;" cx="2185.839" cy="1238.839" rx="16.387" ry="16.387"/>
					
						<linearGradient id="SVGID_00000157998533563189045790000017672154433905693098_" gradientUnits="userSpaceOnUse" x1="-4580.4038" y1="8100.6533" x2="-4538.2637" y2="7997.832" gradientTransform="matrix(-1 0 0 -1 2213.575 -1980.4796)">
						<stop  offset="0" style="stop-color:#09005D"/>
						<stop  offset="1" style="stop-color:#1A0F91"/>
					</linearGradient>
					<path style="fill:url(#SVGID_00000157998533563189045790000017672154433905693098_);" d="M2179.406,1141.736
						c0.059-2.615,2.015-5.027,4.405-5.494l0,0c2.428-0.474,4.533,1.208,4.67,3.866l2.319,44.905
						c0.271,5.253-2.529,9.761-6.188,9.761l0,0c-3.573,0-6.309-4.321-6.195-9.368L2179.406,1141.736z"/>
				</g>
				
					<linearGradient id="SVGID_00000095307897103143294970000007459928280673675408_" gradientUnits="userSpaceOnUse" x1="2732.9878" y1="1796.1469" x2="2790.2229" y2="1320.5007">
					<stop  offset="0" style="stop-color:#FF928E"/>
					<stop  offset="1" style="stop-color:#FE7062"/>
				</linearGradient>
				<polygon style="fill:url(#SVGID_00000095307897103143294970000007459928280673675408_);" points="2717.839,1713.172 
					2728.361,1551.143 2768.342,1713.172 2860.929,1690.025 2789.384,1763.674 2827.261,1864.679 2766.237,1802.617 
					2698.901,1904.66 2717.485,1776.967 2618.938,1786.821 2711.527,1741.579 2637.877,1679.504 				"/>
				<polygon style="fill:#FFFFFF;" points="2121.991,1266.219 2128.129,1171.7 2151.452,1266.219 2205.463,1252.716 
					2163.727,1295.679 2185.823,1354.6 2150.225,1318.396 2110.944,1377.923 2121.785,1303.433 2064.298,1309.182 2118.309,1282.79 
					2075.345,1246.578 				"/>
				<g>
					<g>
						<path style="fill:#BDD0FB;" d="M2178.254,1603.634c-1.388,0-1.686-1.123-1.686-2.512v-10.047c0-1.388,0.297-2.511,1.686-2.511
							c1.388,0,1.686,1.123,1.686,2.511v10.047C2179.94,1602.511,2179.642,1603.634,2178.254,1603.634z"/>
					</g>
					<g>
						<path style="fill:#BDD0FB;" d="M2178.254,1563.449c-1.388,0-1.686-1.124-1.686-2.512v-25.116c0-1.388,0.297-2.511,1.686-2.511
							c1.388,0,1.686,1.123,1.686,2.511v25.116C2179.94,1562.325,2179.642,1563.449,2178.254,1563.449z M2178.254,1513.217
							c-1.388,0-1.686-1.123-1.686-2.511v-25.116c0-1.388,0.297-2.512,1.686-2.512c1.388,0,1.686,1.123,1.686,2.512v25.116
							C2179.94,1512.094,2179.642,1513.217,2178.254,1513.217z M2178.254,1462.986c-1.388,0-1.686-1.124-1.686-2.512v-25.116
							c0-1.388,0.297-2.512,1.686-2.512c1.388,0,1.686,1.124,1.686,2.512v25.116
							C2179.94,1461.862,2179.642,1462.986,2178.254,1462.986z M2178.254,1412.754c-1.388,0-1.686-1.124-1.686-2.512v-25.116
							c0-1.388,0.297-2.511,1.686-2.511c1.388,0,1.686,1.123,1.686,2.511v25.116
							C2179.94,1411.63,2179.642,1412.754,2178.254,1412.754z M2178.254,1362.522c-1.388,0-1.686-1.123-1.686-2.511v-25.116
							c0-1.388,0.297-2.512,1.686-2.512c1.388,0,1.686,1.123,1.686,2.512v25.116
							C2179.94,1361.399,2179.642,1362.522,2178.254,1362.522z M2178.254,1312.29c-1.388,0-1.686-1.123-1.686-2.512v-5.023
							c0-1.388,0.297-2.512,1.686-2.512c1.388,0,1.686,1.123,1.686,2.512v5.023C2179.94,1311.167,2179.642,1312.29,2178.254,1312.29
							z"/>
					</g>
					<g>
						<path style="fill:#BDD0FB;" d="M2178.254,1297.22c-1.388,0-1.686-1.123-1.686-2.511v-15.07c0-1.388,0.297-2.512,1.686-2.512
							c1.388,0,1.686,1.123,1.686,2.512v15.07C2179.94,1296.098,2179.642,1297.22,2178.254,1297.22z"/>
					</g>
				</g>
				<polygon style="fill:#FFFFFF;" points="1456.554,1555.724 1464.354,1435.611 1493.993,1555.724 1562.629,1538.566 
					1509.592,1593.163 1537.67,1668.04 1492.433,1622.032 1442.515,1697.678 1456.292,1603.017 1383.238,1610.322 
					1451.874,1576.784 1397.277,1530.766 				"/>
			</g>
		</g>
		<g>
			<g>
				<path style="fill:#BDD0FB;" d="M1112.164,2014.959c0,0,51.248-319.14-84.545-424.931
					c-135.792-105.791-408.885-197.578-356.742-658.755c30.526-269.994,39.904-388.581,42.432-440.502
					c0.987-20.254,20.976-33.987,40.214-27.577c136.081,45.344,575.04,215.474,627.963,538.12
					C1444.226,1383.814,1112.164,2014.959,1112.164,2014.959z"/>
				<path style="fill:#91B3FA;" d="M844.105,605.829c134.679,157.626,278.979,423.774,340.492,678.642
					c6.694,41.534,30.615,131.181,25.486,283.97c-3.366,127.552-28.305,259.422-56.971,345.058
					c-1.813,5.414-7.67,8.333-13.084,6.521c-9.309-3.115-6.638-13.22-6.596-12.884c39.524-147.597,57.09-335.617,36.412-510.243
					c-27.561-214.716-124.62-432.478-230.105-620.326l-10.958-18.575c-82.258-141.637-103.12-145.44-92.582-153.096
					C838.688,603.085,842.136,603.536,844.105,605.829z"/>
			</g>
			<g>
				<path style="fill:#91B3FA;" d="M1065.008,2614.624c17.217,14.372-124.608-293.131-89.925-713.178
					c16.344-197.937,74.293-436.777-11.769-555.307c-71.627-98.649-390.854-125.432-495.93-131.641
					c-13.13-0.776-21.241,14.067-13.465,24.675c38.337,52.298,118.172,173.068,121.524,275.939
					c4.418,135.591,105.365,245.817,208.061,294.069c102.696,48.251,157.612,84.142,168.022,269.777
					C961.936,2264.593,1016.088,2573.788,1065.008,2614.624z"/>
				<path style="fill:#7D97F4;" d="M595.746,1302.7c127.018,36.737,250.467,128.941,293.537,255.835l4.037,12.091
					c9.235,28.294,52.917,224.062,65.502,380.57c0.156,1.951-1.298,3.66-3.249,3.817c-3.314,0.266-4.025-3.483-3.805-3.114
					c-13.431-89.96-36.088-205.391-55.366-292.281c-20.317-94.64-35.002-158.958-115.099-236.703
					c-89.634-84.552-187.581-114.937-187.298-114.803c-1.48-0.526-2.254-2.152-1.727-3.631
					C592.783,1303.056,594.314,1302.289,595.746,1302.7z"/>
			</g>
		</g>
		<g>
			
				<linearGradient id="SVGID_00000124841966453160053400000016970630278235991228_" gradientUnits="userSpaceOnUse" x1="1885.6274" y1="1659.5289" x2="1841.8032" y2="3308.04">
				<stop  offset="0" style="stop-color:#09005D"/>
				<stop  offset="1" style="stop-color:#1A0F91"/>
			</linearGradient>
			<path style="fill:url(#SVGID_00000124841966453160053400000016970630278235991228_);" d="M3243.44,2910.716l-98.542-870.525
				l-0.151,0.077c-21.482-299.591-271.161-536.635-576.226-536.635c-183.103,0-346.2,84.896-452.082,217.503h-529.537
				c-105.882-132.607-268.979-217.503-452.082-217.503c-305.065,0-554.744,236.735-576.227,536.326l-0.149,0.077l-98.543,870.603
				c-11.517,101.729,45.042,199.009,139.157,239.301l97.786,41.883c91.435,39.144,197.648,15.352,264.004-58.735l466.911-521.59
				h847.821l466.91,521.6c66.358,74.087,172.571,97.748,264.005,58.604l97.787-41.793
				C3198.398,3109.616,3254.955,3012.444,3243.44,2910.716z"/>
			
				<linearGradient id="SVGID_00000047034925381748902340000006817244479839995567_" gradientUnits="userSpaceOnUse" x1="762.044" y1="2086.4873" x2="1516.6381" y2="2086.4873">
				<stop  offset="0" style="stop-color:#4F52FF"/>
				<stop  offset="1" style="stop-color:#4042E2"/>
			</linearGradient>
			
				<circle style="opacity:0.53;fill:url(#SVGID_00000047034925381748902340000006817244479839995567_);" cx="1139.341" cy="2086.488" r="377.297"/>
			
				<linearGradient id="SVGID_00000126301231684848914050000007810856682977168300_" gradientUnits="userSpaceOnUse" x1="2215.1975" y1="2086.4873" x2="2969.791" y2="2086.4873">
				<stop  offset="0" style="stop-color:#4F52FF"/>
				<stop  offset="1" style="stop-color:#4042E2"/>
			</linearGradient>
			
				<circle style="opacity:0.53;fill:url(#SVGID_00000126301231684848914050000007810856682977168300_);" cx="2592.494" cy="2086.488" r="377.297"/>
			<g>
				<g>
					
						<linearGradient id="SVGID_00000043425041597534542640000007629455738896612277_" gradientUnits="userSpaceOnUse" x1="1979.3046" y1="2654.2253" x2="3625.1455" y2="608.0458">
						<stop  offset="0" style="stop-color:#FF928E"/>
						<stop  offset="1" style="stop-color:#FE7062"/>
					</linearGradient>
					
						<circle style="fill:url(#SVGID_00000043425041597534542640000007629455738896612277_);" cx="2593.668" cy="1890.423" r="87.321"/>
					
						<ellipse transform="matrix(0.9145 -0.4046 0.4046 0.9145 -695.0251 1242.9963)" style="fill:#7D97F4;" cx="2593.668" cy="2266.068" rx="87.321" ry="87.321"/>
				</g>
				<g>
					
						<linearGradient id="SVGID_00000044153707001387238680000018336801586556016305_" gradientUnits="userSpaceOnUse" x1="2027.625" y1="159.0066" x2="1928.7711" y2="514.881" gradientTransform="matrix(0 1 -1 0 4782.6665 562.3333)">
						<stop  offset="0" style="stop-color:#E1473D"/>
						<stop  offset="1" style="stop-color:#E9605A"/>
					</linearGradient>
					
						<circle style="fill:url(#SVGID_00000044153707001387238680000018336801586556016305_);" cx="2781.49" cy="2078.245" r="87.321"/>
					<circle style="fill:#91B3FA;" cx="2405.845" cy="2078.245" r="87.321"/>
				</g>
			</g>
			
				<linearGradient id="SVGID_00000137113207352835998690000011671794544441417373_" gradientUnits="userSpaceOnUse" x1="1278.0035" y1="1799.9342" x2="788.7618" y2="2647.9546">
				<stop  offset="0" style="stop-color:#09005D"/>
				<stop  offset="1" style="stop-color:#1A0F91"/>
			</linearGradient>
			<path style="fill:url(#SVGID_00000137113207352835998690000011671794544441417373_);" d="M1314.575,2038.445h-125.339
				l-17.156-163.457c-1.75-17.109-16.161-25.982-33.357-25.982h-41.688c-9.242,0-18.074-0.192-24.411,6.536
				c-6.335,6.729-9.615,13.643-9.061,22.867l9.73,160.036H917.026c-18.519,0-36.891,15.27-36.891,33.791v31.789
				c0,18.521,18.372,33.875,36.891,33.875h162.199l9.969,166.785c1.063,17.708,15.734,32.126,33.472,32.126h59.79
				c9.487,0,18.532-4.791,24.889-11.834c6.357-7.042,9.435-16.662,8.469-26.101l-16.458-160.976h115.218
				c18.519,0,24.949-15.354,24.949-33.875v-31.789C1339.524,2053.715,1333.095,2038.445,1314.575,2038.445z"/>
			<g>
				
					<linearGradient id="SVGID_00000044168069622159782940000014270539199691937704_" gradientUnits="userSpaceOnUse" x1="1745.5087" y1="1903.3701" x2="1642.9901" y2="2081.0693">
					<stop  offset="0" style="stop-color:#4F52FF"/>
					<stop  offset="1" style="stop-color:#4042E2"/>
				</linearGradient>
				<path style="opacity:0.53;fill:url(#SVGID_00000044168069622159782940000014270539199691937704_);" d="M1784.705,1962.67
					c0,10.462-8.481,18.944-18.944,18.944h-108.927c-10.462,0-18.944-8.482-18.944-18.944l0,0c0-10.462,8.481-18.944,18.944-18.944
					h108.927C1776.224,1943.726,1784.705,1952.207,1784.705,1962.67L1784.705,1962.67z"/>
				
					<linearGradient id="SVGID_00000026156039690383779530000008387437261888292504_" gradientUnits="userSpaceOnUse" x1="2001.251" y1="1903.37" x2="1898.7323" y2="2081.0693">
					<stop  offset="0" style="stop-color:#4F52FF"/>
					<stop  offset="1" style="stop-color:#4042E2"/>
				</linearGradient>
				<path style="opacity:0.53;fill:url(#SVGID_00000026156039690383779530000008387437261888292504_);" d="M2040.447,1962.67
					c0,10.462-8.481,18.944-18.944,18.944h-108.927c-10.462,0-18.944-8.482-18.944-18.944l0,0c0-10.462,8.481-18.944,18.944-18.944
					h108.927C2031.966,1943.726,2040.447,1952.207,2040.447,1962.67L2040.447,1962.67z"/>
			</g>
		</g>
		<g>
			<g>
				
					<linearGradient id="SVGID_00000120522762281460926530000017831464028679084676_" gradientUnits="userSpaceOnUse" x1="1405.4275" y1="624.8716" x2="1135.7317" y2="1231.6869">
					<stop  offset="0" style="stop-color:#FF928E"/>
					<stop  offset="1" style="stop-color:#FE7062"/>
				</linearGradient>
				<path style="fill:url(#SVGID_00000120522762281460926530000017831464028679084676_);" d="M961.045,1095.914
					c17.076-11.741,35.956-20.593,55.972-26.04c7.518-2.046,48.111,9.752,73.205,9.175c34.446-0.792,69.508-16.468,97.901-9.392
					c28.204,7.029,51.288,16.209,64.616,25.688c39.895,28.375,63.319,81.285,77.594,133.693
					c-27.029,27.746-61.043,40.077-61.043,40.077l-6.286,254.745l-150.635,77.071l-171.932-86.32l6.159-248.947
					c0,0-54.597-25.426-58.603-34.674C883.987,1221.742,912.876,1129.032,961.045,1095.914z"/>
				
					<linearGradient id="SVGID_00000158712192321633277580000006209222430329868957_" gradientUnits="userSpaceOnUse" x1="1109.3219" y1="1413.5801" x2="1097.3912" y2="1520.2101">
					<stop  offset="0" style="stop-color:#2C50FF"/>
					<stop  offset="0.9964" style="stop-color:#1A1B80"/>
				</linearGradient>
				<path style="fill:url(#SVGID_00000158712192321633277580000006209222430329868957_);" d="M971.846,1425.633
					c0,0-23.016,0.398-40.092,13.58c-14.103,10.887-28.373,64.248-18.057,99.553c22.806,78.051,222.852,39.601,279.601,36.256
					c56.749-3.345,108.579-31.382,91.692-99.548S971.846,1425.633,971.846,1425.633z"/>
				
					<linearGradient id="SVGID_00000143599139968652058210000004855257312184188058_" gradientUnits="userSpaceOnUse" x1="1204.1453" y1="75.3142" x2="1068.4128" y2="355.0888" gradientTransform="matrix(0.987 0.1608 -0.1608 0.987 126.9837 357.2448)">
					<stop  offset="0" style="stop-color:#09005D"/>
					<stop  offset="1" style="stop-color:#1A0F91"/>
				</linearGradient>
				<path style="fill:url(#SVGID_00000143599139968652058210000004855257312184188058_);" d="M1042.634,860.639
					c-0.693,1.313-44.343,33.433-44.343,33.433s9.639,68.961,48.783,96.192c43.036,29.939,103.814-24.66,103.814-24.66
					s48.369,11.498,74.091-89.188c5.901-23.1-28.163-25.052-69.276-20.798C1102.686,861.106,1042.634,860.639,1042.634,860.639z"/>
				
					<linearGradient id="SVGID_00000046335388070803315590000001995386908567354809_" gradientUnits="userSpaceOnUse" x1="853.1542" y1="1175.3418" x2="1139.4037" y2="1866.8018">
					<stop  offset="0" style="stop-color:#FEBBBA"/>
					<stop  offset="1" style="stop-color:#FF928E"/>
				</linearGradient>
				<path style="fill:url(#SVGID_00000046335388070803315590000001995386908567354809_);" d="M890.536,1229.878
					c0,0-73.163,202.837,93.675,286.202c34.642-4.602,21.318-62.133,21.318-62.133s-72.492-16.043-50.721-185.247
					C934.764,1252.209,890.536,1229.878,890.536,1229.878z"/>
				
					<linearGradient id="SVGID_00000016068156825106740100000013436804475673849271_" gradientUnits="userSpaceOnUse" x1="-5527.6807" y1="1173.8556" x2="-5241.4312" y2="1865.3156" gradientTransform="matrix(-1 0 0 1 -4167.0742 0)">
					<stop  offset="0" style="stop-color:#FEBBBA"/>
					<stop  offset="1" style="stop-color:#FF928E"/>
				</linearGradient>
				<path style="fill:url(#SVGID_00000016068156825106740100000013436804475673849271_);" d="M1326.815,1229.878
					c0,0,50.344,211.734-93.675,286.202c-34.642-4.602-21.318-62.133-21.318-62.133s58.425-28.773,50.721-185.247
					C1282.587,1252.209,1326.815,1229.878,1326.815,1229.878z"/>
				<g>
					<path style="fill:#91B3FA;" d="M1246.18,1509.239H935.738c-2.037,0-3.704-1.667-3.704-3.704v-207.249
						c0-2.037,1.667-3.704,3.704-3.704h310.442c2.037,0,3.704,1.667,3.704,3.704v207.249
						C1249.884,1507.572,1248.217,1509.239,1246.18,1509.239z"/>
					<path style="fill:#FFFFFF;" d="M1227.844,1513.906H954.075c-14.726,0-26.71-11.981-26.71-26.707v-170.577
						c0-14.726,11.984-26.71,26.71-26.71h273.769c14.726,0,26.71,11.984,26.71,26.71v170.577
						C1254.554,1501.925,1242.57,1513.906,1227.844,1513.906z M954.075,1299.249c-9.581,0-17.373,7.795-17.373,17.373v170.577
						c0,9.578,7.792,17.37,17.373,17.37h273.769c9.581,0,17.373-7.792,17.373-17.37v-170.577c0-9.578-7.792-17.373-17.373-17.373
						H954.075z"/>
				</g>
				<g>
					<g>
						
							<linearGradient id="SVGID_00000101811095296440615340000016972424201465646218_" gradientUnits="userSpaceOnUse" x1="992.1245" y1="1990.0657" x2="1106.6848" y2="1990.0657">
							<stop  offset="0" style="stop-color:#4F52FF"/>
							<stop  offset="1" style="stop-color:#4042E2"/>
						</linearGradient>
						<path style="fill:url(#SVGID_00000101811095296440615340000016972424201465646218_);" d="M992.125,2026.597
							c11.699-36.932,60.104-109.86,60.104-109.86l10.123,1.778l44.333,18.983c0,0-29.295,79.227-50.156,114.544
							c-2.129,3.604-4.615,6.585-7.331,9.05c-1.605,0.513-3.231,0.981-4.909,1.342
							C1019.026,2067.869,997.449,2049.502,992.125,2026.597z"/>
						<path style="fill:#7D97F4;" d="M991.042,2030.301c0.314-1.188,0.678-2.426,1.083-3.704
							c5.325,22.905,26.901,41.272,52.163,35.836c1.678-0.361,3.305-0.829,4.909-1.342
							C1025.295,2082.784,982.629,2062.176,991.042,2030.301z"/>
						
							<linearGradient id="SVGID_00000149347228633756283750000012803933418793813650_" gradientUnits="userSpaceOnUse" x1="1008.9394" y1="2952.3643" x2="843.7258" y2="3399.863" gradientTransform="matrix(0.4811 -0.8766 0.8766 0.4811 -2278.1565 1056.6656)">
							<stop  offset="0" style="stop-color:#FEBBBA"/>
							<stop  offset="1" style="stop-color:#FF928E"/>
						</linearGradient>
						<path style="fill:url(#SVGID_00000149347228633756283750000012803933418793813650_);" d="M1062.651,1893.753l-6.968,13.064
							c-3.744,7.019-4.201,15.42-1.268,23.31s9.009,14.605,16.858,18.631c6.259,3.21,13.398,4.03,19.839,2.279
							c6.44-1.751,11.649-5.929,14.475-11.609l10.104-20.313L1062.651,1893.753z"/>
					</g>
					
						<linearGradient id="SVGID_00000029748475497581217870000017961205361617112730_" gradientUnits="userSpaceOnUse" x1="1695.3218" y1="1438.1774" x2="1245.2894" y2="1630.3256">
						<stop  offset="0" style="stop-color:#4F52FF"/>
						<stop  offset="1" style="stop-color:#4042E2"/>
					</linearGradient>
					<path style="fill:url(#SVGID_00000029748475497581217870000017961205361617112730_);" d="M1181.453,1421.73
						c-42.838-3.956-68.627,29.72-69.625,69.882c0.416,0.937-6.785,212.613-58.182,411.769
						c18.782,3.799,37.257,10.593,54.337,19.237c3.792,1.95,7.443,4.035,10.959,6.25c66.661-137.77,101.79-265.526,131.105-412.042
						C1258.818,1471.219,1228.932,1426.114,1181.453,1421.73z"/>
				</g>
				<g>
					<g>
						
							<linearGradient id="SVGID_00000040534129367905644210000007233709800160310426_" gradientUnits="userSpaceOnUse" x1="1193.2971" y1="1885.7963" x2="1326.4995" y2="1885.7963">
							<stop  offset="0" style="stop-color:#4F52FF"/>
							<stop  offset="1" style="stop-color:#4042E2"/>
						</linearGradient>
						<path style="fill:url(#SVGID_00000040534129367905644210000007233709800160310426_);" d="M1326.476,1907.225
							c-20.71-32.794-85.994-91.049-85.994-91.049l-9.303,4.325l-37.883,29.796c0,0,48.474,69.272,77.602,98.146
							c2.972,2.946,6.13,5.197,9.378,6.889c1.678,0.085,3.365,0.121,5.075,0.039
							C1311.089,1954.147,1327.194,1930.797,1326.476,1907.225z"/>
						<path style="fill:#7D97F4;" d="M1328.466,1910.537c-0.606-1.071-1.273-2.178-1.99-3.313
							c0.718,23.572-15.387,46.922-41.125,48.146c-1.71,0.081-3.397,0.046-5.075-0.039
							C1308.857,1970.216,1344.717,1939.274,1328.466,1910.537z"/>
						
							<linearGradient id="SVGID_00000074420122757773053970000006699730086776256138_" gradientUnits="userSpaceOnUse" x1="478.6236" y1="691.145" x2="313.5065" y2="1138.3826" gradientTransform="matrix(0.7096 0.7046 -0.7046 0.7096 1628.6819 879.3229)">
							<stop  offset="0" style="stop-color:#FEBBBA"/>
							<stop  offset="1" style="stop-color:#FF928E"/>
						</linearGradient>
						<path style="fill:url(#SVGID_00000074420122757773053970000006699730086776256138_);" d="M1224.567,1796.575l10.053,10.873
							c5.401,5.842,7.988,13.868,7.176,22.271s-4.953,16.473-11.491,22.393c-5.212,4.72-11.885,7.35-18.539,7.308
							c-6.655-0.042-12.743-2.753-16.917-7.533l-14.927-17.094L1224.567,1796.575z"/>
					</g>
					
						<linearGradient id="SVGID_00000123429067026771913430000013590840115187405460_" gradientUnits="userSpaceOnUse" x1="1140.2332" y1="1994.5131" x2="1281.8232" y2="3026.0972">
						<stop  offset="0" style="stop-color:#4F52FF"/>
						<stop  offset="1" style="stop-color:#4042E2"/>
					</linearGradient>
					<path style="fill:url(#SVGID_00000123429067026771913430000013590840115187405460_);" d="M1185.429,1837.529
						c15.115-16.069,32.623-27.615,52.523-34.638c0.799-0.433,1.611-0.805,2.414-1.219c-5.593-10.521-12.661-24.271-21.75-42.531
						c-66.3-134.1-108.454-202.695-141.906-315.257c-12.995-43.729-55.623-65.401-98.094-40.818
						c-37.915,21.945-45.528,65.264-27.412,101.134c54.196,107.314,155.15,250.728,231.011,336.904
						C1183.282,1839.907,1184.342,1838.7,1185.429,1837.529z"/>
				</g>
				
					<linearGradient id="SVGID_00000152242387215788644760000008082862026663444915_" gradientUnits="userSpaceOnUse" x1="1104.4399" y1="1232.434" x2="1100.6312" y2="901.0522">
					<stop  offset="0" style="stop-color:#FEBBBA"/>
					<stop  offset="1" style="stop-color:#FF928E"/>
				</linearGradient>
				<path style="fill:url(#SVGID_00000152242387215788644760000008082862026663444915_);" d="M1017.017,1069.874
					c0,0,15.222,65.964,89.124,64.594c75.272-1.37,81.982-64.811,81.982-64.811l-49.17-10.521l-4.109-54.787l-73.962,5.479
					l-1.37,52.047L1017.017,1069.874z"/>
				
					<linearGradient id="SVGID_00000134250956362629412460000018116710178519660690_" gradientUnits="userSpaceOnUse" x1="1064.9739" y1="526.8412" x2="1076.8385" y2="238.4812" gradientTransform="matrix(0.987 0.1608 -0.1608 0.987 126.9837 357.2448)">
					<stop  offset="0" style="stop-color:#FEBBBA"/>
					<stop  offset="1" style="stop-color:#FF928E"/>
				</linearGradient>
				<path style="fill:url(#SVGID_00000134250956362629412460000018116710178519660690_);" d="M1071.266,849.121
					c0,0-84.76,164.185,15.785,204.019c70.92,28.096,115.385-109.032,102.123-146.172c-20.506-57.427-34.011-50.613-34.011-50.613
					L1071.266,849.121z"/>
				
					<linearGradient id="SVGID_00000002370577648760619570000009713265268031533714_" gradientUnits="userSpaceOnUse" x1="1205.1398" y1="35.9385" x2="1052.4114" y2="350.7458" gradientTransform="matrix(0.987 0.1608 -0.1608 0.987 126.9837 357.2448)">
					<stop  offset="0" style="stop-color:#09005D"/>
					<stop  offset="1" style="stop-color:#1A0F91"/>
				</linearGradient>
				<path style="fill:url(#SVGID_00000002370577648760619570000009713265268031533714_);" d="M1209.571,834.181
					c41.873,11.509,6.087,102.323-56.955,80.847c-63.042-21.476-87.816-21.162-97.64-3.851s-11.935,78.786-33.25,48.401
					c-23.369-33.313-36.399-100.178-7.747-121.733c25.607-19.264,31.582-49.131,62.296-48.096
					c40.767,1.374,72.294-16.697,90.696-3.664C1188.105,801.052,1178.76,825.713,1209.571,834.181z"/>
				
					<linearGradient id="SVGID_00000068638728413930976240000010925198477984724916_" gradientUnits="userSpaceOnUse" x1="898.2887" y1="1434.4445" x2="916.8817" y2="982.5557" gradientTransform="matrix(0.9911 -0.1329 0.1329 0.9911 -26.0254 -216.2621)">
					<stop  offset="0" style="stop-color:#FEBBBA"/>
					<stop  offset="1" style="stop-color:#FF928E"/>
				</linearGradient>
				<path style="fill:url(#SVGID_00000068638728413930976240000010925198477984724916_);" d="M1051.099,925.296
					c0,0-18.077-19.45-20.971,3.992c-2.894,23.443,6.396,53.635,17.28,37.085C1058.292,949.824,1051.099,925.296,1051.099,925.296z"
					/>
			</g>
			<path style="fill:#FFFFFF;" d="M1123.1,1367.659c1.751,11.835-4.59,22.578-16.425,24.329
				c-11.835,1.751-22.849-6.423-24.601-18.259s3.666-23.59,15.501-25.341S1121.349,1355.824,1123.1,1367.659z"/>
		</g>
		<g>
			<g>
				
					<linearGradient id="SVGID_00000132075919817535587380000006161292711728767405_" gradientUnits="userSpaceOnUse" x1="1558.6353" y1="692.1722" x2="1361.8082" y2="917.6451">
					<stop  offset="0" style="stop-color:#09005D"/>
					<stop  offset="1" style="stop-color:#1A0F91"/>
				</linearGradient>
				<path style="fill:url(#SVGID_00000132075919817535587380000006161292711728767405_);" d="M1625.929,720.951l-39.185-67.491
					c-5.975-10.363-17.027-16.273-28.989-16.273h-78.288c-11.962,0-23.014,5.911-28.989,16.273l-39.185,67.729
					c-5.964,10.344-5.964,22.964,0,33.308l39.185,68.09c5.975,10.363,17.027,16.872,28.989,16.872h78.288
					c11.962,0,23.014-6.568,28.989-16.931l39.185-68.058C1631.893,744.125,1631.893,731.295,1625.929,720.951z"/>
				<path style="fill:#7D97F4;" d="M1612.983,720.235l-33.824-56.887c-5.157-8.945-14.697-12.677-25.023-12.677h-67.577
					c-10.326,0-19.866,3.732-25.023,12.677l-33.824,57.777c-5.148,8.929-5.148,19.48,0,28.409l33.824,63.696
					c5.157,8.945,14.697,19.486,25.023,19.486h67.577c10.326,0,19.865-10.763,25.023-19.708l33.824-61.293
					C1618.13,742.786,1618.13,729.164,1612.983,720.235z"/>
				<g>
					
						<linearGradient id="SVGID_00000133490989266160814990000007600505424104236936_" gradientUnits="userSpaceOnUse" x1="2016.4369" y1="104.5384" x2="2016.4369" y2="458.5134">
						<stop  offset="0" style="stop-color:#09005D"/>
						<stop  offset="1" style="stop-color:#1A0F91"/>
					</linearGradient>
					<path style="fill:url(#SVGID_00000133490989266160814990000007600505424104236936_);" d="M2358.613,715.545
						c0,20.473-13.975,32.891-30.803,32.891h-620.878c-16.828,0-32.671-12.418-32.671-32.891v-0.369
						c0-20.473,15.843-34.164,32.671-34.164h620.878c16.828,0,30.803,13.691,30.803,34.164V715.545z"/>
					<path style="fill:#7D97F4;" d="M2108.17,718.095c0,13.15-8.558,26.97-19.113,26.97h-375.667
						c-10.555,0-19.113-13.82-19.113-26.97l0,0c0-13.15,8.557-26.969,19.113-26.969h375.667
						C2099.613,691.125,2108.17,704.945,2108.17,718.095L2108.17,718.095z"/>
				</g>
			</g>
			<g>
				<path style="fill:#FFFFFF;" d="M1545.658,703.506c0,14.859-12.046,30.9-26.904,30.9c-14.859,0-26.905-16.041-26.905-30.9
					s12.046-25.401,26.905-25.401C1533.613,678.105,1545.658,688.647,1545.658,703.506z"/>
				<path style="fill:#FFFFFF;" d="M1485.365,791.614h65.678c6.914,0,13.035-4.468,15.141-11.053l3.534-11.046
					c2.588-8.088-1.62-16.845-9.595-19.76c-26.729-9.773-54.367-8.519-82.68,0.902c-7.932,2.639-12.333,11.123-10.144,19.191
					l2.722,10.032C1471.901,786.806,1478.188,791.614,1485.365,791.614z"/>
			</g>
		</g>
		<g>
			
				<linearGradient id="SVGID_00000142885830312179592470000000943599468120852652_" gradientUnits="userSpaceOnUse" x1="2310.7432" y1="2871.2163" x2="2236.1675" y2="2984.6733">
				<stop  offset="0" style="stop-color:#FF928E"/>
				<stop  offset="1" style="stop-color:#FE7062"/>
			</linearGradient>
			<path style="fill:url(#SVGID_00000142885830312179592470000000943599468120852652_);" d="M2219.976,2922.662
				c16.288,3.24,109.108,58.473,109.108-4.674c0-5.949,0-70.539,0-70.539S2215.296,2921.731,2219.976,2922.662z"/>
			
				<linearGradient id="SVGID_00000029727259492045308210000015522382480919946147_" gradientUnits="userSpaceOnUse" x1="2220.9668" y1="2658.53" x2="2227.3408" y2="2828.0771">
				<stop  offset="0" style="stop-color:#FEBBBA"/>
				<stop  offset="1" style="stop-color:#FF928E"/>
			</linearGradient>
			<path style="fill:url(#SVGID_00000029727259492045308210000015522382480919946147_);" d="M2278.066,2804.106
				c0,0-40.793-68.839-45.893-136.403c-5.099-67.564,3.187-97.136-4.462-116.769s-44.83-94.204-46.53-71.791
				c-1.699,22.413,11.898,45.784,11.898,45.784s-23.587,18.763-19.547,40.368c4.04,21.605,12.323,23.796,12.323,23.796
				s1.275,46.742,3.4,46.742c2.124,0-37.394,234.562,6.799,239.661C2240.247,2880.594,2275.942,2912.038,2278.066,2804.106z"/>
			
				<linearGradient id="SVGID_00000023267022933854780130000016279366561192083366_" gradientUnits="userSpaceOnUse" x1="2090.2915" y1="2431.801" x2="2000.9126" y2="2557.905" gradientTransform="matrix(0.9963 -0.0857 0.0857 0.9963 -113.9226 236.535)">
				<stop  offset="0" style="stop-color:#FEBBBA"/>
				<stop  offset="1" style="stop-color:#FF928E"/>
			</linearGradient>
			<path style="fill:url(#SVGID_00000023267022933854780130000016279366561192083366_);" d="M2161.491,2548.677
				c-0.412-3.105-28.982-65.251-23.866-72.318c5.116-7.067,10.281-13.371,18.301,7.582s17.587,77.952,14.506,78.292
				C2167.352,2562.574,2162.967,2559.815,2161.491,2548.677z"/>
			
				<linearGradient id="SVGID_00000077312028262173967300000001272641552090108045_" gradientUnits="userSpaceOnUse" x1="1885.3796" y1="3195.2158" x2="1797.9387" y2="3305.1563">
				<stop  offset="0" style="stop-color:#09005D"/>
				<stop  offset="1" style="stop-color:#1A0F91"/>
			</linearGradient>
			<path style="fill:url(#SVGID_00000077312028262173967300000001272641552090108045_);" d="M1894.155,3225.742
				c0,0-21.568-17.9-50.246-15.291c-19.993,3.502-43.448,21.185-58.569,34.305c-2.637,2.287-3.523,5.929-2.226,9.123
				c1.297,3.194,4.505,5.265,8.04,5.192c37.495-0.777,110.849-3.004,110.849-8.532
				C1902.002,3243.114,1894.155,3225.742,1894.155,3225.742z"/>
			
				<linearGradient id="SVGID_00000047773521427348666220000013147217877749602451_" gradientUnits="userSpaceOnUse" x1="1901.5925" y1="3174.6165" x2="1850.8114" y2="3238.4644">
				<stop  offset="0" style="stop-color:#FEBBBA"/>
				<stop  offset="1" style="stop-color:#FF928E"/>
			</linearGradient>
			<path style="fill:url(#SVGID_00000047773521427348666220000013147217877749602451_);" d="M1909.014,3194.192l-17.21,32.507
				c0,0-38.881,3.187-37.606-12.11c1.275-15.298,10.836-33.782,10.836-33.782L1909.014,3194.192z"/>
			
				<linearGradient id="SVGID_00000049901468996166673480000008099267176472231346_" gradientUnits="userSpaceOnUse" x1="2122.5945" y1="2829.9631" x2="2144.5068" y2="2432.1621">
				<stop  offset="0" style="stop-color:#09005D"/>
				<stop  offset="1" style="stop-color:#1A0F91"/>
			</linearGradient>
			<path style="fill:url(#SVGID_00000049901468996166673480000008099267176472231346_);" d="M2348.458,3216.326
				c-26.963-147.211-46.602-241.747-46.602-241.747s-298.827-192.782-329.422-145.615
				c-30.595,47.167-118.268,369.052-118.268,369.052l58.459,15.935c0,0,111.757-151.375,121.956-280.61
				c28.773,94.256,55.586,319.5,276.951,325.962c10.99,0.321,21.533-4.343,28.699-12.683
				C2347.397,3238.281,2350.439,3227.141,2348.458,3216.326z"/>
			
				<linearGradient id="SVGID_00000027594645792710587380000005429440791502539148_" gradientUnits="userSpaceOnUse" x1="1656.3716" y1="3165.5298" x2="1688.2838" y2="3277.4888">
				<stop  offset="0" style="stop-color:#FEBBBA"/>
				<stop  offset="1" style="stop-color:#FF928E"/>
			</linearGradient>
			<polygon style="fill:url(#SVGID_00000027594645792710587380000005429440791502539148_);" points="1702.498,3212.677 
				1666.803,3246.459 1638.758,3218.413 1675.727,3175.708 			"/>
			
				<linearGradient id="SVGID_00000078003724174258463800000017809670144840042383_" gradientUnits="userSpaceOnUse" x1="2969.3538" y1="2631.915" x2="2984.7319" y2="2493.5117" gradientTransform="matrix(-1 0 0 1 5432.4297 0)">
				<stop  offset="0" style="stop-color:#FEBBBA"/>
				<stop  offset="1" style="stop-color:#FF928E"/>
			</linearGradient>
			<path style="fill:url(#SVGID_00000078003724174258463800000017809670144840042383_);" d="M2487.981,2479.486l29.804,109.833
				c1.366,5.032-0.321,10.481-4.244,13.45c-14.35,10.859-51.853,32.454-103.301,11.467c-5.884-2.4-9.916-8.472-10.426-15.379
				l-7.065-95.682L2487.981,2479.486z"/>
			<g>
				
					<linearGradient id="SVGID_00000005225656346524832490000007691878118617055148_" gradientUnits="userSpaceOnUse" x1="2959.6294" y1="2534.0002" x2="2898.4038" y2="2332.063" gradientTransform="matrix(-0.9964 -0.085 -0.085 0.9964 5543.4702 233.0212)">
					<stop  offset="0" style="stop-color:#FEBBBA"/>
					<stop  offset="1" style="stop-color:#FF928E"/>
				</linearGradient>
				<path style="fill:url(#SVGID_00000005225656346524832490000007691878118617055148_);" d="M2313.534,2390.892
					c0,0,5.843,103.917,42.589,138.854c36.746,34.938,115.616,17.719,148.172-57.468l-40.424-136.752L2313.534,2390.892z"/>
				
					<linearGradient id="SVGID_00000141427037027448020990000012618582615759019153_" gradientUnits="userSpaceOnUse" x1="2913.9126" y1="2170.8757" x2="2970.9417" y2="2496.1523" gradientTransform="matrix(-0.9964 -0.085 -0.085 0.9964 5543.4702 233.0212)">
					<stop  offset="0" style="stop-color:#E1473D"/>
					<stop  offset="1" style="stop-color:#E9605A"/>
				</linearGradient>
				<path style="fill:url(#SVGID_00000141427037027448020990000012618582615759019153_);" d="M2452.194,2428.673
					c-3.082,0.711-6.059-1.479-6.262-4.636c-0.615-9.599-2.569-28.659-8.674-42.048c0,0,4.913-13.149-34.629,3.974
					c-39.542,17.124-98.876,42.172-130.789,21.52c-31.114-20.135-56.68-110.29,28.082-86.76c3.225,0.896,6.461-1.459,6.5-4.805
					c0.166-14.445,4.407-47.347,38.753-55.094c32.141-7.25,48.068,8.339,54.401,17.468c1.863,2.686,5.722,2.965,7.923,0.548
					c10.419-11.44,38.1-35.318,74.17-15.604c29.71,16.238,32.889,35.662,31.369,47.468c-0.492,3.825,3.182,6.759,6.809,5.449
					c9.826-3.548,25.226-4.513,38.237,14.982c17.987,26.951-12.659,46.378-21.782,51.378c-1.495,0.819-2.507,2.302-2.662,4
					c-1.201,13.116-5.797,71.565-37.24,101.406c-2.723,2.584-9.574-0.01-10.727-3.582l-17.6-54.515
					c-0.817-2.532-3.436-4.017-6.028-3.42L2452.194,2428.673z"/>
				
					<linearGradient id="SVGID_00000007427648504997298600000007454296034613720456_" gradientUnits="userSpaceOnUse" x1="2909.0122" y1="2558.1577" x2="2847.7864" y2="2356.2205" gradientTransform="matrix(-0.9964 -0.085 -0.085 0.9964 5543.4702 233.0212)">
					<stop  offset="0" style="stop-color:#FEBBBA"/>
					<stop  offset="1" style="stop-color:#FF928E"/>
				</linearGradient>
				<path style="fill:url(#SVGID_00000007427648504997298600000007454296034613720456_);" d="M2447.841,2436.132
					c0,0,18.176-53.79,37.145-34.204s-10.212,56.643-34.324,62.124L2447.841,2436.132z"/>
			</g>
			
				<linearGradient id="SVGID_00000018203044784179258870000005869084274296854920_" gradientUnits="userSpaceOnUse" x1="2126.6479" y1="2495.5208" x2="2301.1238" y2="3107.6416">
				<stop  offset="0" style="stop-color:#FEBBBA"/>
				<stop  offset="1" style="stop-color:#FF928E"/>
			</linearGradient>
			<path style="fill:url(#SVGID_00000018203044784179258870000005869084274296854920_);" d="M2313.534,2774.786
				c0,0-136.177,57.366-161.672,28.045c-25.496-29.32-11.473-193.74-11.473-193.74l-57.365-15.326
				c0,0-70.539,290.228,49.292,333.571c86.992,31.465,252.834-70.963,252.834-70.963L2313.534,2774.786z"/>
			
				<linearGradient id="SVGID_00000000929578683150353150000010187062931883152815_" gradientUnits="userSpaceOnUse" x1="2701.9944" y1="2339.5266" x2="2457.5842" y2="2823.2905">
				<stop  offset="0" style="stop-color:#FF928E"/>
				<stop  offset="1" style="stop-color:#FE7062"/>
			</linearGradient>
			<path style="fill:url(#SVGID_00000000929578683150353150000010187062931883152815_);" d="M2441.585,2576.343
				c-21.956,4.827-46.022,25.796-64.847,45.913c-21.498,22.973-35.897,51.769-41.261,82.772c-0.175,1.01-0.349,2.022-0.523,3.035
				c-47.391,51.943-89.134,85.571-117.215,98.001c49.292,70.01,75.962,96.606,75.962,96.606s5.684-1.223,15.218-3.685
				c-9.265,83.539-14.281,148.22-14.281,148.22s96.284,95.571,212.89,122.766c106.198-78.187,122.441-301.859,122.441-301.859
				C2638.286,2602.822,2515.76,2560.035,2441.585,2576.343z"/>
			
				<linearGradient id="SVGID_00000085239114876405089240000002783656881374236856_" gradientUnits="userSpaceOnUse" x1="2052.4036" y1="2363.6357" x2="2060.8315" y2="2584.4487">
				<stop  offset="0" style="stop-color:#09005D"/>
				<stop  offset="1" style="stop-color:#1A0F91"/>
			</linearGradient>
			<path style="fill:url(#SVGID_00000085239114876405089240000002783656881374236856_);" d="M2507.529,3169.971
				c0,0-47.805,142.139-283.755,62.465c-114.406-38.632-274.604-262.607-274.604-262.607s-39.519,108.357-246.035,253.684
				l-45.892-41.219c0,0,209.066-360.341,316.148-322.948C2080.473,2896.74,2540.248,3077.761,2507.529,3169.971z"/>
			
				<linearGradient id="SVGID_00000032612660637116652730000006847124220964476300_" gradientUnits="userSpaceOnUse" x1="1597.1803" y1="3201.1826" x2="1626.9435" y2="3305.6021">
				<stop  offset="0" style="stop-color:#09005D"/>
				<stop  offset="1" style="stop-color:#1A0F91"/>
			</linearGradient>
			<path style="fill:url(#SVGID_00000032612660637116652730000006847124220964476300_);" d="M1684.209,3229.985
				c-8.728,0.099-45.451-16.034-45.451-16.034l-34.207,9.136c-29.814-4.587-55.42,5.565-72.676,15.883
				c-3.769,2.253-5.579,6.742-4.444,10.985c1.136,4.243,4.947,7.218,9.338,7.292c33.762,0.559,89.204,1.123,117.286-0.558
				C1696.123,3254.172,1702.498,3255.382,1684.209,3229.985z"/>
			
				<linearGradient id="SVGID_00000039829573196363485430000004917187268049459890_" gradientUnits="userSpaceOnUse" x1="2354.4873" y1="2812.5154" x2="2528.6826" y2="2812.5154">
				<stop  offset="0" style="stop-color:#E1473D"/>
				<stop  offset="1" style="stop-color:#E9605A"/>
			</linearGradient>
			<path style="fill:url(#SVGID_00000039829573196363485430000004917187268049459890_);" d="M2355.994,2886.503
				c-0.677,0-1.294-0.46-1.463-1.148c-0.199-0.808,0.294-1.626,1.104-1.824c0.36-0.09,36.541-9.144,75.425-31.373
				c35.768-20.448,81.221-56.56,94.647-112.473c0.194-0.811,1.011-1.309,1.818-1.115c0.81,0.195,1.309,1.009,1.115,1.818
				c-13.684,56.987-59.84,93.678-96.15,114.425c-39.244,22.422-75.77,31.555-76.135,31.645
				C2356.235,2886.49,2356.113,2886.503,2355.994,2886.503z"/>
			<g>
				<g>
					
						<linearGradient id="SVGID_00000052091956797025149340000018157653068604753290_" gradientUnits="userSpaceOnUse" x1="2183.0522" y1="2091.5889" x2="2151.5879" y2="2302.8503">
						<stop  offset="0" style="stop-color:#4F52FF"/>
						<stop  offset="1" style="stop-color:#4042E2"/>
					</linearGradient>
					<path style="fill:url(#SVGID_00000052091956797025149340000018157653068604753290_);" d="M2052.712,2460.91
						c-0.986-2.524-0.797-5.356,0.514-7.727c1.311-2.371,3.609-4.037,6.271-4.544l66.456-12.68c2.58-0.492,5.119,1.032,5.897,3.541
						l51.117,164.79c0.22,0.71,0.148,1.48-0.202,2.136c-0.35,0.656-0.947,1.146-1.66,1.36l-55.556,16.676
						c-4.55,1.366-9.387-0.991-11.115-5.417L2052.712,2460.91z"/>
					<path style="fill:#91B3FA;" d="M2073.675,2462.541c-0.538-1.442-0.403-3.049,0.367-4.382c0.769-1.333,2.093-2.253,3.611-2.509
						l44.116-7.446c2.551-0.431,5.026,1.093,5.79,3.564l43.409,140.386c0.228,0.737,0.14,1.534-0.24,2.203
						c-0.381,0.67-1.022,1.152-1.772,1.332l-39.527,9.508c-1.371,0.33-2.773-0.416-3.265-1.737L2073.675,2462.541z"/>
					<path style="fill:#91B3FA;" d="M2094.951,2448.949c0.109,0.517,0.995,0.767,1.978,0.56l14.503-3.058
						c0.983-0.207,1.692-0.794,1.583-1.311l-0.106-0.502c-0.109-0.517-0.994-0.767-1.978-0.56l-14.503,3.059
						c-0.983,0.207-1.692,0.794-1.583,1.311L2094.951,2448.949z"/>
				</g>
			</g>
			
				<linearGradient id="SVGID_00000029742574014462600860000009518581752109302712_" gradientUnits="userSpaceOnUse" x1="2094.2361" y1="2606.0291" x2="2127.3806" y2="2937.4756">
				<stop  offset="0" style="stop-color:#FEBBBA"/>
				<stop  offset="1" style="stop-color:#FF928E"/>
			</linearGradient>
			<path style="fill:url(#SVGID_00000029742574014462600860000009518581752109302712_);" d="M2082.285,2596.929
				c-0.855-7.307-25.395-53.837-15.834-71.684c9.561-17.847,13.385-48.442,22.628-39.837c9.242,8.605-2.231,38.563,1.912,47.486
				c4.143,8.924,20.056,31.597,22.139,49.262c2.083,17.665,13.874,42.842-10.984,46.348S2082.285,2596.929,2082.285,2596.929z"/>
			
				<linearGradient id="SVGID_00000076600066650317927790000002614743338032103859_" gradientUnits="userSpaceOnUse" x1="2343.4849" y1="2658.2375" x2="2452.3096" y2="2658.2375">
				<stop  offset="0" style="stop-color:#E1473D"/>
				<stop  offset="1" style="stop-color:#E9605A"/>
			</linearGradient>
			<path style="fill:url(#SVGID_00000076600066650317927790000002614743338032103859_);" d="M2344.991,2702.356
				c-0.294,0-0.591-0.086-0.851-0.265c-0.688-0.471-0.862-1.409-0.391-2.095c2.813-4.102,69.333-100.251,107.64-84.035
				c0.767,0.325,1.125,1.211,0.8,1.978c-0.325,0.765-1.206,1.12-1.978,0.8c-36.052-15.299-103.302,81.977-103.976,82.962
				C2345.944,2702.127,2345.472,2702.356,2344.991,2702.356z"/>
			<path style="fill:#F8A570;" d="M2195.525,2612.482c-0.468,0-0.93-0.217-1.224-0.626c-11.637-16.133-4.291-34.534-1.155-42.391
				c0.389-0.976,0.823-2.063,0.968-2.573c-1.422-3.187-6.978-19.505-5.284-29.678c0.392-2.347,1.61-3.064,2.561-3.251
				c5.234-1.022,16.609,16.255,21.243,23.74c0.439,0.708,0.219,1.638-0.489,2.075c-0.709,0.443-1.638,0.22-2.075-0.488
				c-7.555-12.202-15.762-22.368-18.041-22.368c0,0-0.017,0-0.025,0c0.012,0.039-0.11,0.256-0.198,0.788
				c-1.623,9.737,4.291,26.61,5.134,28.114c0.534,0.934,0.15,1.899-0.993,4.76c-2.953,7.398-9.868,24.72,0.8,39.51
				c0.487,0.676,0.334,1.618-0.341,2.105C2196.139,2612.39,2195.83,2612.482,2195.525,2612.482z M2194.318,2567.314l0.001,0.003
				L2194.318,2567.314z"/>
		</g>
	</g>
</g>
</svg>
