<svg width="476" height="455" viewBox="0 0 476 455" fill="none" xmlns="http://www.w3.org/2000/svg">
<g filter="url(#filter0_d_584_156)">
<path d="M453 434H1L15.7946 372H437.695L453 434Z" fill="#202FBA"/>
</g>
<g filter="url(#filter1_d_584_156)">
<path d="M76.5 2.99995C68.6667 1.83328 42.3 12.0998 13.5 26.4998C6.3 29.8372 1.66667 308.057 1 434.5C2.16667 431 27.5 407.4 51.5 395C75.5 382.6 153.167 381.333 175 383.5H298.5C344 383.5 372.8 385.8 398 395C423.2 404.2 451.333 429.667 452.5 434.5C449.833 310 458.1 34.4999 452.5 26.4998C446.9 18.4998 399.333 4.49993 388 2.99995H76.5Z" fill="url(#paint0_linear_584_156)"/>
</g>
<g filter="url(#filter2_d_584_156)">
<path d="M113 96V310C113 321.046 121.954 330 133 330H137.757C148.802 330 157.757 321.046 157.757 310V138.5C157.757 127.454 166.711 118.5 177.757 118.5H345C356.046 118.5 365 109.546 365 98.5V96C365 84.9543 356.046 76 345 76H133C121.954 76 113 84.9543 113 96Z" fill="white"/>
<path d="M210.784 310V186.5C210.784 175.454 219.738 166.5 230.784 166.5H233.595C244.64 166.5 253.595 175.454 253.595 186.5V271C253.595 282.046 262.549 291 273.595 291H345.5C356.27 291 365 299.73 365 310.5C365 321.27 356.27 330 345.5 330H230.784C219.738 330 210.784 321.046 210.784 310Z" fill="white"/>
<path d="M113 96V310C113 321.046 121.954 330 133 330H137.757C148.802 330 157.757 321.046 157.757 310V138.5C157.757 127.454 166.711 118.5 177.757 118.5H345C356.046 118.5 365 109.546 365 98.5V96C365 84.9543 356.046 76 345 76H133C121.954 76 113 84.9543 113 96Z" stroke="white"/>
<path d="M210.784 310V186.5C210.784 175.454 219.738 166.5 230.784 166.5H233.595C244.64 166.5 253.595 175.454 253.595 186.5V271C253.595 282.046 262.549 291 273.595 291H345.5C356.27 291 365 299.73 365 310.5C365 321.27 356.27 330 345.5 330H230.784C219.738 330 210.784 321.046 210.784 310Z" stroke="white"/>
</g>
<defs>
<filter id="filter0_d_584_156" x="0" y="370" width="474" height="84" filterUnits="userSpaceOnUse" color-interpolation-filters="sRGB">
<feFlood flood-opacity="0" result="BackgroundImageFix"/>
<feColorMatrix in="SourceAlpha" type="matrix" values="0 0 0 0 0 0 0 0 0 0 0 0 0 0 0 0 0 0 127 0" result="hardAlpha"/>
<feMorphology radius="1" operator="dilate" in="SourceAlpha" result="effect1_dropShadow_584_156"/>
<feOffset dx="10" dy="9"/>
<feGaussianBlur stdDeviation="5"/>
<feComposite in2="hardAlpha" operator="out"/>
<feColorMatrix type="matrix" values="0 0 0 0 0 0 0 0 0 0 0 0 0 0 0 0 0 0 0.25 0"/>
<feBlend mode="normal" in2="BackgroundImageFix" result="effect1_dropShadow_584_156"/>
<feBlend mode="normal" in="SourceGraphic" in2="effect1_dropShadow_584_156" result="shape"/>
</filter>
<filter id="filter1_d_584_156" x="0" y="0.909668" width="475.492" height="453.59" filterUnits="userSpaceOnUse" color-interpolation-filters="sRGB">
<feFlood flood-opacity="0" result="BackgroundImageFix"/>
<feColorMatrix in="SourceAlpha" type="matrix" values="0 0 0 0 0 0 0 0 0 0 0 0 0 0 0 0 0 0 127 0" result="hardAlpha"/>
<feMorphology radius="1" operator="dilate" in="SourceAlpha" result="effect1_dropShadow_584_156"/>
<feOffset dx="10" dy="9"/>
<feGaussianBlur stdDeviation="5"/>
<feComposite in2="hardAlpha" operator="out"/>
<feColorMatrix type="matrix" values="0 0 0 0 0 0 0 0 0 0 0 0 0 0 0 0 0 0 0.25 0"/>
<feBlend mode="normal" in2="BackgroundImageFix" result="effect1_dropShadow_584_156"/>
<feBlend mode="normal" in="SourceGraphic" in2="effect1_dropShadow_584_156" result="shape"/>
</filter>
<filter id="filter2_d_584_156" x="111.5" y="73.5" width="275" height="277" filterUnits="userSpaceOnUse" color-interpolation-filters="sRGB">
<feFlood flood-opacity="0" result="BackgroundImageFix"/>
<feColorMatrix in="SourceAlpha" type="matrix" values="0 0 0 0 0 0 0 0 0 0 0 0 0 0 0 0 0 0 127 0" result="hardAlpha"/>
<feMorphology radius="1" operator="dilate" in="SourceAlpha" result="effect1_dropShadow_584_156"/>
<feOffset dx="10" dy="9"/>
<feGaussianBlur stdDeviation="5"/>
<feComposite in2="hardAlpha" operator="out"/>
<feColorMatrix type="matrix" values="0 0 0 0 0 0 0 0 0 0 0 0 0 0 0 0 0 0 0.25 0"/>
<feBlend mode="normal" in2="BackgroundImageFix" result="effect1_dropShadow_584_156"/>
<feBlend mode="normal" in="SourceGraphic" in2="effect1_dropShadow_584_156" result="shape"/>
</filter>
<linearGradient id="paint0_linear_584_156" x1="44.5" y1="183.5" x2="427" y2="187.5" gradientUnits="userSpaceOnUse">
<stop stop-color="#5000FF"/>
<stop offset="0.0602851" stop-color="#0055FF"/>
<stop offset="0.908197" stop-color="#0055FF"/>
<stop offset="1" stop-color="#5000FF"/>
</linearGradient>
</defs>
</svg>
