<?xml version="1.0" encoding="utf-8"?>
<!-- Generator: Adobe Illustrator 27.5.0, SVG Export Plug-In . SVG Version: 6.00 Build 0)  -->
<svg version="1.1" xmlns="http://www.w3.org/2000/svg" xmlns:xlink="http://www.w3.org/1999/xlink" x="0px" y="0px"
	 viewBox="0 0 3710 3710" style="enable-background:new 0 0 3710 3710;" xml:space="preserve">
<g id="Background">
	<g>
		<g>
			<rect style="fill:#FFFFFF;" width="3710" height="3710"/>
		</g>
	</g>
</g>
<g id="Illustration">
	<g>
		<linearGradient id="SVGID_1_" gradientUnits="userSpaceOnUse" x1="3426.2786" y1="3264.0466" x2="1418.5342" y2="1507.2715">
			<stop  offset="0" style="stop-color:#DAE3FE"/>
			<stop  offset="1" style="stop-color:#E9EFFD"/>
		</linearGradient>
		<path style="fill:url(#SVGID_1_);" d="M3085.067,2351.675c-259.481,610.975-950.68,953.246-1550.089,860.92
			c-97.536-15.024-364.933-59.776-601.677-270.902c-455.747-406.433-553.212-1211.225-185.575-1778.38
			c267.575-412.79,747.232-646.786,1202.999-635.081c98.172,2.521,474.41,18.059,805.057,290.704
			c48.566,40.046,155.682,135.207,252.219,286.173C3234.689,1459.604,3254.174,1953.495,3085.067,2351.675z"/>
		<g>
			<path style="fill:#BDD0FB;" d="M1647.16,1610.377c-10.01-169.916-74.7-319.858-170.27-422.744
				c-85.434-91.973-133.022-213.32-130.25-338.698c0.292-13.179,0.052-26.533-0.742-40.023
				c-12.038-204.353-147.007-362.638-301.462-353.539c-154.455,9.098-269.907,182.135-257.869,386.487
				c2.461,41.786,10.068,81.637,21.931,118.521c37.861,117.713,31.903,245.74-21.314,357.411
				c-47.558,99.798-71.897,219.646-64.392,347.036c11.192,189.995,90.75,355.025,205.401,457.215
				c43.366,38.653,79.567,84.965,106.192,136.542c44.246,85.711,123.227,140.904,209.942,135.796
				c93.546-5.511,169.909-79.655,199.821-181.321c16.928-57.532,44.965-110.989,80.782-159.144
				C1609.484,1940.239,1657.28,1782.17,1647.16,1610.377z"/>
			<path style="opacity:0.57;fill:#FFFFFF;" d="M1111.327,669.58c28.133,133.867,51.943,268.531,74.345,403.442
				c5.616,33.725,10.688,67.537,15.87,101.332l7.765,50.693l7.34,50.758c4.762,33.858,9.993,67.651,14.371,101.564l13.145,101.734
				c7.896,67.933,16.37,135.798,23.002,203.878c3.365,34.032,7.392,67.994,10.065,102.098l8.49,102.248
				c9.942,136.438,16.46,273.189,16.046,410.003l-5.897,0.041l-3.587-102.375l-0.842-25.586l-1.48-25.566l-3.057-51.121
				l-2.96-51.117c-0.956-17.039-2.545-34.045-3.786-51.069c-2.71-34.033-5.15-68.083-8.08-102.094
				c-12.603-135.982-27.01-271.796-44.218-407.296c-9.122-67.684-17.663-135.44-27.255-203.065l-7.055-50.736l-7.48-50.677
				c-4.967-33.789-9.934-67.578-15.243-101.316c-10.041-67.565-20.565-135.064-31.641-202.474
				c-10.721-67.468-22.082-134.852-33.646-202.17L1111.327,669.58z"/>
		</g>
		<g>
			<path style="fill:#91B3FA;" d="M1103.959,1488.492c-29.822-102.148-90.096-184.513-162.568-233.906
				c-64.786-44.155-110.668-111.475-126.498-188.262c-1.664-8.071-3.675-16.175-6.043-24.285
				c-35.867-122.85-140.029-200.517-232.654-173.475c-92.625,27.042-138.636,148.554-102.77,271.403
				c7.333,25.12,17.525,48.345,29.89,69.17c39.461,66.46,53.725,145.304,36.975,220.76c-14.97,67.432-13.022,143.851,9.336,220.434
				c33.346,114.218,104.766,203.708,188.741,250.021c31.763,17.518,60.24,40.7,83.631,68.424
				c38.872,46.07,94.596,68.709,146.599,53.527c56.098-16.378,92.162-72.187,96.144-138.303
				c2.253-37.413,11.829-73.891,26.876-108.22C1127.138,1694.742,1134.112,1591.768,1103.959,1488.492z"/>
			<path style="opacity:0.57;fill:#FFFFFF;" d="M646.785,989.784c35.805,77.658,69.092,156.403,101.558,235.495
				c8.126,19.769,15.933,39.667,23.804,59.538l11.802,29.811l11.554,29.909c7.625,19.969,15.526,39.833,22.925,59.889l22.203,60.164
				c14.291,40.298,28.923,80.472,42.466,121.035c6.8,20.269,13.993,40.404,20.382,60.814l19.446,61.125
				c25.104,81.756,48.171,164.181,67.032,247.608l-3.579,0.846l-16.483-61.885l-4.086-15.474l-4.472-15.373l-9-30.727l-8.94-30.736
				c-2.962-10.251-6.303-20.392-9.436-30.593c-6.402-20.361-12.642-40.77-19.175-61.088
				c-26.658-81.108-54.391-161.864-83.781-242.036c-15.002-39.975-29.659-80.075-44.938-119.948l-11.377-29.935l-11.627-29.84
				c-7.739-19.898-15.48-39.796-23.42-59.616c-15.543-39.775-31.371-79.442-47.521-118.977
				c-15.943-39.62-32.264-79.1-48.698-118.512L646.785,989.784z"/>
		</g>
		<g>
			
				<ellipse transform="matrix(0.0439 -0.999 0.999 0.0439 207.1402 3706.229)" style="fill:#7D97F4;" cx="2039.821" cy="1744.898" rx="1107.899" ry="1195.868"/>
			<ellipse style="opacity:0.15;fill:#FFFFFF;" cx="1975.098" cy="1664.965" rx="938.386" ry="886.475"/>
			<g style="opacity:0.68;">
				<path style="fill:#FFFFFF;" d="M2345.326,1750.249c-0.287,195.403-13.688,391.204-48.123,583.84
					c-8.718,48.119-18.824,96.008-30.866,143.442c-12.079,47.415-26.024,94.419-43.098,140.375
					c-17.217,45.837-37.2,91.014-64.298,132.304c-13.655,20.494-29.143,40.131-48.257,56.285
					c-9.554,8.025-20.047,15.143-31.587,20.357c-11.517,5.18-24.105,8.46-36.88,8.688c-12.758,0.373-25.536-2.124-37.28-6.854
					c-11.79-4.684-22.537-11.481-32.322-19.241c-19.57-15.651-35.4-35.072-49.299-55.405
					c-27.578-40.995-47.833-86.082-65.23-131.846c-17.29-45.877-31.372-92.844-43.556-140.23
					c-12.162-47.402-22.37-95.27-31.16-143.374c-17.543-96.228-29.507-193.382-37.581-290.803
					c-8.016-97.436-12.034-195.184-12.528-292.947c-0.24-48.875,1.094-97.742,2.831-146.578c1.83-48.836,4.52-97.64,8.115-146.378
					c7.229-97.464,18.026-194.712,34.078-291.16c8.054-48.213,17.445-96.222,28.741-143.807
					c11.325-47.568,24.485-94.759,40.811-140.926c8.205-23.063,17.176-45.878,27.407-68.159
					c10.216-22.275,21.648-44.064,35.084-64.664c13.467-20.509,28.947-40.086,48.224-55.757
					c9.637-7.767,20.255-14.525,31.887-19.104c11.586-4.637,24.157-6.986,36.662-6.511c12.512,0.356,24.847,3.476,36.228,8.488
					c11.396,5.036,21.869,11.885,31.483,19.649c19.229,15.626,35.145,34.732,49.264,54.794
					c28.07,40.405,49.233,84.964,67.564,130.303c18.197,45.463,33.221,92.103,46.309,139.225
					c13.04,47.144,24.083,94.814,33.639,142.764C2329.401,1358.987,2344.761,1554.812,2345.326,1750.249z M2330.863,1750.249
					c0.179-97.364-3.522-194.753-11.613-291.78c-7.977-97.023-20.062-193.767-38.067-289.439
					c-8.99-47.83-19.461-95.388-31.921-142.421c-12.503-47.008-26.935-93.537-44.506-138.862
					c-17.697-45.197-38.219-89.601-65.452-129.718c-13.689-19.918-29.131-38.834-47.66-54.224
					c-9.261-7.649-19.316-14.37-30.197-19.32c-10.869-4.891-22.577-8.096-34.483-8.409c-11.899-0.377-23.782,2.016-34.789,6.546
					c-11.046,4.485-21.186,11.083-30.43,18.701c-18.495,15.366-33.481,34.694-46.505,55.021c-13,20.414-24.067,42.066-33.938,64.227
					c-9.887,22.166-18.538,44.891-26.433,67.87c-15.704,46.005-28.279,93.071-39.029,140.518
					c-10.721,47.466-19.548,95.362-27.043,143.459c-14.935,96.218-24.635,193.225-30.775,290.41
					c-6.202,97.198-8.344,194.617-8.169,291.992c-0.258,97.359,2.995,194.746,10.231,291.842
					c7.294,97.08,18.465,193.915,35.184,289.8c8.378,47.932,18.165,95.619,29.889,142.814
					c11.743,47.179,25.371,93.915,42.144,139.478c16.864,45.442,36.584,90.149,63.236,130.416
					c13.413,19.965,28.675,38.902,47.171,53.914c9.242,7.448,19.301,13.894,30.174,18.306c10.841,4.425,22.472,6.884,34.125,6.49
					c11.65-0.3,23.129-3.376,33.786-8.265c10.673-4.923,20.517-11.692,29.558-19.41c18.095-15.53,33.031-34.705,46.208-54.842
					c26.185-40.585,45.622-85.393,62.296-130.91c16.547-45.647,30.024-92.422,41.648-139.63
					c11.592-47.228,21.261-94.937,29.556-142.882c16.606-95.903,27.64-192.749,34.975-289.828
					C2327.469,1945.03,2330.901,1847.633,2330.863,1750.249z"/>
				<path style="fill:#FFFFFF;" d="M2838.267,1750.249c-0.676,125.834-16.849,251.724-50.534,373.071
					c-34.274,121.069-85.94,237.541-156.083,342.109c-35.076,52.227-74.814,101.388-119.216,145.99
					c-44.383,44.589-93.469,84.605-146.751,118.14c-53.33,33.406-110.931,60.148-171.228,78.291
					c-60.261,18.186-123.17,27.673-186.136,27.736c-62.965-0.006-125.891-9.436-186.185-27.572
					c-60.328-18.093-117.976-44.792-171.362-78.164c-53.337-33.5-102.495-73.48-146.95-118.051
					c-44.476-44.583-84.292-93.733-119.448-145.96c-70.285-104.582-122.06-221.104-156.494-342.233
					c-16.949-60.676-29.545-122.549-37.889-184.974c-8.3-62.435-12.47-125.397-12.756-188.381
					c0.325-62.986,4.535-125.942,12.873-188.367c8.384-62.414,21.027-124.27,38.017-184.922
					c34.52-121.08,86.374-237.523,156.705-341.997c35.17-52.179,74.992-101.275,119.462-145.799
					c44.456-44.503,93.578-84.446,146.906-117.84c53.37-33.286,111.004-59.787,171.227-77.873
					c60.185-18.161,123.01-27.634,185.892-27.695c62.882,0.114,125.692,9.64,185.847,27.847
					c60.193,18.135,117.778,44.688,171.091,78.01c53.27,33.432,102.323,73.408,146.705,117.931
					c44.397,44.543,84.14,93.649,119.231,145.829c70.188,104.459,121.938,220.852,156.294,341.873
					C2821.247,1498.547,2837.505,1624.414,2838.267,1750.249z M2821.687,1750.249c-0.182-124.406-15.679-248.945-48.503-369.035
					c-33.007-119.905-82.705-235.663-151.125-339.765c-34.191-51.997-73.024-101.009-116.519-145.56
					c-43.511-44.482-91.572-84.727-144.135-118.177c-52.626-33.263-109.456-60.036-169.045-78.145
					c-59.56-18.122-121.743-27.649-184.041-27.856c-62.298,0.26-124.466,9.839-183.995,28.007
					c-59.559,18.157-116.339,44.984-168.909,78.282c-52.505,33.488-100.494,73.766-143.933,118.267
					c-43.42,44.572-82.176,93.593-116.288,145.591c-68.278,104.088-117.869,219.795-150.713,339.641
					c-16.362,59.991-28.21,121.163-36.237,182.789c-8.047,61.634-12.017,123.789-12.156,185.962
					c0.178,62.172,4.188,124.322,12.273,185.946c8.068,61.616,19.963,122.769,36.365,182.736
					c32.929,119.798,82.603,235.426,150.926,339.405c34.125,51.95,72.886,100.917,116.302,145.429
					c43.438,44.433,91.393,84.675,143.888,118.056c52.554,33.212,109.321,59.84,168.775,77.991
					c59.422,18.193,121.488,27.815,183.703,28.13c62.216-0.258,124.299-9.823,183.753-27.966
					c59.486-18.101,116.299-44.686,168.908-77.865c52.551-33.348,100.578-73.553,144.089-117.968
					c43.489-44.492,82.328-93.45,116.533-145.399c68.465-103.994,118.247-219.673,151.336-339.529
					C2805.837,1999.172,2821.42,1874.654,2821.687,1750.249z"/>
				<path style="fill:#FFFFFF;" d="M1039.836,1320.778l249.244-2.014l249.244-1.141l498.488-0.92l498.488,1.013l249.244,1.246
					l249.244,2.174c0.404,0.004,0.729,0.334,0.725,0.739c-0.003,0.399-0.327,0.722-0.725,0.725l-249.244,2.173l-249.244,1.246
					l-498.488,1.014l-498.488-0.92l-249.244-1.141l-249.244-2.013c-0.602-0.005-1.086-0.497-1.082-1.099
					C1038.759,1321.264,1039.242,1320.783,1039.836,1320.778z"/>
				<path style="fill:#FFFFFF;" d="M1328.988,903.316c58.985-0.935,117.971-1.335,176.955-2.013l176.956-1.141
					c58.986-0.486,117.971-0.434,176.957-0.584l176.955-0.337l353.911,1.013l176.956,1.246c58.986,0.74,117.971,1.172,176.957,2.174
					c0.404,0.007,0.726,0.34,0.719,0.744c-0.006,0.395-0.327,0.712-0.719,0.719c-58.986,1.001-117.971,1.434-176.957,2.174
					l-176.956,1.246l-353.911,1.013l-176.955-0.337c-58.986-0.15-117.971-0.097-176.957-0.584l-176.956-1.141
					c-58.985-0.678-117.971-1.079-176.955-2.013c-0.602-0.01-1.082-0.505-1.073-1.107
					C1327.925,903.799,1328.402,903.326,1328.988,903.316z"/>
				<path style="fill:#FFFFFF;" d="M953.221,1738.24l270.898-2.007l270.898-1.148l541.795-0.921l541.795,1.014l270.898,1.247
					l270.897,2.173c0.405,0.004,0.729,0.334,0.727,0.738c-0.003,0.4-0.327,0.723-0.727,0.726l-270.897,2.172l-270.898,1.247
					l-541.795,1.013l-541.795-0.921l-270.898-1.148l-270.898-2.006c-0.602-0.005-1.086-0.496-1.082-1.098
					C952.143,1738.726,952.626,1738.245,953.221,1738.24z"/>
				<path style="fill:#FFFFFF;" d="M1039.836,2155.702l249.244-2.013l249.244-1.141l498.488-0.921l498.488,1.014l249.244,1.246
					l249.244,2.174c0.404,0.004,0.729,0.334,0.725,0.738c-0.003,0.4-0.327,0.722-0.725,0.725l-249.244,2.174l-249.244,1.246
					l-498.488,1.013l-498.488-0.92l-249.244-1.141l-249.244-2.014c-0.602-0.005-1.086-0.497-1.082-1.099
					C1038.759,2156.188,1039.242,2155.708,1039.836,2155.702z"/>
				<path style="fill:#FFFFFF;" d="M2780.299,2578.077H1364.654c-2.112,0-3.821-1.711-3.821-3.821c0-2.11,1.709-3.821,3.821-3.821
					h1415.645c2.112,0,3.821,1.711,3.821,3.821C2784.12,2576.366,2782.411,2578.077,2780.299,2578.077z"/>
			</g>
		</g>
		<g>
			<g>
				<g>
					<path style="fill:#91B3FA;" d="M500.388,3164.886l1614.754,0.002v-323.192l-1614.754,0.002
						C534.951,2841.698,534.951,3164.886,500.388,3164.886z"/>
					
						<linearGradient id="SVGID_00000066490620599131537810000000709912353784831128_" gradientUnits="userSpaceOnUse" x1="2678.1008" y1="787.5206" x2="1968.9802" y2="1949.1279">
						<stop  offset="0" style="stop-color:#09005D"/>
						<stop  offset="1" style="stop-color:#1A0F91"/>
					</linearGradient>
					<path style="fill:url(#SVGID_00000066490620599131537810000000709912353784831128_);" d="M2115.142,3084.011v-147.906
						c0-52.14-31.911-94.406-71.274-94.406H507.197c-30.956,0-56.05-25.094-56.05-56.05v0c0-9.406,7.625-17.03,17.03-17.03h1679.462
						c38.515,0,99.665,60.555,99.665,135.254v206.569c0,70.43-59.365,127.524-95.679,127.524H477.012
						c-14.284,0-25.864-11.58-25.864-25.865c0-26.075,21.138-47.213,47.212-47.213h1555.724
						C2087.805,3164.886,2115.142,3128.677,2115.142,3084.011z"/>
				</g>
				<path style="fill:#FFFFFF;" d="M2070.356,2911.386H556.306c-1.867,0-3.377-1.51-3.377-3.377s1.51-3.377,3.377-3.377h1514.051
					c1.866,0,3.377,1.51,3.377,3.377S2072.223,2911.386,2070.356,2911.386z"/>
				<path style="fill:#FFFFFF;" d="M2070.356,2959.357H556.306c-1.867,0-3.377-1.51-3.377-3.377s1.51-3.377,3.377-3.377h1514.051
					c1.866,0,3.377,1.51,3.377,3.377S2072.223,2959.357,2070.356,2959.357z"/>
				<path style="fill:#FFFFFF;" d="M2070.356,3007.33H556.306c-1.867,0-3.377-1.51-3.377-3.377s1.51-3.377,3.377-3.377h1514.051
					c1.866,0,3.377,1.51,3.377,3.377S2072.223,3007.33,2070.356,3007.33z"/>
				<path style="fill:#FFFFFF;" d="M2070.356,3055.301H556.306c-1.867,0-3.377-1.51-3.377-3.377c0-1.866,1.51-3.377,3.377-3.377
					h1514.051c1.866,0,3.377,1.51,3.377,3.377C2073.733,3053.79,2072.223,3055.301,2070.356,3055.301z"/>
				<path style="fill:#FFFFFF;" d="M2070.356,3103.274H556.306c-1.867,0-3.377-1.51-3.377-3.377c0-1.867,1.51-3.377,3.377-3.377
					h1514.051c1.866,0,3.377,1.51,3.377,3.377C2073.733,3101.764,2072.223,3103.274,2070.356,3103.274z"/>
			</g>
			<g>
				
					<linearGradient id="SVGID_00000162325965071591594460000008455053952499458689_" gradientUnits="userSpaceOnUse" x1="1396.2428" y1="2191.9336" x2="1379.1267" y2="2885.1475">
					<stop  offset="0" style="stop-color:#4F52FF"/>
					<stop  offset="1" style="stop-color:#4042E2"/>
				</linearGradient>
				<path style="fill:url(#SVGID_00000162325965071591594460000008455053952499458689_);" d="M679.981,2767.148H2092.76
					c11.098,0,20.095-8.997,20.095-20.095v-310.534c0-11.098-8.997-20.095-20.095-20.095H679.981
					c-11.098,0-20.095,8.997-20.095,20.095v310.534C659.886,2758.151,668.882,2767.148,679.981,2767.148z"/>
				<path style="fill:#91B3FA;" d="M1785.199,2726.84h156.208c4,0,7.242-3.242,7.242-7.242v-255.624c0-4-3.242-7.242-7.242-7.242
					h-156.208c-4,0-7.242,3.242-7.242,7.242v255.624C1777.957,2723.598,1781.2,2726.84,1785.199,2726.84z"/>
				<path style="fill:#91B3FA;" d="M1692.475,2726.84h56.707c2.027,0,3.67-1.643,3.67-3.669v-262.769c0-2.027-1.643-3.67-3.67-3.67
					h-56.706c-2.027,0-3.67,1.643-3.67,3.669v262.769C1688.806,2725.197,1690.449,2726.84,1692.475,2726.84z"/>
			</g>
		</g>
		<g>
			
				<linearGradient id="SVGID_00000027606781236705654110000018119322326930667190_" gradientUnits="userSpaceOnUse" x1="-615.6116" y1="1039.813" x2="-317.6687" y2="1450.9169" gradientTransform="matrix(-0.893 -0.4501 -0.4501 0.893 1127.6429 670.6548)">
				<stop  offset="0" style="stop-color:#09005D"/>
				<stop  offset="1" style="stop-color:#1A0F91"/>
			</linearGradient>
			<path style="fill:url(#SVGID_00000027606781236705654110000018119322326930667190_);" d="M1082.46,1840.818
				c0,0-0.036,11.076-35.805,10.384c-19.945-0.386-56.93-4.739-77.826,26.463c-10.788,16.109-30.438,23.463-48.874,17.459
				c-45.918-14.951-122.761-25.925-170.571,42.783c-36.492,52.443-18.491,88.377,7.993,111.021
				c19.452,16.633,23.322,45.658,7.536,65.804c-15.139,19.324-21.241,47.407,6.091,85.824
				c61.252,86.088,219.352-20.253,219.352-20.253l147.628-250.407L1082.46,1840.818z"/>
			<path style="fill:#FFFFFF;" d="M786.05,2021.434c-1.837,0-3.677-1.728-4.867-3.779c-13.101-22.542-10.289-54.011,6.843-76.528
				c10.262-13.484,24.112-22.602,39.001-25.669c10.572-2.18,21.365-1.309,31.515-0.231c17.131,1.81,34.364,4.491,51.218,7.96
				c1.385,0.284,2.77,0.574,4.155,0.864c9.84,2.064,20.016,4.198,30.18,4.227c0.066,0,0.129,0,0.191,0
				c12.946,0,24.267-3.746,31.901-10.559c4.765-4.257,8.333-9.837,11.786-15.235c4.231-6.622,8.61-13.467,15.225-17.883
				c0.191-0.132,0.455-0.083,0.584,0.115c0.132,0.195,0.079,0.455-0.116,0.584c-6.467,4.32-10.796,11.09-14.981,17.639
				c-3.482,5.444-7.083,11.077-11.937,15.406c-7.786,6.955-19.311,10.777-32.462,10.777c-0.063,0-0.129,0-0.191,0
				c-10.252-0.03-20.471-2.173-30.351-4.244c-1.385-0.29-2.77-0.58-4.155-0.867c-16.828-3.463-34.031-6.137-51.136-7.947
				c-10.084-1.065-20.805-1.926-31.255,0.218c-14.688,3.027-28.363,12.033-38.5,25.359c-16.93,22.249-19.72,53.332-6.783,75.591
				c0.953,1.646,3.073,4.145,5.092,3.116c0.204-0.109,0.462-0.03,0.567,0.178c0.109,0.204,0.03,0.462-0.178,0.567
				C786.954,2021.329,786.502,2021.434,786.05,2021.434z"/>
			<path style="fill:#FFFFFF;" d="M785.836,2010.711c-0.198,0-0.376-0.142-0.415-0.343c-2.806-14.892-1.655-28.775,3.334-40.148
				c5.843-13.326,17.362-23.123,30.068-25.566c0.234-0.04,0.452,0.109,0.495,0.336c0.043,0.228-0.105,0.448-0.336,0.495
				c-12.435,2.391-23.72,11.997-29.454,25.072c-4.917,11.218-6.051,24.93-3.274,39.654c0.043,0.231-0.109,0.452-0.336,0.495
				C785.888,2010.707,785.862,2010.711,785.836,2010.711z"/>
			
				<linearGradient id="SVGID_00000074418271995418420740000006164768679806891904_" gradientUnits="userSpaceOnUse" x1="20162.7637" y1="2339.8562" x2="19853.5957" y2="2516.3247" gradientTransform="matrix(1 0 0 1 -18628.4668 0)">
				<stop  offset="0" style="stop-color:#FEBBBA"/>
				<stop  offset="1" style="stop-color:#FF928E"/>
			</linearGradient>
			<path style="fill:url(#SVGID_00000074418271995418420740000006164768679806891904_);" d="M1487.292,2627.542
				c-0.364-0.14-196.467-343.562-222.966-375.881c-4.458-5.435-11.357-8.203-18.339-7.372l-54.735,6.522l-64.303,139.11
				l107.126-62.389c-10.6,73.312,127.018,182.262,174.215,222.017c4.79,4.034,5.183,11.261,0.858,15.789l-18.843,19.725
				c30.935,31.356,66.631,51.49,106.919,60.802L1487.292,2627.542z"/>
			
				<linearGradient id="SVGID_00000116936037995996622550000013899427186489204628_" gradientUnits="userSpaceOnUse" x1="-10654.1641" y1="-2853.5659" x2="-11383.5039" y2="-1455.6652" gradientTransform="matrix(-0.8974 -0.4412 -0.4412 0.8974 -9333.1885 2161.1482)">
				<stop  offset="0" style="stop-color:#09005D"/>
				<stop  offset="1" style="stop-color:#1A0F91"/>
			</linearGradient>
			<path style="fill:url(#SVGID_00000116936037995996622550000013899427186489204628_);" d="M1401.204,2574.417
				c0,0-12.025,3.885-16.097,14.595c-1.948,5.125,0.152,10.928,4.609,14.122c19.802,14.187,85.119,59.989,115.262,68.959
				c2.471,0.735,4.821-1.5,4.265-4.017c-1.547-7.002-6.55-20.985-22.669-41.455l1.446,2.925c1.83,3.702-2.201,7.556-5.797,5.526
				C1462.061,2623.691,1420.998,2598.782,1401.204,2574.417z"/>
			
				<linearGradient id="SVGID_00000047038619635835250890000002915440860627143303_" gradientUnits="userSpaceOnUse" x1="20132.8555" y1="2383.8655" x2="21190.6777" y2="1721.6525" gradientTransform="matrix(1 0 0 1 -18628.4668 0)">
				<stop  offset="0" style="stop-color:#FEBBBA"/>
				<stop  offset="1" style="stop-color:#FF928E"/>
			</linearGradient>
			<path style="fill:url(#SVGID_00000047038619635835250890000002915440860627143303_);" d="M1410.909,2711.829
				c-0.329-0.211-29.751-71.098-30.079-71.308c-26.976-164.243-92.793-304.905-112.203-341.918
				c-3.266-6.226-9.462-10.332-16.467-10.931l-54.923-4.69l-91.125,123.218l117.535-39.418
				c-25.217,69.649,87.504,204.196,125.68,252.679c3.874,4.92,2.797,12.077-2.356,15.636l-22.444,15.503
				c23.948,36.968,54.831,63.91,92.401,81.182L1410.909,2711.829z"/>
			
				<linearGradient id="SVGID_00000130615681944637113010000006889501650977234583_" gradientUnits="userSpaceOnUse" x1="-13738.7354" y1="3714.9966" x2="-14468.0791" y2="5112.9053" gradientTransform="matrix(-0.7895 -0.6137 -0.6137 0.7895 -9350.7773 3191.1018)">
				<stop  offset="0" style="stop-color:#09005D"/>
				<stop  offset="1" style="stop-color:#1A0F91"/>
			</linearGradient>
			<path style="fill:url(#SVGID_00000130615681944637113010000006889501650977234583_);" d="M1337.353,2642.381
				c0,0-12.563,1.371-18.718,11.036c-2.945,4.624-2.063,10.733,1.655,14.762c16.521,17.901,71.218,75.974,98.921,90.859
				c2.271,1.22,5.025-0.494,4.99-3.071c-0.098-7.171-2.167-21.877-13.811-45.185l0.824,3.157c1.043,3.996-3.685,6.955-6.796,4.239
				C1386.979,2702.952,1351.806,2670.248,1337.353,2642.381z"/>
			<g>
				
					<linearGradient id="SVGID_00000112627355418638608480000001324438216183519154_" gradientUnits="userSpaceOnUse" x1="11971.7725" y1="2147.2041" x2="11590.9639" y2="2835.5874" gradientTransform="matrix(1 0 0 1 -10796.7676 0)">
					<stop  offset="0" style="stop-color:#09005D"/>
					<stop  offset="1" style="stop-color:#1A0F91"/>
				</linearGradient>
				<path style="fill:url(#SVGID_00000112627355418638608480000001324438216183519154_);" d="M940.149,2257.032
					c0,0-49.685,73.901-53.762,107.61c-4.077,33.71,13.738,45.367,65.742,49.667c154.753,12.793,231.04-33.587,231.04-33.587
					c10.586-67.498,18.119-84.669,106.532-121.369c0,0-111.828,8.878-134.334,0.144
					C1132.862,2250.763,940.149,2257.032,940.149,2257.032z"/>
			</g>
			<g>
				
					<linearGradient id="SVGID_00000021815759532706184090000010537683665823569289_" gradientUnits="userSpaceOnUse" x1="1783.7738" y1="1336.5338" x2="1343.1292" y2="1812.6333">
					<stop  offset="0" style="stop-color:#FF928E"/>
					<stop  offset="1" style="stop-color:#FE7062"/>
				</linearGradient>
				<path style="fill:url(#SVGID_00000021815759532706184090000010537683665823569289_);" d="M1074.516,2247.249
					c0,0,57.859-55.093,86.339-91.583c15.395-19.725,20.23-45.692,13.11-69.68c-13.003-43.807-36.11-89.178-38.218-96.24
					c-3.23-10.824-68.104-10.374-68.104-10.374s-127.66,82.852-177.818,223.198l56.331,17.537c0,0,33.332-55.92,66.266-91.474
					c0,0-56.988,75.283-58.995,106.101L1074.516,2247.249z"/>
				
					<linearGradient id="SVGID_00000165218985325478472060000016914000104340864907_" gradientUnits="userSpaceOnUse" x1="-11321.7627" y1="2066.2871" x2="-11342.7686" y2="1931.4999" gradientTransform="matrix(-1 0 0 1 -10232.0039 0)">
					<stop  offset="0" style="stop-color:#FEBBBA"/>
					<stop  offset="1" style="stop-color:#FF928E"/>
				</linearGradient>
				<path style="fill:url(#SVGID_00000165218985325478472060000016914000104340864907_);" d="M1143.593,1929.252
					c-0.677,2.25-17.61,58.384-18.934,59.549c-1.324,1.165-37.134,3.091-53.989-8.429l34.402-76.104L1143.593,1929.252z"/>
				
					<linearGradient id="SVGID_00000023269680003983148350000007330276971812271496_" gradientUnits="userSpaceOnUse" x1="-11224.8037" y1="2238.1372" x2="-10916.8262" y2="2238.1372" gradientTransform="matrix(-1 0 0 1 -10232.0039 0)">
					<stop  offset="0" style="stop-color:#FEBBBA"/>
					<stop  offset="1" style="stop-color:#FF928E"/>
				</linearGradient>
				<path style="fill:url(#SVGID_00000023269680003983148350000007330276971812271496_);" d="M1184.755,2268.99l-43.474-47.301
					l-50.209,13.52c0,0-58.536,9.069-92.037,0c-33.502-9.069-33.502-9.069-33.502-9.069l-75.707-23.569l-11.891,33.604
					c-3.019,8.532,0.015,18.003,7.392,23.246c6.55,4.654,14.227,9.769,19.121,11.91c9.97,4.362,229.668,1.379,229.668,1.379
					L1184.755,2268.99z"/>
			</g>
			<g>
				
					<linearGradient id="SVGID_00000104686900171410086080000003864224047155260576_" gradientUnits="userSpaceOnUse" x1="-11296.6553" y1="1733.6385" x2="-11457.7676" y2="1777.7953" gradientTransform="matrix(-0.9988 -0.0494 -0.0494 0.9988 -10190.5352 -55.0328)">
					<stop  offset="0" style="stop-color:#4F52FF"/>
					<stop  offset="1" style="stop-color:#4042E2"/>
				</linearGradient>
				<path style="fill:url(#SVGID_00000104686900171410086080000003864224047155260576_);" d="M1040.848,2287.71
					c0.153,0.008,0.306,0.011,0.46,0.011l199.965-0.218c4.943-0.004,8.946-4.016,8.941-8.959c-0.005-4.945-4.031-9.03-8.961-8.941
					l-199.965,0.218c-4.943,0.004-8.946,4.016-8.941,8.959C1032.353,2283.569,1036.119,2287.477,1040.848,2287.71z"/>
				
					<linearGradient id="SVGID_00000027574150261581613220000000748962438583341212_" gradientUnits="userSpaceOnUse" x1="-11456.9844" y1="2130.5002" x2="-11571.3008" y2="2251.3257" gradientTransform="matrix(-1 0 0 1 -10232.0039 0)">
					<stop  offset="0" style="stop-color:#09005D"/>
					<stop  offset="1" style="stop-color:#1A0F91"/>
				</linearGradient>
				<path style="fill:url(#SVGID_00000027574150261581613220000000748962438583341212_);" d="M1421.032,2106.155H1254.5
					c-12.285,0-23.467,7.09-28.707,18.201l-76.988,163.248h206.955c7.917,0,15.03-4.837,17.94-12.2l59.701-151.062
					C1436.85,2115.614,1430.417,2106.155,1421.032,2106.155z"/>
				<path style="fill:#91B3FA;" d="M1303.709,2189.857c-3.609,11.212-0.943,22.101,5.955,24.321
					c6.897,2.22,15.414-5.069,19.023-16.281c3.609-11.212,0.943-22.101-5.955-24.321
					C1315.834,2171.356,1307.317,2178.645,1303.709,2189.857z"/>
			</g>
			<g>
				
					<linearGradient id="SVGID_00000070109251028358451180000012487417509872155783_" gradientUnits="userSpaceOnUse" x1="-4554.1396" y1="420.877" x2="-4395.2549" y2="138.1159" gradientTransform="matrix(-0.7885 -0.615 -0.615 0.7885 -2213.0879 -1124.1753)">
					<stop  offset="0" style="stop-color:#FEBBBA"/>
					<stop  offset="1" style="stop-color:#FF928E"/>
				</linearGradient>
				<path style="fill:url(#SVGID_00000070109251028358451180000012487417509872155783_);" d="M1175.583,1853.053
					c0,0,15.198,27.242,5.067,72.004c-10.132,44.762-33.429,50.908-49.501,41.711c-16.072-9.197-37.439-26.369-43.804-65.353
					C1080.981,1862.43,1154.972,1818.735,1175.583,1853.053z"/>
				
					<linearGradient id="SVGID_00000010296419953036383500000013032267217813429641_" gradientUnits="userSpaceOnUse" x1="-587.0564" y1="989.4498" x2="-275.8511" y2="1418.8531" gradientTransform="matrix(-0.893 -0.4501 -0.4501 0.893 1127.6429 670.6548)">
					<stop  offset="0" style="stop-color:#09005D"/>
					<stop  offset="1" style="stop-color:#1A0F91"/>
				</linearGradient>
				<path style="fill:url(#SVGID_00000010296419953036383500000013032267217813429641_);" d="M1116.348,1895.918
					c0,0,20.268-61.241,63.184-28.681l4.546,14.781c0,0,36.3-14.407,20.61-47.036c-15.69-32.629-53.794-45.504-91.558-19.533
					c-37.762,25.972-57.613,47.591-52.363,78.203c5.251,30.611,27.295,17.738,27.295,17.738s2.165-23.113,12.615-28.232
					c10.449-5.119,11.943,12.06,11.943,12.06L1116.348,1895.918z"/>
				
					<linearGradient id="SVGID_00000167363789295397022090000016596711727578087851_" gradientUnits="userSpaceOnUse" x1="-4520.3184" y1="439.8804" x2="-4361.4375" y2="157.1256" gradientTransform="matrix(-0.7885 -0.615 -0.615 0.7885 -2213.0879 -1124.1753)">
					<stop  offset="0" style="stop-color:#FEBBBA"/>
					<stop  offset="1" style="stop-color:#FF928E"/>
				</linearGradient>
				<path style="fill:url(#SVGID_00000167363789295397022090000016596711727578087851_);" d="M1107.423,1897.539
					c0,0,10.604-31.419-8.594-30.585c-19.196,0.834-8.406,30.105-3.499,40.688L1107.423,1897.539z"/>
			</g>
		</g>
		<g>
			<g>
				
					<linearGradient id="SVGID_00000116220782794149800010000013032528252773395351_" gradientUnits="userSpaceOnUse" x1="-344.0035" y1="8660.7178" x2="-492.5795" y2="7948.2256" gradientTransform="matrix(-1 0 0 1 170.9135 0)">
					<stop  offset="0" style="stop-color:#FF928E"/>
					<stop  offset="1" style="stop-color:#FE7062"/>
				</linearGradient>
				<path style="fill:url(#SVGID_00000116220782794149800010000013032528252773395351_);" d="M1614.198,1722.234h772.177
					c21.913,0,39.677-14.717,39.677-32.872v-340.898c0-18.911-19.213-33.922-42-32.815l-772.178,37.517
					c-20.975,1.019-37.354,15.408-37.354,32.815v303.381C1574.52,1707.517,1592.284,1722.234,1614.198,1722.234z"/>
				
					<linearGradient id="SVGID_00000047754805310130551300000007179113007026993073_" gradientUnits="userSpaceOnUse" x1="-260.5987" y1="8643.3135" x2="-409.1754" y2="7930.8184" gradientTransform="matrix(-1 0 0 1 170.9135 0)">
					<stop  offset="0" style="stop-color:#FF928E"/>
					<stop  offset="1" style="stop-color:#FE7062"/>
				</linearGradient>
				<polygon style="fill:url(#SVGID_00000047754805310130551300000007179113007026993073_);" points="1774.409,1722.47 
					1952.342,1831.244 1952.342,1722.47 				"/>
			</g>
			<g>
				<path style="fill:#FFFFFF;" d="M1764.045,1466.813v58.206h67.291v-58.206h18.163v139.12h-18.163v-65.227h-67.291v65.227h-17.959
					v-139.12H1764.045z"/>
				<path style="fill:#FFFFFF;" d="M1952.691,1540.706h-54.078v50.16h60.267v15.067h-78.226v-139.12h75.133v15.067h-57.174v43.967
					h54.078V1540.706z"/>
				<path style="fill:#FFFFFF;" d="M1982.195,1466.813h17.959v124.053h59.443v15.067h-77.401V1466.813z"/>
				<path style="fill:#FFFFFF;" d="M2079.606,1466.813h17.959v124.053h59.446v15.067h-77.405V1466.813z"/>
				<path style="fill:#FFFFFF;" d="M2287.864,1534.928c0,47.888-29.101,73.276-64.604,73.276c-36.742,0-62.542-28.485-62.542-70.595
					c0-44.171,27.453-73.068,64.604-73.068C2263.303,1464.541,2287.864,1493.646,2287.864,1534.928z M2179.913,1537.197
					c0,29.725,16.099,56.35,44.379,56.35c28.485,0,44.583-26.213,44.583-57.794c0-27.657-14.45-56.557-44.379-56.557
					C2194.775,1479.196,2179.913,1506.648,2179.913,1537.197z"/>
				<path style="fill:#FFFFFF;" d="M2307.049,1595.406c0-7.433,5.157-12.798,12.178-12.798c7.429,0,12.178,5.365,12.178,12.798
					c0,7.222-4.749,12.798-12.178,12.798C2312.002,1608.204,2307.049,1602.628,2307.049,1595.406z M2312.206,1565.89l-2.889-99.077
					h19.819l-2.892,99.077H2312.206z"/>
			</g>
		</g>
		<g>
			<g>
				
					<linearGradient id="SVGID_00000072251295633197178480000008386931397315920031_" gradientUnits="userSpaceOnUse" x1="5469.0586" y1="12459.9961" x2="5941.8022" y2="13351.457" gradientTransform="matrix(-1 0 0 1 2089.3298 0)">
					<stop  offset="0" style="stop-color:#FF928E"/>
					<stop  offset="1" style="stop-color:#FE7062"/>
				</linearGradient>
				<path style="fill:url(#SVGID_00000072251295633197178480000008386931397315920031_);" d="M2400.263,1158.29h622.398
					c17.663,0,31.981-14.717,31.981-32.872V784.52c0-18.911-15.486-33.923-33.854-32.815l-622.398,37.518
					c-16.906,1.019-30.109,15.408-30.109,32.815v303.381C2368.282,1143.573,2382.601,1158.29,2400.263,1158.29z"/>
				
					<linearGradient id="SVGID_00000113352134386445752710000000150687805113383577_" gradientUnits="userSpaceOnUse" x1="5411.439" y1="12490.5977" x2="5884.1865" y2="13382.0654" gradientTransform="matrix(-1 0 0 1 2089.3298 0)">
					<stop  offset="0" style="stop-color:#FF928E"/>
					<stop  offset="1" style="stop-color:#FE7062"/>
				</linearGradient>
				<polygon style="fill:url(#SVGID_00000113352134386445752710000000150687805113383577_);" points="2568.173,1158.527 
					2746.106,1272.318 2746.106,1158.527 				"/>
			</g>
			<g>
				<path style="fill:#FFFFFF;" d="M2539.808,874.852c-0.663,2.009-2.876,3.129-6.198,2.91
					c-5.764,16.999-12.647,34.25-20.208,50.634l8.449,1.956c-0.446,2.24-2.224,3.819-6.002,4.297v141.928l-26.547,0.618V972.568
					c-4.927,7.696-10.082,14.955-15.24,21.319c-3.594-6.021-11.465-17.85-16.192-23.65c20.006-23.611,39.703-65.284,51.301-104.987
					L2539.808,874.852z M2667.641,905.533c0,1.099-2.798,26.874-9.474,54.029l-15.976-2.702
					c12.312,23.241,22.868,53.271,26.739,73.675l-24.795,9.729c-3.027-20.474-13.64-51.899-25.364-75.195l22.554-8.422l-5.196-0.831
					c1.084-6.856,2.167-16.363,3.465-26.089l-26.697,0.192v114.718c0,20.376-4.357,29.999-42.436,30.887
					c-1.318-7.756-5.276-19.691-9.019-26.741c9.24,0.035,18.681-0.157,21.749-0.219c2.847-0.058,3.723-0.964,3.723-3.85V930.107
					l-23.489,0.169c-7.05,15.65-14.993,29.773-23.837,41.03c-4.648-4.86-14.184-12.802-20.179-16.771
					c16.417-19.816,29.906-54.714,37.186-88.614l30.758,8.215c-0.656,1.778-2.629,3.112-5.916,2.893
					c-2.412,9.563-5.266,19.13-8.559,28.485l80.762-0.361L2667.641,905.533z M2580.779,967.046c-0.44,1.784-2.633,2.919-5.487,2.952
					c-6.591,26.116-17.816,55.025-30.838,73.329c-5.087-3.918-14.836-9.766-20.825-12.786
					c12.418-16.309,22.594-44.587,28.113-70.749L2580.779,967.046z"/>
				<path style="fill:#FFFFFF;" d="M2768.407,908.343l13.434,3.194l-1.257,4.351c-2.517,36.971-7.974,67.48-17.647,91.998
					c9.462,7.895,17.857,15.795,23.094,22.65l-15.103,21.387c-4.624-6.214-11.361-13.265-19.162-20.525
					c-9.928,17.212-22.849,30.596-38.786,41.244c-3.408-6.493-10.018-15.772-15.354-20.483
					c14.289-8.184,25.986-20.671,35.107-37.011c-3.816-3.214-7.848-5.989-11.671-8.992l-1.7,7.031l-20.882-10.84
					c4.91-18.272,10.239-43.102,15.351-68.777l-16.846,0.13v-24.351l21.313-0.106c2.764-15.328,5.314-30.211,7.436-43.774
					l28.775,3.05c-0.212,1.963-1.899,3.271-5.486,3.492c-2.114,11.345-4.438,24.008-6.976,37.113l22.15-0.11L2768.407,908.343z
					 M2737.182,933.391c-3.387,16.415-6.992,33.058-10.384,48.405c5.089,3.211,10.596,6.848,16.097,10.699
					c5.918-16.878,10.14-36.77,12.668-59.246L2737.182,933.391z M2892.768,959.445v24.458l-45.191,0.616v55.646
					c0,21.353-7.026,29.28-45.869,29.754c-1.251-7.129-5.428-18.315-8.772-25.406c7.728,0.06,15.861,0.109,20.858,0.007
					c7.069-0.144,8.728-0.178,8.728-4.071v-55.589l-44.455,0.606v-24.781l44.455-0.481v-33.309l7.679,0.377
					c7.042-7.608,14.071-17.575,20.061-27.094l-64.65,0.258v-24.108l82.566-0.104l4.106-1.297l19.054,11.996
					c-0.818,1.507-2.865,2.584-4.91,3.02c-9.627,15.073-24.626,35.166-38.851,49.5v20.49L2892.768,959.445z"/>
				<path style="fill:#FFFFFF;" d="M2924.508,1030.288c0-11.542,7.499-19.792,17.815-19.965c10.492-0.176,17.74,7.793,17.74,19.288
					c0,11.071-6.846,19.52-17.74,19.752C2931.4,1049.596,2924.508,1041.192,2924.508,1030.288z M2954.024,995.001l-23.434,0.352
					l-4.054-112.363l31.517-0.065L2954.024,995.001z"/>
			</g>
		</g>
		<g>
			<g>
				<g>
					
						<linearGradient id="SVGID_00000096751615783230077650000010100982101631773879_" gradientUnits="userSpaceOnUse" x1="-921.5032" y1="1069.8988" x2="-921.5032" y2="1900.5786" gradientTransform="matrix(-1 0 0 1 81.928 0)">
						<stop  offset="0" style="stop-color:#FF928E"/>
						<stop  offset="1" style="stop-color:#FE7062"/>
					</linearGradient>
					<path style="fill:url(#SVGID_00000096751615783230077650000010100982101631773879_);" d="M1314.63,1472.786H692.232
						c-17.663,0-31.981-13.026-31.981-29.094v-301.718c0-16.738,15.486-30.024,33.854-29.044l622.398,33.206
						c16.906,0.902,30.109,13.637,30.109,29.044v268.513C1346.611,1459.76,1332.293,1472.786,1314.63,1472.786z"/>
					
						<linearGradient id="SVGID_00000071557559703208463590000008862683723631381426_" gradientUnits="userSpaceOnUse" x1="-975.8258" y1="1069.8986" x2="-975.8258" y2="1900.5804" gradientTransform="matrix(-1 0 0 1 81.928 0)">
						<stop  offset="0" style="stop-color:#FF928E"/>
						<stop  offset="1" style="stop-color:#FE7062"/>
					</linearGradient>
					<polygon style="fill:url(#SVGID_00000071557559703208463590000008862683723631381426_);" points="1146.72,1469.618 
						968.787,1570.331 968.787,1469.618 					"/>
				</g>
			</g>
			<g>
				<path style="fill:#FFFFFF;" d="M790.924,1243.248v58.206h67.288v-58.206h18.163v139.12h-18.163v-65.227h-67.288v65.227h-17.959
					v-139.12H790.924z"/>
				<path style="fill:#FFFFFF;" d="M1026.423,1311.364c0,47.888-29.105,73.276-64.607,73.276c-36.742,0-62.543-28.485-62.543-70.595
					c0-44.171,27.456-73.068,64.607-73.068C1001.862,1240.976,1026.423,1270.081,1026.423,1311.364z M918.472,1313.632
					c0,29.725,16.099,56.35,44.376,56.35c28.485,0,44.587-26.213,44.587-57.794c0-27.657-14.45-56.557-44.379-56.557
					C933.331,1255.631,918.472,1283.083,918.472,1313.632z"/>
				<path style="fill:#FFFFFF;" d="M1049.73,1243.248h17.959v124.053h59.449v15.067h-77.408V1243.248z"/>
				<path style="fill:#FFFFFF;" d="M1169.644,1338.609l-14.45,43.759h-18.576l47.268-139.12h21.672l47.476,139.12h-19.199
					l-14.859-43.759H1169.644z M1215.26,1324.574l-13.622-40.043c-3.097-9.085-5.161-17.339-7.225-25.388H1194
					c-2.064,8.254-4.333,16.719-7.017,25.18l-13.626,40.251H1215.26z"/>
				<path style="fill:#FFFFFF;" d="M1269.328,1371.842c0-7.433,5.161-12.798,12.178-12.798c7.43,0,12.178,5.365,12.178,12.798
					c0,7.222-4.749,12.798-12.178,12.798C1274.281,1384.64,1269.328,1379.064,1269.328,1371.842z M1274.489,1342.325l-2.889-99.077
					h19.812l-2.889,99.077H1274.489z"/>
			</g>
		</g>
		<g>
			
				<linearGradient id="SVGID_00000172404355989426201680000005658165150823215543_" gradientUnits="userSpaceOnUse" x1="-175.9697" y1="819.358" x2="-1169.6598" y2="2221.3489" gradientTransform="matrix(-0.9849 -0.1731 -0.1731 0.9849 2183.0071 669.1506)">
				<stop  offset="0" style="stop-color:#09005D"/>
				<stop  offset="1" style="stop-color:#1A0F91"/>
			</linearGradient>
			<path style="fill:url(#SVGID_00000172404355989426201680000005658165150823215543_);" d="M2585.843,1931.461
				c4.791-4.661,4.571-12.422-0.477-16.803l-596.394-532.126c-1.672-1.492-4.078-1.834-6.1-0.866
				c-3.549,1.698-4.258,6.445-1.361,9.107l588.648,540.912C2574.619,1935.782,2581.502,1935.684,2585.843,1931.461z"/>
			
				<linearGradient id="SVGID_00000134964200041041314910000017552703370647614370_" gradientUnits="userSpaceOnUse" x1="-1257.1229" y1="3201.1946" x2="-1143.7787" y2="3201.1946" gradientTransform="matrix(-1 0 0 1 1790.7936 0)">
				<stop  offset="0" style="stop-color:#09005D"/>
				<stop  offset="1" style="stop-color:#1A0F91"/>
			</linearGradient>
			<path style="fill:url(#SVGID_00000134964200041041314910000017552703370647614370_);" d="M2934.574,3241.552
				c-0.013-0.844,0.043-1.699,0.26-2.56c12.766-50.612,76.126-82.135,76.126-82.135l25.108,1.968
				c14.436,44.608,12.581,71.967,10.263,84.153c-0.064,0.341-0.168,0.666-0.259,0.997
				C3025.361,3245.825,2982.731,3247.033,2934.574,3241.552z"/>
			
				<linearGradient id="SVGID_00000047752833483780699040000015901928322515569039_" gradientUnits="userSpaceOnUse" x1="-973.3711" y1="3067.4805" x2="-1385.7213" y2="3391.259" gradientTransform="matrix(-1 0 0 1 1790.7936 0)">
				<stop  offset="0" style="stop-color:#4F52FF"/>
				<stop  offset="1" style="stop-color:#4042E2"/>
			</linearGradient>
			<path style="fill:url(#SVGID_00000047752833483780699040000015901928322515569039_);" d="M3046.072,3243.975
				c-1.118,4.069-4.122,7.237-7.967,8.046c-29.463,6.196-76.29,1.21-95.951-1.361c-4.338-0.567-7.508-4.578-7.58-9.107
				C2982.731,3247.033,3025.361,3245.825,3046.072,3243.975z"/>
			
				<linearGradient id="SVGID_00000097480413583647850280000016415034344708458170_" gradientUnits="userSpaceOnUse" x1="-1409.1099" y1="2423.5232" x2="-1257.9525" y2="2423.5232" gradientTransform="matrix(-1 0 0 1 1790.7936 0)">
				<stop  offset="0" style="stop-color:#FEBBBA"/>
				<stop  offset="1" style="stop-color:#FF928E"/>
			</linearGradient>
			<path style="fill:url(#SVGID_00000097480413583647850280000016415034344708458170_);" d="M3145.498,2345.619
				c15.507,16.551,38.339,30.853,54.406,39.772c-23.994,29.659-56.462,59.36-99.443,88.431l-12.301,27.605l-39.413-47.239
				C3048.746,2454.189,3119.468,2418.995,3145.498,2345.619z"/>
			
				<linearGradient id="SVGID_00000077306287262299578440000017566094100108698498_" gradientUnits="userSpaceOnUse" x1="-1225.603" y1="3072.1565" x2="-1247.2539" y2="3261.1106" gradientTransform="matrix(-1 0 0 1 1790.7936 0)">
				<stop  offset="0" style="stop-color:#FEBBBA"/>
				<stop  offset="1" style="stop-color:#FF928E"/>
			</linearGradient>
			<path style="fill:url(#SVGID_00000077306287262299578440000017566094100108698498_);" d="M3046.164,3121.428l-10.634,51.191
				c-0.779,3.751-3.661,6.561-7.153,6.888c-4.273,0.401-10.357,0.636-16.475-0.262c-5.486-0.806-9.306-6.381-8.333-12.364
				l7.392-45.453H3046.164z"/>
			
				<linearGradient id="SVGID_00000113321836615670916490000001992916258646956930_" gradientUnits="userSpaceOnUse" x1="-900.1201" y1="3160.77" x2="-1312.4702" y2="3484.5483" gradientTransform="matrix(-1 0 0 1 1790.7936 0)">
				<stop  offset="0" style="stop-color:#4F52FF"/>
				<stop  offset="1" style="stop-color:#4042E2"/>
			</linearGradient>
			<path style="fill:url(#SVGID_00000113321836615670916490000001992916258646956930_);" d="M2825.837,3243.46
				c27.729-0.776,42.072-4.042,49.487-7.073c0.017,2.757,0.001,5.563-0.088,8.47c-0.095,3.105-2.396,5.586-5.225,5.567
				l-152.252-0.983c-4.859-0.031-7.698-5.667-5.593-10.122C2732.128,3240.97,2782.972,3244.66,2825.837,3243.46z"/>
			
				<linearGradient id="SVGID_00000078766180164587170260000009982476860126435466_" gradientUnits="userSpaceOnUse" x1="-1084.53" y1="3204.2092" x2="-921.3721" y2="3204.2092" gradientTransform="matrix(-1 0 0 1 1790.7936 0)">
				<stop  offset="0" style="stop-color:#09005D"/>
				<stop  offset="1" style="stop-color:#1A0F91"/>
			</linearGradient>
			<path style="fill:url(#SVGID_00000078766180164587170260000009982476860126435466_);" d="M2712.166,3239.321
				c0.184-0.388,0.341-0.783,0.603-1.148c13.446-18.788,47.692-56.199,115.363-72.426l32.464-1.024c0,0,14.455,25.125,14.728,71.665
				c-7.415,3.031-21.757,6.296-49.487,7.073C2782.972,3244.66,2732.128,3240.97,2712.166,3239.321z"/>
			
				<linearGradient id="SVGID_00000078028147075079498580000004960195628537751435_" gradientUnits="userSpaceOnUse" x1="-1049.2419" y1="3092.365" x2="-1070.8927" y2="3281.3181" gradientTransform="matrix(-1 0 0 1 1790.7936 0)">
				<stop  offset="0" style="stop-color:#FEBBBA"/>
				<stop  offset="1" style="stop-color:#FF928E"/>
			</linearGradient>
			<path style="fill:url(#SVGID_00000078028147075079498580000004960195628537751435_);" d="M2866.615,3115.523
				c-0.361,2.42-4.81,39.198-6.533,53.457c-0.409,3.389-2.863,6.011-5.958,6.381c-5.528,0.66-14.473,1.261-22.299-0.343
				c-4.222-0.865-7.278-4.921-7.278-9.637v-57.731L2866.615,3115.523z"/>
			
				<linearGradient id="SVGID_00000160887183818300339540000018393485489548789903_" gradientUnits="userSpaceOnUse" x1="-791.994" y1="2228.3191" x2="-1484.4635" y2="3302.842" gradientTransform="matrix(-1 0 0 1 1790.7936 0)">
				<stop  offset="0" style="stop-color:#4F52FF"/>
				<stop  offset="1" style="stop-color:#4042E2"/>
			</linearGradient>
			<path style="fill:url(#SVGID_00000160887183818300339540000018393485489548789903_);" d="M2892.66,2444.347
				c0,0-78.3,297.567-76.885,672.027c0.026,6.827,4.82,12.719,11.5,14.126c9.845,2.074,24.316,4.536,36.297,4.2
				c6.396-0.179,11.742-4.922,12.817-11.229c10.979-64.383,73.984-427.092,109.882-485.976c0,0,23.618,323.043,16.069,490.64
				c-0.188,4.167,2.863,7.782,7.007,8.261c6.286,0.727,16.342,1.278,29.14-0.081c4.858-0.516,8.778-4.188,9.471-9.024
				c7.82-54.49,52.831-378.834,50.917-612.479c-0.108-13.176-34.844-70.465-34.844-70.465H2892.66z"/>
			
				<linearGradient id="SVGID_00000108996947908911702430000002313433187362497972_" gradientUnits="userSpaceOnUse" x1="22563.6289" y1="16936.6152" x2="21469.6172" y2="16257.9229" gradientTransform="matrix(-1 0 0 1 1790.7936 0)">
				<stop  offset="0" style="stop-color:#FF928E"/>
				<stop  offset="1" style="stop-color:#FE7062"/>
			</linearGradient>
			<path style="fill:url(#SVGID_00000108996947908911702430000002313433187362497972_);" d="M2772.583,2043.565
				c13.713-35.044,36.84-59.039,60.1-86.762c87.167,15.805,230.041,29.908,289.621,37.414c18.6,2.343,35.613,11.513,47.872,25.699
				c48.612,56.256,155.285,210.276,29.728,365.476c-16.067-8.919-38.899-23.222-54.406-39.773
				c13.891-39.157,15.028-89.198-14.084-150.561c-0.994,4.863-2.224,9.679-3.719,14.417
				c-40.124,127.115-42.265,232.896-42.175,257.275c0.012,3.312-1.975,6.292-5.048,7.523c-52.808,21.162-154.46,8.566-188.583,3.482
				c-6.257-0.933-10.467-6.757-9.601-13.025c16.747-121.329-69.202-320.923-91.903-370.914c-3.321-7.313-9.173-13.187-16.492-16.497
				c-3.672-1.662-7.269-3.357-10.826-5.068C2765.776,2062.575,2768.892,2052.997,2772.583,2043.565z"/>
			
				<linearGradient id="SVGID_00000132082393605832505350000005537372025190338987_" gradientUnits="userSpaceOnUse" x1="-1177.4205" y1="1847.8737" x2="-1266.2388" y2="2231.6948" gradientTransform="matrix(-1 0 0 1 1790.7936 0)">
				<stop  offset="0" style="stop-color:#FEBBBA"/>
				<stop  offset="1" style="stop-color:#FF928E"/>
			</linearGradient>
			<path style="fill:url(#SVGID_00000132082393605832505350000005537372025190338987_);" d="M3031.031,1877.489l6.217,108.471
				c0.183,3.198-1.902,6.084-5.008,6.868c-13.766,3.474-51.815,10.382-84.929-8.461c-4.29-2.441-6.277-7.587-4.928-12.335
				l27.693-97.465L3031.031,1877.489z"/>
			<g>
				
					<linearGradient id="SVGID_00000148648684331300958270000015785938256179496888_" gradientUnits="userSpaceOnUse" x1="-2078.9946" y1="-1534.855" x2="-2225.6567" y2="-1340.8331" gradientTransform="matrix(-0.6854 -0.7281 -0.7281 0.6854 439.7946 1318.7853)">
					<stop  offset="0" style="stop-color:#FEBBBA"/>
					<stop  offset="1" style="stop-color:#FF928E"/>
				</linearGradient>
				<path style="fill:url(#SVGID_00000148648684331300958270000015785938256179496888_);" d="M2963.157,1758.975
					c-1.408,1.326-59.417,115.241-59.417,115.241l65.748,31.74l71.021-99.8C3040.51,1806.156,2986.726,1736.788,2963.157,1758.975z"
					/>
				
					<linearGradient id="SVGID_00000123409478488948861270000016202522147924861836_" gradientUnits="userSpaceOnUse" x1="-2191.0027" y1="-1488.2605" x2="-2015.8132" y2="-1488.2605" gradientTransform="matrix(-0.6854 -0.7281 -0.7281 0.6854 439.7946 1318.7853)">
					<stop  offset="0" style="stop-color:#09005D"/>
					<stop  offset="1" style="stop-color:#1A0F91"/>
				</linearGradient>
				<path style="fill:url(#SVGID_00000123409478488948861270000016202522147924861836_);" d="M3011.418,1808.919
					c1.174,3.034,0.885,6.421-0.788,9.211l-32.792,54.663c-0.498,0.829-1.09,1.579-1.798,2.239
					c-3.903,3.633-17.259,14.201-27.585-0.187c-8.8-12.263-17.057-23.412-25.905-28.011c-5.167-2.685-11.525-0.54-14.148,4.658
					c-5.403,10.708-15.868,32.536-22.442,53.235c-1.648,5.188,1.03,10.758,6.075,12.802c13.313,5.393,39.625,15.148,62.975,18.371
					c3.836,0.529,7.633-1.089,9.916-4.216c10.045-13.762,38.359-52.22,48.022-61.847c8.978-8.943,25.547-5.571,33.013-3.426
					c2.834,0.814,5.852,0.422,8.378-1.099c7.575-4.562,20.794-15.925,8.701-35.161c-3.007-4.783-1.473-11.154,3.246-14.258
					c8.457-5.563,17.634-16.006,8.891-32.917c-8.852-17.119-24.657-18.656-35.423-17.34c-4.763,0.582-9.599-1.916-11.426-6.353
					c-0.813-1.974-2.42-3.656-5.411-4.262c-5.642-1.145-9.346-6.305-8.238-11.954c1.898-9.688,0.469-22.272-14.999-30.777
					c-28.368-15.597-53.218,9.817-59.536,31.271c-6.318,21.454,25.4,36.616,45.351,39.146
					C3000.15,1784.563,3008.186,1800.558,3011.418,1808.919z"/>
				
					<linearGradient id="SVGID_00000142886166195462521140000003941549249229939613_" gradientUnits="userSpaceOnUse" x1="-2293.7961" y1="-1381.205" x2="-2176.1619" y2="-1501.8947" gradientTransform="matrix(-0.6854 -0.7281 -0.7281 0.6854 439.7946 1318.7853)">
					<stop  offset="0" style="stop-color:#FEBBBA"/>
					<stop  offset="1" style="stop-color:#FF928E"/>
				</linearGradient>
				<path style="fill:url(#SVGID_00000142886166195462521140000003941549249229939613_);" d="M3000.632,1889.91
					c0,0,12.614-36.91,28.761-35.555c16.147,1.355,28.856,17.441,8.844,35.524C3013.345,1912.372,3000.632,1889.91,3000.632,1889.91
					z"/>
			</g>
			
				<linearGradient id="SVGID_00000091005476773765078740000004275083526232062375_" gradientUnits="userSpaceOnUse" x1="3732.3928" y1="1410.2616" x2="2692.3506" y2="2659.6626">
				<stop  offset="0" style="stop-color:#E1473D"/>
				<stop  offset="1" style="stop-color:#E9605A"/>
			</linearGradient>
			<path style="fill:url(#SVGID_00000091005476773765078740000004275083526232062375_);" d="M3136.74,2185.551
				c21.283-58.248,13.563-128.583,13.481-129.286l-5.865,0.67c0.078,0.69,7.635,69.677-13.165,126.589L3136.74,2185.551z"/>
			
				<linearGradient id="SVGID_00000096757217016767783910000018062787878419222676_" gradientUnits="userSpaceOnUse" x1="2909.7036" y1="1481.5453" x2="2980.6121" y2="2215.9536">
				<stop  offset="0" style="stop-color:#09005D"/>
				<stop  offset="1" style="stop-color:#1A0F91"/>
			</linearGradient>
			<path style="fill:url(#SVGID_00000096757217016767783910000018062787878419222676_);" d="M2989.149,2629.91
				c1.311,0,2.511-0.881,2.854-2.212c6.493-25.043,55.115-52.565,55.605-52.84c1.421-0.797,1.929-2.596,1.13-4.019
				c-0.799-1.422-2.589-1.93-4.019-1.13c-2.091,1.172-51.309,29.033-58.431,56.508c-0.409,1.579,0.539,3.19,2.116,3.598
				C2988.653,2629.88,2988.904,2629.91,2989.149,2629.91z"/>
			<g>
				
					<linearGradient id="SVGID_00000115497356055393401560000006696592304997996183_" gradientUnits="userSpaceOnUse" x1="22708.5098" y1="16703.082" x2="21614.4961" y2="16024.3896" gradientTransform="matrix(-1 0 0 1 1790.7936 0)">
					<stop  offset="0" style="stop-color:#FF928E"/>
					<stop  offset="1" style="stop-color:#FE7062"/>
				</linearGradient>
				<path style="fill:url(#SVGID_00000115497356055393401560000006696592304997996183_);" d="M2573.185,1990.458
					c82.881,30.291,259.499-33.656,259.499-33.656l12.153,144.302c-141.433,44.717-233.467,31.697-293.315-5.831
					C2547.799,2052.62,2560.619,2015.496,2573.185,1990.458z"/>
				
					<linearGradient id="SVGID_00000142867748834365547060000011672044070042260640_" gradientUnits="userSpaceOnUse" x1="-642.9053" y1="1710.8416" x2="-732.3495" y2="2003.1484" gradientTransform="matrix(-1 0 0 1 1790.7936 0)">
					<stop  offset="0" style="stop-color:#FEBBBA"/>
					<stop  offset="1" style="stop-color:#FF928E"/>
				</linearGradient>
				<path style="fill:url(#SVGID_00000142867748834365547060000011672044070042260640_);" d="M2441.225,1841.531l34.685-6.87
					c0,0,9.459,110.363,86.713,151.16c3.311,1.749,6.849,3.28,10.561,4.637c-12.566,25.038-25.386,62.161-21.664,104.815
					C2429.904,2019.014,2441.225,1841.531,2441.225,1841.531z"/>
			</g>
			
				<linearGradient id="SVGID_00000181059217977339602930000013119843553687740811_" gradientUnits="userSpaceOnUse" x1="-608.079" y1="1721.4983" x2="-697.5234" y2="2013.8057" gradientTransform="matrix(-1 0 0 1 1790.7936 0)">
				<stop  offset="0" style="stop-color:#FEBBBA"/>
				<stop  offset="1" style="stop-color:#FF928E"/>
			</linearGradient>
			<path style="fill:url(#SVGID_00000181059217977339602930000013119843553687740811_);" d="M2474.151,1844.281l1.76-9.62
				c0,0,7.234-23.497-11.903-46.629c-27.663-33.436-47.91-21.141-47.91-21.141s1.437,7.153,1.339,13.493
				c-0.079,5.117-6.213,7.707-9.981,4.245l-45.148-41.487c0,0-12.641,65.888,84.18,111.177L2474.151,1844.281z"/>
		</g>
	</g>
</g>
</svg>
